<svg width="21" height="21" viewBox="0 0 21 21" fill="none" xmlns="http://www.w3.org/2000/svg">
<path d="M4.92653 10.334L2.67021 12.5897L0.408203 10.334L2.66453 8.0783L4.92653 10.334ZM10.411 4.85103L14.2815 8.72035L16.5378 6.46467L10.411 0.333984L4.27862 6.46467L6.53494 8.72035L10.411 4.85103ZM18.1519 8.0783L15.8956 10.334L18.1519 12.5897L20.4082 10.334L18.1519 8.0783ZM10.411 15.8169L6.54063 11.9476L4.2843 14.2033L10.411 20.334L16.5378 14.2033L14.2815 11.9476L10.411 15.8169ZM10.411 12.5897L12.6674 10.334L10.411 8.0783L8.14904 10.334L10.411 12.5897Z" fill="#F0B90B"/>
</svg>
