<svg id="ewpcr1vdyym1" xmlns="http://www.w3.org/2000/svg" xmlns:xlink="http://www.w3.org/1999/xlink" viewBox="0 0 800 240" shape-rendering="geometricPrecision" text-rendering="geometricPrecision"><style><![CDATA[#ewpcr1vdyym8_to {animation: ewpcr1vdyym8_to__to 1000ms linear infinite normal forwards}@keyframes ewpcr1vdyym8_to__to { 0% {transform: translate(-119.850006px,136.999992px)} 100% {transform: translate(1085.077484px,136.999992px)} }]]></style><defs><path id="ewpcr1vdyym2" d="M800,224L800,16C800,7.200000,792.700000,-0.200000,784,0.800000C727,6.700000,750.500000,45,690.500000,45C644,45,628.500000,103,581,103C539.600000,103,547,62,498.500000,62C454.400000,62,441.500000,149,390.500000,149C355.500000,149,333.600000,112,302.500000,112C243,112,249,74,201,74C140.800000,74,146.200000,181,86,180.500000C57.800000,180.300000,40.500000,158.500000,15.800000,151.300000C7.300000,148.800000,0,156.200000,0,165L0,224C0,232.800000,7.200000,240,16,240L784,240C792.800000,240,800,232.800000,800,224Z"/><linearGradient id="ewpcr1vdyym8-fill" x1="-0" y1="191.399994" x2="404.927490" y2="191.399994" spreadMethod="pad" gradientUnits="userSpaceOnUse"><stop id="ewpcr1vdyym8-fill-0" offset="0%" stop-color="rgba(135,158,191,0)"/><stop id="ewpcr1vdyym8-fill-1" offset="50%" stop-color="rgba(135,158,191,0.30000001192092896)"/><stop id="ewpcr1vdyym8-fill-2" offset="100%" stop-color="rgba(135,158,191,0)"/></linearGradient></defs><g id="ewpcr1vdyym3"><path id="ewpcr1vdyym4" d="M800,224L800,16C800,7.200000,792.700000,-0.200000,784,0.800000C727,6.700000,750.500000,45,690.500000,45C644,45,628.500000,103,581,103C539.600000,103,547,62,498.500000,62C454.400000,62,441.500000,149,390.500000,149C355.500000,149,333.600000,112,302.500000,112C243,112,249,74,201,74C140.800000,74,146.200000,181,86,180.500000C57.800000,180.300000,40.500000,158.500000,15.800000,151.300000C7.300000,148.800000,0,156.200000,0,165L0,224C0,232.800000,7.200000,240,16,240L784,240C792.800000,240,800,232.800000,800,224Z" opacity="0.05000000074505806" fill="rgb(135,158,191)" stroke="none" stroke-width="1"/></g><g id="ewpcr1vdyym5"><g id="ewpcr1vdyym6"><g id="ewpcr1vdyym7" clip-path="url(#ewpcr1vdyym9)"><g id="ewpcr1vdyym8_to" transform="translate(-119.850006,136.999992)"><rect id="ewpcr1vdyym8" width="404.927490" height="382.799988" rx="0" ry="0" transform="translate(-285.077484,-191.399994)" fill="url(#ewpcr1vdyym8-fill)" stroke="none" stroke-width="1"/></g><clipPath id="ewpcr1vdyym9"><use id="ewpcr1vdyym10" width="800" height="239.290817" xlink:href="#ewpcr1vdyym2" fill="rgb(0,0,0)" stroke="none" stroke-width="1"/></clipPath></g></g></g></svg>
