<svg id="ewdu6emjvc31" xmlns="http://www.w3.org/2000/svg" xmlns:xlink="http://www.w3.org/1999/xlink" viewBox="0 0 806 136" shape-rendering="geometricPrecision" text-rendering="geometricPrecision"><style><![CDATA[#ewdu6emjvc327_to {animation: ewdu6emjvc327_to__to_ 1000ms linear infinite normal forwards}@keyframes ewdu6emjvc327_to__to { 0% {transform: translate(-392px,170.741264px)} 100% {transform: translate(818px,170.741264px)} }]]></style><defs><linearGradient id="ewdu6emjvc327-fill" x1="0" y1="0.500000" x2="1" y2="0.500000" spreadMethod="pad" gradientUnits="objectBoundingBox"><stop id="ewdu6emjvc327-fill-0" offset="0%" stop-color="rgba(135,158,191,0)"/><stop id="ewdu6emjvc327-fill-1" offset="50%" stop-color="rgba(135,158,191,0.3)"/><stop id="ewdu6emjvc327-fill-2" offset="100%" stop-color="rgba(135,158,191,0)"/></linearGradient></defs><g id="ewdu6emjvc32" opacity="0.05"><path id="ewdu6emjvc33" d="M692,0C691.448000,0,691,0.447754,691,1L691,10L683,10C681.343000,10,680,11.343300,680,13L680,71C680,72.656700,681.343000,74,683,74L691,74L691,83C691,83.552200,691.448000,84,692,84C692.552000,84,693,83.552200,693,83L693,74L701,74C702.657000,74,704,72.656700,704,71L704,13C704,11.343300,702.657000,10,701,10L693,10L693,1C693,0.447754,692.552000,0,692,0Z" fill="rgb(135,158,191)" stroke="none" stroke-width="1"/><path id="ewdu6emjvc34" d="M419,6C419,5.447750,419.448000,5,420,5C420.552000,5,421,5.447750,421,6L421,15L429,15C430.657000,15,432,16.343300,432,18L432,76C432,77.656700,430.657000,79,429,79L421,79L421,88C421,88.552200,420.552000,89,420,89C419.448000,89,419,88.552200,419,88L419,79L411,79C409.343000,79,408,77.656700,408,76L408,18C408,16.343300,409.343000,15,411,15L419,15L419,6Z" fill="rgb(135,158,191)" stroke="none" stroke-width="1"/><path id="ewdu6emjvc35" d="M216,13C215.448000,13,215,13.447800,215,14L215,23L207,23C205.343000,23,204,24.343300,204,26L204,54C204,55.656700,205.343000,57,207,57L215,57L215,66C215,66.552200,215.448000,67,216,67C216.552000,67,217,66.552200,217,66L217,57L225,57C226.657000,57,228,55.656700,228,54L228,26C228,24.343300,226.657000,23,225,23L217,23L217,14C217,13.447800,216.552000,13,216,13Z" fill="rgb(135,158,191)" stroke="none" stroke-width="1"/><path id="ewdu6emjvc36" d="M760,23C759.448000,23,759,23.447800,759,24L759,33L751,33C749.343000,33,748,34.343300,748,36L748,64C748,65.656700,749.343000,67,751,67L759,67L759,76C759,76.552200,759.448000,77,760,77C760.552000,77,761,76.552200,761,76L761,67L769,67C770.657000,67,772,65.656700,772,64L772,36C772,34.343300,770.657000,33,769,33L761,33L761,24C761,23.447800,760.552000,23,760,23Z" fill="rgb(135,158,191)" stroke="none" stroke-width="1"/><path id="ewdu6emjvc37" d="M11,26C11,25.447800,11.447800,25,12,25C12.552200,25,13,25.447800,13,26L13,35L21,35C22.656900,35,24,36.343300,24,38L24,66C24,67.656700,22.656900,69,21,69L13,69L13,78C13,78.552200,12.552200,79,12,79C11.447800,79,11,78.552200,11,78L11,69L3,69C1.343140,69,0,67.656700,0,66L0,38C0,36.343300,1.343140,35,3,35L11,35L11,26Z" fill="rgb(135,158,191)" stroke="none" stroke-width="1"/><path id="ewdu6emjvc38" d="M79,51C79,50.447800,79.447800,50,80,50C80.552200,50,81,50.447800,81,51L81,60L89,60C90.656900,60,92,61.343300,92,63L92,91C92,92.656700,90.656900,94,89,94L81,94L81,103C81,103.552000,80.552200,104,80,104C79.447800,104,79,103.552000,79,103L79,94L71,94C69.343100,94,68,92.656700,68,91L68,63C68,61.343300,69.343100,60,71,60L79,60L79,51Z" fill="rgb(135,158,191)" stroke="none" stroke-width="1"/><path id="ewdu6emjvc39" d="M318,82C317.448000,82,317,82.447800,317,83L317,92L309,92C307.343000,92,306,93.343300,306,95L306,123C306,124.657000,307.343000,126,309,126L317,126L317,135C317,135.552000,317.448000,136,318,136C318.552000,136,319,135.552000,319,135L319,126L327,126C328.657000,126,330,124.657000,330,123L330,95C330,93.343300,328.657000,92,327,92L319,92L319,83C319,82.447800,318.552000,82,318,82Z" fill="rgb(135,158,191)" stroke="none" stroke-width="1"/><path id="ewdu6emjvc310" d="M555,56C555,55.447800,555.448000,55,556,55C556.552000,55,557,55.447800,557,56L557,65L565,65C566.657000,65,568,66.343300,568,68L568,96C568,97.656700,566.657000,99,565,99L557,99L557,108C557,108.552000,556.552000,109,556,109C555.448000,109,555,108.552000,555,108L555,99L547,99C545.343000,99,544,97.656700,544,96L544,68C544,66.343300,545.343000,65,547,65L555,65L555,56Z" fill="rgb(135,158,191)" stroke="none" stroke-width="1"/><path id="ewdu6emjvc311" d="M487,29C487,28.447800,487.448000,28,488,28C488.552000,28,489,28.447800,489,29L489,38L497,38C498.657000,38,500,39.343300,500,41L500,69C500,70.656700,498.657000,72,497,72L489,72L489,81C489,81.552200,488.552000,82,488,82C487.448000,82,487,81.552200,487,81L487,72L479,72C477.343000,72,476,70.656700,476,69L476,41C476,39.343300,477.343000,38,479,38L487,38L487,29Z" fill="rgb(135,158,191)" stroke="none" stroke-width="1"/><path id="ewdu6emjvc312" d="M386,69C385.448000,69,385,69.447800,385,70L385,79L377,79C375.343000,79,374,80.343300,374,82L374,110C374,111.657000,375.343000,113,377,113L385,113L385,122C385,122.552000,385.448000,123,386,123C386.552000,123,387,122.552000,387,122L387,113L395,113C396.657000,113,398,111.657000,398,110L398,82C398,80.343300,396.657000,79,395,79L387,79L387,70C387,69.447800,386.552000,69,386,69Z" fill="rgb(135,158,191)" stroke="none" stroke-width="1"/><path id="ewdu6emjvc313" d="M623,51C623,50.447800,623.448000,50,624,50C624.552000,50,625,50.447800,625,51L625,60L633,60C634.657000,60,636,61.343300,636,63L636,91C636,92.656700,634.657000,94,633,94L625,94L625,103C625,103.552000,624.552000,104,624,104C623.448000,104,623,103.552000,623,103L623,94L615,94C613.343000,94,612,92.656700,612,91L612,63C612,61.343300,613.343000,60,615,60L623,60L623,51Z" fill="rgb(135,158,191)" stroke="none" stroke-width="1"/><path id="ewdu6emjvc314" d="M147,26C147,25.447800,147.448000,25,148,25C148.552000,25,149,25.447800,149,26L149,35L157,35C158.657000,35,160,36.343300,160,38L160,96C160,97.656700,158.657000,99,157,99L149,99L149,108C149,108.552000,148.552000,109,148,109C147.448000,109,147,108.552000,147,108L147,99L139,99C137.343000,99,136,97.656700,136,96L136,38C136,36.343300,137.343000,35,139,35L147,35L147,26Z" fill="rgb(135,158,191)" stroke="none" stroke-width="1"/><path id="ewdu6emjvc315" d="M284,35C283.448000,35,283,35.447800,283,36L283,45L275,45C273.343000,45,272,46.343300,272,48L272,106C272,107.657000,273.343000,109,275,109L283,109L283,118C283,118.552000,283.448000,119,284,119C284.552000,119,285,118.552000,285,118L285,109L293,109C294.657000,109,296,107.657000,296,106L296,48C296,46.343300,294.657000,45,293,45L285,45L285,36C285,35.447800,284.552000,35,284,35Z" fill="rgb(135,158,191)" stroke="none" stroke-width="1"/><path id="ewdu6emjvc316" d="M45,51C45,50.447800,45.447800,50,46,50C46.552200,50,47,50.447800,47,51L47,60L55,60C56.656900,60,58,61.343300,58,63L58,71C58,72.656700,56.656900,74,55,74L47,74L47,103C47,103.552000,46.552200,104,46,104C45.447800,104,45,103.552000,45,103L45,74L37,74C35.343100,74,34,72.656700,34,71L34,63C34,61.343300,35.343100,60,37,60L45,60L45,51Z" fill="rgb(135,158,191)" stroke="none" stroke-width="1"/><path id="ewdu6emjvc317" d="M250,35C249.448000,35,249,35.447800,249,36L249,45L241,45C239.343000,45,238,46.343300,238,48L238,56C238,57.656700,239.343000,59,241,59L249,59L249,88C249,88.552200,249.448000,89,250,89C250.552000,89,251,88.552200,251,88L251,59L259,59C260.657000,59,262,57.656700,262,56L262,48C262,46.343300,260.657000,45,259,45L251,45L251,36C251,35.447800,250.552000,35,250,35Z" fill="rgb(135,158,191)" stroke="none" stroke-width="1"/><path id="ewdu6emjvc318" d="M453,16C453,15.447800,453.448000,15,454,15C454.552000,15,455,15.447800,455,16L455,25L463,25C464.657000,25,466,26.343300,466,28L466,36C466,37.656700,464.657000,39,463,39L455,39L455,68C455,68.552200,454.552000,69,454,69C453.448000,69,453,68.552200,453,68L453,39L445,39C443.343000,39,442,37.656700,442,36L442,28C442,26.343300,443.343000,25,445,25L453,25L453,16Z" fill="rgb(135,158,191)" stroke="none" stroke-width="1"/><path id="ewdu6emjvc319" d="M182,25C181.448000,25,181,25.447800,181,26L181,35L173,35C171.343000,35,170,36.343300,170,38L170,56C170,57.656700,171.343000,59,173,59L181,59L181,88C181,88.552200,181.448000,89,182,89C182.552000,89,183,88.552200,183,88L183,59L191,59C192.657000,59,194,57.656700,194,56L194,38C194,36.343300,192.657000,35,191,35L183,35L183,26C183,25.447800,182.552000,25,182,25Z" fill="rgb(135,158,191)" stroke="none" stroke-width="1"/><path id="ewdu6emjvc320" d="M521,43C521,42.447800,521.448000,42,522,42C522.552000,42,523,42.447800,523,43L523,52L531,52C532.657000,52,534,53.343300,534,55L534,73C534,74.656700,532.657000,76,531,76L523,76L523,105C523,105.552000,522.552000,106,522,106C521.448000,106,521,105.552000,521,105L521,76L513,76C511.343000,76,510,74.656700,510,73L510,55C510,53.343300,511.343000,52,513,52L521,52L521,43Z" fill="rgb(135,158,191)" stroke="none" stroke-width="1"/><path id="ewdu6emjvc321" d="M726,0C725.448000,0,725,0.447754,725,1L725,10L717,10C715.343000,10,714,11.343300,714,13L714,31C714,32.656700,715.343000,34,717,34L725,34L725,63C725,63.552200,725.448000,64,726,64C726.552000,64,727,63.552200,727,63L727,34L735,34C736.657000,34,738,32.656700,738,31L738,13C738,11.343300,736.657000,10,735,10L727,10L727,1C727,0.447754,726.552000,0,726,0Z" fill="rgb(135,158,191)" stroke="none" stroke-width="1"/><path id="ewdu6emjvc322" d="M115,122C115,122.552000,114.552000,123,114,123C113.448000,123,113,122.552000,113,122L113,113L105,113C103.343000,113,102,111.657000,102,110L102,102C102,100.343000,103.343000,99,105,99L113,99L113,70C113,69.447800,113.448000,69,114,69C114.552000,69,115,69.447800,115,70L115,99L123,99C124.657000,99,126,100.343000,126,102L126,110C126,111.657000,124.657000,113,123,113L115,113L115,122Z" fill="rgb(135,158,191)" stroke="none" stroke-width="1"/><path id="ewdu6emjvc323" d="M352,136C352.552000,136,353,135.552000,353,135L353,126L361,126C362.657000,126,364,124.657000,364,123L364,115C364,113.343000,362.657000,112,361,112L353,112L353,83C353,82.447800,352.552000,82,352,82C351.448000,82,351,82.447800,351,83L351,112L343,112C341.343000,112,340,113.343000,340,115L340,123C340,124.657000,341.343000,126,343,126L351,126L351,135C351,135.552000,351.448000,136,352,136Z" fill="rgb(135,158,191)" stroke="none" stroke-width="1"/><path id="ewdu6emjvc324" d="M591,122C591,122.552000,590.552000,123,590,123C589.448000,123,589,122.552000,589,122L589,113L581,113C579.343000,113,578,111.657000,578,110L578,102C578,100.343000,579.343000,99,581,99L589,99L589,70C589,69.447800,589.448000,69,590,69C590.552000,69,591,69.447800,591,70L591,99L599,99C600.657000,99,602,100.343000,602,102L602,110C602,111.657000,600.657000,113,599,113L591,113L591,122Z" fill="rgb(135,158,191)" stroke="none" stroke-width="1"/><path id="ewdu6emjvc325" d="M658,93C658.552000,93,659,92.552200,659,92L659,83L667,83C668.657000,83,670,81.656700,670,80L670,62C670,60.343300,668.657000,59,667,59L659,59L659,40C659,39.447800,658.552000,39,658,39C657.448000,39,657,39.447800,657,40L657,59L649,59C647.343000,59,646,60.343300,646,62L646,80C646,81.656700,647.343000,83,649,83L657,83L657,92C657,92.552200,657.448000,93,658,93Z" fill="rgb(135,158,191)" stroke="none" stroke-width="1"/></g><g id="ewdu6emjvc326" mask="url(#ewdu6emjvc328)"><g id="ewdu6emjvc327_to" transform="translate(-392,170.741264)"><path id="ewdu6emjvc327" d="M1000.833333,213.430722C1000.833333,218.657142,993.292000,222.898875,984,222.898875C974.708000,222.898875,967.166667,218.657142,967.166667,213.430722L967.166667,128.217342L832.500000,128.217342C804.607167,128.217342,782,115.498772,782,99.812882L782,-70.613877C782,-86.299766,804.607167,-99.018336,832.500000,-99.018336L967.166667,-99.018336L967.166667,-278.913249C967.166667,-284.141563,974.708000,-288.381402,984,-288.381402C993.292000,-288.381402,1000.833333,-284.141563,1000.833333,-278.913249L1000.833333,-99.018336L1135.500000,-99.018336C1163.392833,-99.018336,1186,-86.299766,1186,-70.613877L1186,99.812882C1186,115.498772,1163.392833,128.217342,1135.500000,128.217342L1000.833333,128.217342L1000.833333,213.430722Z" transform="translate(-794,-74)" fill="url(#ewdu6emjvc327-fill)" stroke="none" stroke-width="1"/></g><mask id="ewdu6emjvc328" mask-type="luminance"><g id="ewdu6emjvc329"><path id="ewdu6emjvc330" d="M692,0C691.448000,0,691,0.447754,691,1L691,10L683,10C681.343000,10,680,11.343300,680,13L680,71C680,72.656700,681.343000,74,683,74L691,74L691,83C691,83.552200,691.448000,84,692,84C692.552000,84,693,83.552200,693,83L693,74L701,74C702.657000,74,704,72.656700,704,71L704,13C704,11.343300,702.657000,10,701,10L693,10L693,1C693,0.447754,692.552000,0,692,0Z" fill="rgb(135,158,191)" stroke="none" stroke-width="1"/><path id="ewdu6emjvc331" d="M419,6C419,5.447750,419.448000,5,420,5C420.552000,5,421,5.447750,421,6L421,15L429,15C430.657000,15,432,16.343300,432,18L432,76C432,77.656700,430.657000,79,429,79L421,79L421,88C421,88.552200,420.552000,89,420,89C419.448000,89,419,88.552200,419,88L419,79L411,79C409.343000,79,408,77.656700,408,76L408,18C408,16.343300,409.343000,15,411,15L419,15L419,6Z" fill="rgb(135,158,191)" stroke="none" stroke-width="1"/><path id="ewdu6emjvc332" d="M216,13C215.448000,13,215,13.447800,215,14L215,23L207,23C205.343000,23,204,24.343300,204,26L204,54C204,55.656700,205.343000,57,207,57L215,57L215,66C215,66.552200,215.448000,67,216,67C216.552000,67,217,66.552200,217,66L217,57L225,57C226.657000,57,228,55.656700,228,54L228,26C228,24.343300,226.657000,23,225,23L217,23L217,14C217,13.447800,216.552000,13,216,13Z" fill="rgb(135,158,191)" stroke="none" stroke-width="1"/><path id="ewdu6emjvc333" d="M760,23C759.448000,23,759,23.447800,759,24L759,33L751,33C749.343000,33,748,34.343300,748,36L748,64C748,65.656700,749.343000,67,751,67L759,67L759,76C759,76.552200,759.448000,77,760,77C760.552000,77,761,76.552200,761,76L761,67L769,67C770.657000,67,772,65.656700,772,64L772,36C772,34.343300,770.657000,33,769,33L761,33L761,24C761,23.447800,760.552000,23,760,23Z" fill="rgb(135,158,191)" stroke="none" stroke-width="1"/><path id="ewdu6emjvc334" d="M11,26C11,25.447800,11.447800,25,12,25C12.552200,25,13,25.447800,13,26L13,35L21,35C22.656900,35,24,36.343300,24,38L24,66C24,67.656700,22.656900,69,21,69L13,69L13,78C13,78.552200,12.552200,79,12,79C11.447800,79,11,78.552200,11,78L11,69L3,69C1.343140,69,0,67.656700,0,66L0,38C0,36.343300,1.343140,35,3,35L11,35L11,26Z" fill="rgb(135,158,191)" stroke="none" stroke-width="1"/><path id="ewdu6emjvc335" d="M79,51C79,50.447800,79.447800,50,80,50C80.552200,50,81,50.447800,81,51L81,60L89,60C90.656900,60,92,61.343300,92,63L92,91C92,92.656700,90.656900,94,89,94L81,94L81,103C81,103.552000,80.552200,104,80,104C79.447800,104,79,103.552000,79,103L79,94L71,94C69.343100,94,68,92.656700,68,91L68,63C68,61.343300,69.343100,60,71,60L79,60L79,51Z" fill="rgb(135,158,191)" stroke="none" stroke-width="1"/><path id="ewdu6emjvc336" d="M318,82C317.448000,82,317,82.447800,317,83L317,92L309,92C307.343000,92,306,93.343300,306,95L306,123C306,124.657000,307.343000,126,309,126L317,126L317,135C317,135.552000,317.448000,136,318,136C318.552000,136,319,135.552000,319,135L319,126L327,126C328.657000,126,330,124.657000,330,123L330,95C330,93.343300,328.657000,92,327,92L319,92L319,83C319,82.447800,318.552000,82,318,82Z" fill="rgb(135,158,191)" stroke="none" stroke-width="1"/><path id="ewdu6emjvc337" d="M555,56C555,55.447800,555.448000,55,556,55C556.552000,55,557,55.447800,557,56L557,65L565,65C566.657000,65,568,66.343300,568,68L568,96C568,97.656700,566.657000,99,565,99L557,99L557,108C557,108.552000,556.552000,109,556,109C555.448000,109,555,108.552000,555,108L555,99L547,99C545.343000,99,544,97.656700,544,96L544,68C544,66.343300,545.343000,65,547,65L555,65L555,56Z" fill="rgb(135,158,191)" stroke="none" stroke-width="1"/><path id="ewdu6emjvc338" d="M487,29C487,28.447800,487.448000,28,488,28C488.552000,28,489,28.447800,489,29L489,38L497,38C498.657000,38,500,39.343300,500,41L500,69C500,70.656700,498.657000,72,497,72L489,72L489,81C489,81.552200,488.552000,82,488,82C487.448000,82,487,81.552200,487,81L487,72L479,72C477.343000,72,476,70.656700,476,69L476,41C476,39.343300,477.343000,38,479,38L487,38L487,29Z" fill="rgb(135,158,191)" stroke="none" stroke-width="1"/><path id="ewdu6emjvc339" d="M386,69C385.448000,69,385,69.447800,385,70L385,79L377,79C375.343000,79,374,80.343300,374,82L374,110C374,111.657000,375.343000,113,377,113L385,113L385,122C385,122.552000,385.448000,123,386,123C386.552000,123,387,122.552000,387,122L387,113L395,113C396.657000,113,398,111.657000,398,110L398,82C398,80.343300,396.657000,79,395,79L387,79L387,70C387,69.447800,386.552000,69,386,69Z" fill="rgb(135,158,191)" stroke="none" stroke-width="1"/><path id="ewdu6emjvc340" d="M623,51C623,50.447800,623.448000,50,624,50C624.552000,50,625,50.447800,625,51L625,60L633,60C634.657000,60,636,61.343300,636,63L636,91C636,92.656700,634.657000,94,633,94L625,94L625,103C625,103.552000,624.552000,104,624,104C623.448000,104,623,103.552000,623,103L623,94L615,94C613.343000,94,612,92.656700,612,91L612,63C612,61.343300,613.343000,60,615,60L623,60L623,51Z" fill="rgb(135,158,191)" stroke="none" stroke-width="1"/><path id="ewdu6emjvc341" d="M147,26C147,25.447800,147.448000,25,148,25C148.552000,25,149,25.447800,149,26L149,35L157,35C158.657000,35,160,36.343300,160,38L160,96C160,97.656700,158.657000,99,157,99L149,99L149,108C149,108.552000,148.552000,109,148,109C147.448000,109,147,108.552000,147,108L147,99L139,99C137.343000,99,136,97.656700,136,96L136,38C136,36.343300,137.343000,35,139,35L147,35L147,26Z" fill="rgb(135,158,191)" stroke="none" stroke-width="1"/><path id="ewdu6emjvc342" d="M284,35C283.448000,35,283,35.447800,283,36L283,45L275,45C273.343000,45,272,46.343300,272,48L272,106C272,107.657000,273.343000,109,275,109L283,109L283,118C283,118.552000,283.448000,119,284,119C284.552000,119,285,118.552000,285,118L285,109L293,109C294.657000,109,296,107.657000,296,106L296,48C296,46.343300,294.657000,45,293,45L285,45L285,36C285,35.447800,284.552000,35,284,35Z" fill="rgb(135,158,191)" stroke="none" stroke-width="1"/><path id="ewdu6emjvc343" d="M45,51C45,50.447800,45.447800,50,46,50C46.552200,50,47,50.447800,47,51L47,60L55,60C56.656900,60,58,61.343300,58,63L58,71C58,72.656700,56.656900,74,55,74L47,74L47,103C47,103.552000,46.552200,104,46,104C45.447800,104,45,103.552000,45,103L45,74L37,74C35.343100,74,34,72.656700,34,71L34,63C34,61.343300,35.343100,60,37,60L45,60L45,51Z" fill="rgb(135,158,191)" stroke="none" stroke-width="1"/><path id="ewdu6emjvc344" d="M250,35C249.448000,35,249,35.447800,249,36L249,45L241,45C239.343000,45,238,46.343300,238,48L238,56C238,57.656700,239.343000,59,241,59L249,59L249,88C249,88.552200,249.448000,89,250,89C250.552000,89,251,88.552200,251,88L251,59L259,59C260.657000,59,262,57.656700,262,56L262,48C262,46.343300,260.657000,45,259,45L251,45L251,36C251,35.447800,250.552000,35,250,35Z" fill="rgb(135,158,191)" stroke="none" stroke-width="1"/><path id="ewdu6emjvc345" d="M453,16C453,15.447800,453.448000,15,454,15C454.552000,15,455,15.447800,455,16L455,25L463,25C464.657000,25,466,26.343300,466,28L466,36C466,37.656700,464.657000,39,463,39L455,39L455,68C455,68.552200,454.552000,69,454,69C453.448000,69,453,68.552200,453,68L453,39L445,39C443.343000,39,442,37.656700,442,36L442,28C442,26.343300,443.343000,25,445,25L453,25L453,16Z" fill="rgb(135,158,191)" stroke="none" stroke-width="1"/><path id="ewdu6emjvc346" d="M182,25C181.448000,25,181,25.447800,181,26L181,35L173,35C171.343000,35,170,36.343300,170,38L170,56C170,57.656700,171.343000,59,173,59L181,59L181,88C181,88.552200,181.448000,89,182,89C182.552000,89,183,88.552200,183,88L183,59L191,59C192.657000,59,194,57.656700,194,56L194,38C194,36.343300,192.657000,35,191,35L183,35L183,26C183,25.447800,182.552000,25,182,25Z" fill="rgb(135,158,191)" stroke="none" stroke-width="1"/><path id="ewdu6emjvc347" d="M521,43C521,42.447800,521.448000,42,522,42C522.552000,42,523,42.447800,523,43L523,52L531,52C532.657000,52,534,53.343300,534,55L534,73C534,74.656700,532.657000,76,531,76L523,76L523,105C523,105.552000,522.552000,106,522,106C521.448000,106,521,105.552000,521,105L521,76L513,76C511.343000,76,510,74.656700,510,73L510,55C510,53.343300,511.343000,52,513,52L521,52L521,43Z" fill="rgb(135,158,191)" stroke="none" stroke-width="1"/><path id="ewdu6emjvc348" d="M726,0C725.448000,0,725,0.447754,725,1L725,10L717,10C715.343000,10,714,11.343300,714,13L714,31C714,32.656700,715.343000,34,717,34L725,34L725,63C725,63.552200,725.448000,64,726,64C726.552000,64,727,63.552200,727,63L727,34L735,34C736.657000,34,738,32.656700,738,31L738,13C738,11.343300,736.657000,10,735,10L727,10L727,1C727,0.447754,726.552000,0,726,0Z" fill="rgb(135,158,191)" stroke="none" stroke-width="1"/><path id="ewdu6emjvc349" d="M115,122C115,122.552000,114.552000,123,114,123C113.448000,123,113,122.552000,113,122L113,113L105,113C103.343000,113,102,111.657000,102,110L102,102C102,100.343000,103.343000,99,105,99L113,99L113,70C113,69.447800,113.448000,69,114,69C114.552000,69,115,69.447800,115,70L115,99L123,99C124.657000,99,126,100.343000,126,102L126,110C126,111.657000,124.657000,113,123,113L115,113L115,122Z" fill="rgb(135,158,191)" stroke="none" stroke-width="1"/><path id="ewdu6emjvc350" d="M352,136C352.552000,136,353,135.552000,353,135L353,126L361,126C362.657000,126,364,124.657000,364,123L364,115C364,113.343000,362.657000,112,361,112L353,112L353,83C353,82.447800,352.552000,82,352,82C351.448000,82,351,82.447800,351,83L351,112L343,112C341.343000,112,340,113.343000,340,115L340,123C340,124.657000,341.343000,126,343,126L351,126L351,135C351,135.552000,351.448000,136,352,136Z" fill="rgb(135,158,191)" stroke="none" stroke-width="1"/><path id="ewdu6emjvc351" d="M591,122C591,122.552000,590.552000,123,590,123C589.448000,123,589,122.552000,589,122L589,113L581,113C579.343000,113,578,111.657000,578,110L578,102C578,100.343000,579.343000,99,581,99L589,99L589,70C589,69.447800,589.448000,69,590,69C590.552000,69,591,69.447800,591,70L591,99L599,99C600.657000,99,602,100.343000,602,102L602,110C602,111.657000,600.657000,113,599,113L591,113L591,122Z" fill="rgb(135,158,191)" stroke="none" stroke-width="1"/><path id="ewdu6emjvc352" d="M658,93C658.552000,93,659,92.552200,659,92L659,83L667,83C668.657000,83,670,81.656700,670,80L670,62C670,60.343300,668.657000,59,667,59L659,59L659,40C659,39.447800,658.552000,39,658,39C657.448000,39,657,39.447800,657,40L657,59L649,59C647.343000,59,646,60.343300,646,62L646,80C646,81.656700,647.343000,83,649,83L657,83L657,92C657,92.552200,657.448000,93,658,93Z" fill="rgb(135,158,191)" stroke="none" stroke-width="1"/></g></mask></g></svg>