<svg id="Layer_1" data-name="Layer 1" xmlns="http://www.w3.org/2000/svg" viewBox="0 0 2353.33 891.89"><defs><style>.cls-1{fill:#fff;}.cls-2{fill:#fbbf24;}</style></defs><path class="cls-1" d="M2111.64,369.49c0-28.32.41-56.66-.17-85-.3-14.83,5.5-21,20.51-20.74q43.56.83,87.14,0c40.83-.81,57.8-18.37,58.1-59.22.14-17.43.64-34.91-.36-52.28-1.58-27.32-18.62-44.38-45.91-45.51-25.38-1-50.84,0-76.23-.83-26.5-.87-42.93-15.57-42.67-36.69.27-21.54,16.5-35.34,43.24-35.79,24.68-.41,49.4-.73,74.06.12C2301.14,36,2348.42,84.71,2349,156.15c.17,20.34-.19,40.68,0,61,.33,32.27-10.91,60-34.08,82-10.6,10.08-11.95,19.77-8.25,33,12.86,46.16,24.33,92.71,37.44,138.79,4.94,17.39.86,24.07-17.57,23.82-62-.86-49.17,5.27-63.82-47-8.42-30.07-17.68-60.05-23.39-90.67-4.87-26.05-22.61-21.61-39.62-21.52-20,.09-15.6,15.27-15.76,26.79-.41,29.77.18,59.56-.28,89.33-.4,26.6-14.6,42.2-36.83,41.76-21.31-.42-34.73-15.7-35.12-41.21C2111.3,424.7,2111.63,397.09,2111.64,369.49Z"/><path class="cls-1" d="M2194.34,774.94c0-19,.28-37.94-.11-56.9-.2-9.94,3.69-14.08,13.74-13.89q29.18.55,58.36,0c27.34-.55,38.7-12.31,38.91-39.67.09-11.67.43-23.37-.25-35-1-18.29-12.46-29.72-30.74-30.47-17-.7-34.05,0-51.05-.56-17.75-.58-28.75-10.43-28.58-24.58.18-14.42,11.05-23.66,29-24,16.53-.28,33.08-.49,49.6.08,48.08,1.67,79.74,34.28,80.12,82.12.11,13.62-.13,27.24,0,40.86.23,21.6-7.3,40.19-22.82,54.94-7.1,6.75-8,13.24-5.52,22.12,8.61,30.91,16.29,62.09,25.07,93,3.31,11.65.58,16.12-11.77,15.95-41.5-.58-32.93,3.53-42.74-31.5-5.63-20.13-11.84-40.21-15.66-60.71-3.26-17.45-15.14-14.48-26.53-14.42-13.42.06-10.46,10.23-10.56,17.94-.28,19.94.12,39.89-.18,59.82-.28,17.82-9.79,28.27-24.67,28-14.27-.28-23.26-10.51-23.52-27.6C2194.12,811.92,2194.34,793.43,2194.34,774.94Z"/><path class="cls-1" d="M1484.25,218.65c0,49.39.33,98.78-.09,148.16-.63,72.35-54.29,126.69-124.7,126.93-70.9.24-125.24-53-126.29-125.14-.93-64.63-.69-129.27-.64-193.91,0-28.66,13.28-45.35,35.33-45.91,22.37-.56,37.09,17.12,37.29,46.54.41,63.18-.1,126.37.43,189.56.28,34.51,23.9,57.71,55.58,56.19,30.57-1.46,50.18-22.91,50.29-56.77.28-84.24,0-168.49-.07-252.74,0-20.34,0-40.67-.06-61,0-11.4,4.69-18,16.92-17.3,1.45.08,2.9,0,4.35,0,59,.88,51.17-7.27,51.6,50.31C1484.53,128.59,1484.26,173.62,1484.25,218.65Z"/><path class="cls-1" d="M962.74,366.36c16.72-3,30.13,1.74,37,24.69,6.29,21.08,28,30.76,51,29.22,22.74-1.52,38.35-13.46,45.85-34.35,7.63-21.22,2.89-41.33-15.32-54.74-23.88-17.58-49.89-32.24-74.28-49.16-18.41-12.76-37.6-25.25-53.14-41.11-42-42.86-43-115.15-4.23-161.3,41.35-49.18,115-61.94,164.56-25.25,19.09,14.14,34.93,34.41,47.81,54.7,12,18.9,5.64,35.42-10.73,45-17,10-38.25,6-50.77-9.93-4.92-6.25-8.5-13.61-13.73-19.55-20.16-22.91-54-24.6-75.75-4.22-23,21.61-24.15,53.24.9,74.28,21.49,18.05,46.87,31.4,69.8,47.85,21.1,15.15,43.38,29.56,61.31,48,35.72,36.79,39.41,94.37,12.47,141.6-26.59,46.63-79.14,69.37-136.43,59-45.07-8.13-88.92-53.63-95.62-99.23C919.92,368.44,922.9,366.3,962.74,366.36Z"/><path class="cls-1" d="M1545,379.5c0-30.5.71-61-.24-91.49-.55-17.58,5.21-25.08,23.63-24.37,28.28,1.08,56.64.73,84.94.09,39.67-.9,56.41-18.18,57-57.94.26-16,.4-32-.14-47.93-1.15-34.26-17.33-50.61-51.19-51.46-23.22-.59-46.47.17-69.69-.5-27.76-.8-44.8-15.82-43.93-37.6.85-21.34,17.11-34.48,44.15-34.9,23.23-.36,46.48-.53,69.7,0,75.54,1.87,122.93,50.41,123.28,125.85.08,17.42.13,34.85,0,52.28-.55,72.55-48,121-121,123.7-44.74,1.66-44.74,1.66-44.74,46.27,0,30.5-.53,61,.23,91.5.4,16.16-6.32,21.82-21.94,21.72-59.12-.38-49.37,3.57-50.1-47.72C1544.66,424.53,1544.93,402,1545,379.5Z"/><path class="cls-1" d="M1936.66,494.52c-24.7,0-49.39-.31-74.08.12-13.76.24-19.66-5.44-19.59-19.39.32-69-.24-138,.47-207,.27-27,13.64-39.27,41.26-39.75q47.91-.83,95.86,0c25,.4,40.7,14.81,40.49,35.84-.21,20.77-16,34.59-41.28,35.42-15.24.5-30.51.46-45.75.17-13-.24-18.23,5.82-18.08,18.55.32,28.32.45,56.66,0,85-.27,14.7,7.08,18.7,20.27,18.45,24-.44,47.94-.46,71.9.11,25,.6,41.56,14.62,42.38,34.73.86,21-15.61,36.3-41.92,37.19-23.93.82-47.92.18-71.88.18Z"/><path class="cls-1" d="M1551.65,693.29c0-39.12.46-78.24-.21-117.35-.29-17.28,5.44-25,23.85-24.89,17.59.12,24.5,5.87,24.35,24.09q-1,124.18,0,248.39c.15,18-6.16,24.27-24.06,24.19-35.9-.18-36.08.66-45.78-33.86-10-35.49-19.54-71.09-29.29-106.64l-6.72.28c0,14.29.15,28.58,0,42.87-.3,23.17-8.65,35.12-24.46,33.6-19.93-1.91-23.27-16.27-23.21-33.05.19-52.29-.09-104.59.16-156.88.12-24.39,11-38.75,30-41.2,18.51-2.39,32,7.61,38.71,30.43,9.16,31.36,17.33,63,26.08,94.48,1.62,5.84,4,11.47,6.05,17.2Z"/><path class="cls-1" d="M1139.51,657.67c-3.66,20.27-7.44,40.51-11,60.8-5.59,32.19-11,64.41-16.52,96.61-.49,2.85-1.15,5.69-1.88,8.5-3.74,14.37-12.17,24.23-27.84,21.17-15.51-3-20.48-15-17.94-29.89,14-82.3,27.83-164.64,43-246.73,1.2-6.49,11.53-15.18,18.51-16.09,46.59-6.13,49.48-3.71,57.62,42.53,12.46,70.79,24.47,141.65,36.66,212.48.25,1.43.44,2.87.71,4.3,3.12,16.24-.08,30.45-18.29,33.47-16.82,2.79-24.83-8.69-27.55-24.16q-12.84-72.93-25.68-145.85c-1-5.47-2.23-10.89-3.35-16.32Z"/><path class="cls-1" d="M1636.69,698.19c0-23.24-.93-46.53.24-69.72,2.14-42.45,35.78-74.92,77.72-76.49,40.6-1.52,76.56,28.66,82.3,69.17,2.24,15.81,0,30.69-18.24,34.09-18,3.36-25.4-8.13-28.4-25-3.8-21.35-17.25-31.69-35.91-30.21-18.38,1.45-29.41,14-29.66,36.2-.49,42.12-.56,84.26,0,126.38.33,23.08,12.55,35.35,32.65,35.22,19.73-.12,33-12.4,32.82-35.19-.15-21.59,11.66-22.55,27.93-22.66,19.41-.12,20.45,11.56,19.91,25.94-1.71,45.45-36.82,80.56-80.85,80.58-42.78,0-78.54-34.44-80.41-78.6C1635.85,744.72,1636.66,721.44,1636.69,698.19Z"/><path class="cls-1" d="M1409.55,672.39c0,29.75.38,59.51-.11,89.26-.8,48.3-36.31,85.24-81.08,85-46-.21-79.48-35.33-80-84.83-.42-39.18,0-78.37-.09-117.56,0-16.07,3.69-30.37,23-30,18.6.32,23.4,13.82,23.32,30.25q-.25,55.51,0,111c.17,28.19,11,42,32.62,42.42,22.43.48,34.06-13.52,34.21-42.89.32-58.78.59-117.57-.13-176.35-.23-18.63,4.23-28,25.36-27.81s23.33,11.34,23,27.87C1409.17,610,1409.57,641.18,1409.55,672.39Z"/><path class="cls-1" d="M1941.12,697.27c0-40.63.57-81.27-.24-121.88-.36-17.78,6.15-24.49,24.08-24.52s24.53,6.5,24.42,24.31q-.75,124.13,0,248.24c.11,17.73-6.47,24.37-24.37,24.39s-24.52-6.42-24.18-24.32C1941.66,781.43,1941.11,739.35,1941.12,697.27Z"/><path class="cls-1" d="M1947,33.42c21,0,42-.5,63,.14,23.27.7,39.43,14.95,40.35,34.28,1,20-15.4,37.19-39.28,37.75q-64,1.48-128.16,0c-24.14-.58-40-17.36-39.15-37.76.86-19.46,16.79-33.27,40.24-34.33,10.85-.49,21.72-.16,32.59-.18q15.2,0,30.41,0Z"/><path class="cls-1" d="M2091.32,549.72c13.82,0,27.64-.33,41.44.09,15.31.46,25.94,9.84,26.55,22.55.63,13.19-10.13,24.47-25.85,24.83q-42.12,1-84.29,0c-15.88-.38-26.35-11.42-25.76-24.84.56-12.8,11-21.88,26.47-22.58,7.13-.32,14.29-.11,21.44-.12h20Z"/><path class="cls-1" d="M1882.72,700.75c0,37.72-.08,75.44.06,113.17,0,16.07-3.86,30.34-22.56,31-20.32.74-24.8-14.44-24.84-31.12q-.21-115.35,0-230.7c0-15.83,4.65-30.27,23.68-30,18.51.23,23.64,13.76,23.61,30.12Q1882.62,642,1882.72,700.75Z"/><path class="cls-1" d="M1083.35,370.11c-.12,19.33-17.22,35.42-37,34.86s-35.71-17.25-35.32-36.85c.39-19.31,18-36.27,36.84-35.52C1066.47,333.33,1083.47,351.28,1083.35,370.11Z"/><path class="cls-1" d="M1268.87,105.71c-19.2-.12-35.73-17.41-35.31-36.91C1234,50.11,1250,34.14,1268.5,34c19.45-.18,36.61,16.54,36.59,35.63C1305.07,88.9,1288.08,105.83,1268.87,105.71Z"/><path class="cls-1" d="M1915.24,167.89c-.52,18.91-18.29,35-37.61,34.09-18.7-.9-34.07-17-33.85-35.48.23-19.64,16.77-35.75,36.31-35.36S1915.78,148.52,1915.24,167.89Z"/><path class="cls-1" d="M1616.33,184.88c-.28,19.56-17,35.6-36.47,35s-35.25-17.52-34.46-37.07c.75-18.53,16.74-33.78,35.43-33.79A35.52,35.52,0,0,1,1616.33,184.88Z"/><path class="cls-1" d="M2183.32,182.52c.31,19.61-15.75,35.48-35.81,35.41-19.4-.07-34.75-14.56-35.47-33.49a35.44,35.44,0,0,1,34.63-36.69C2166.45,147.29,2183,163,2183.32,182.52Z"/><path class="cls-1" d="M1043.48,819.7c-.07,11.59-10.33,21.24-22.21,20.91a21.94,21.94,0,0,1-21.18-22.1c.23-11.58,10.78-21.75,22.09-21.31S1043.55,808.41,1043.48,819.7Z"/><path class="cls-1" d="M1164.51,821.8c-.08,11.58-10.33,21.24-22.21,20.9a21.92,21.92,0,0,1-21.18-22.1c.23-11.58,10.78-21.75,22.09-21.3S1164.57,810.5,1164.51,821.8Z"/><path class="cls-1" d="M1492.7,821.8c-.07,11.58-10.32,21.24-22.2,20.9a21.92,21.92,0,0,1-21.18-22.1c.23-11.58,10.77-21.75,22.09-21.3C1482.58,799.74,1492.77,810.5,1492.7,821.8Z"/><path class="cls-1" d="M1294.45,574.44c-.07,11.59-10.32,21.24-22.2,20.9a21.91,21.91,0,0,1-21.18-22.1c.23-11.58,10.77-21.75,22.09-21.3C1284.33,552.38,1294.52,563.14,1294.45,574.44Z"/><path class="cls-1" d="M1739,698.25c-.07,11.58-10.33,21.24-22.21,20.9a21.93,21.93,0,0,1-21.18-22.1c.23-11.58,10.78-21.75,22.1-21.3C1728.84,676.19,1739,687,1739,698.25Z"/><path class="cls-1" d="M1933.5,699.59c-.07,11.59-10.33,21.24-22.21,20.91a21.94,21.94,0,0,1-21.18-22.11c.23-11.58,10.78-21.75,22.1-21.3S1933.57,688.3,1933.5,699.59Z"/><path class="cls-1" d="M2072.19,637.75c-.07,11.59-10.32,21.25-22.2,20.91a21.93,21.93,0,0,1-21.19-22.1c.24-11.58,10.78-21.75,22.1-21.31C2062.07,615.69,2072.26,626.46,2072.19,637.75Z"/><path class="cls-1" d="M2242.85,646.47c-.07,11.59-10.33,21.24-22.21,20.9a21.92,21.92,0,0,1-21.18-22.1c.23-11.58,10.78-21.75,22.09-21.3S2242.92,635.17,2242.85,646.47Z"/><path class="cls-1" d="M965.53,564.37c-.07,11.59-10.33,21.25-22.21,20.91a21.93,21.93,0,0,1-21.18-22.1c.24-11.58,10.78-21.75,22.1-21.31C955.41,542.31,965.6,553.08,965.53,564.37Z"/><rect class="cls-1" x="921.32" y="563.57" width="45.02" height="283.11"/><rect class="cls-1" x="937.3" y="795.31" width="45.02" height="51.38"/><path class="cls-1" d="M2092.25,845.2c-16.32,0-32.64-.2-49,.08-9.09.16-13-3.59-13-12.81.22-45.59-.15-91.19.31-136.78.19-17.86,9-26,27.27-26.26q31.67-.55,63.34,0c16.54.27,26.89,9.79,26.75,23.68-.14,13.73-10.58,22.86-27.28,23.41-10.06.33-20.15.3-30.22.11-8.58-.16-12,3.85-11.95,12.26.22,18.71.3,37.44,0,56.15-.18,9.71,4.67,12.35,13.39,12.19,15.83-.29,31.68-.3,47.51.07,16.51.4,27.46,9.67,28,23,.56,13.88-10.32,24-27.7,24.58-15.82.54-31.67.11-47.5.11Z"/><path class="cls-2" d="M420.56,891.37c-88.35.87-168.46-24.13-241.91-71.58-45-29.09-49.07-62.66-11.68-101.31,31-32.07,62.3-64,94.49-94.85,12.05-11.56,12.76-18.9.54-31C183.89,515.48,106.49,437.58,28.76,360c-32.37-32.3-36.32-47.95-17.34-89.31C80.68,119.75,198,29.64,361.71,5.3,463.42-9.82,560.72,10.87,649,65.69c39.83,24.75,43.17,60,10.24,93.83C622.76,197,586,234.21,548.54,270.63c-11.94,11.61-12.7,18.76-.32,31,86.44,85.47,172.15,171.69,258.09,257.68,28.26,28.28,31.87,44.93,13.75,80C736.25,801.73,601.56,883.63,420.56,891.37Zm-.82-22.52c21.06-1.6,42.39-1.58,63.14-5.06,142.3-23.91,246.81-100.5,314.23-227.9,17.08-32.29,16-38.54-9.9-64.44Q654.55,438.7,521.89,305.93c-18.2-18.21-18.2-20.88.43-39.65q59.59-60.06,119.23-120.06c24.81-25.11,22.42-45.45-7.36-64.35-5.44-3.45-11.22-6.39-16.93-9.41C535,28.92,446.85,13.45,355.92,28.74,202.8,54.5,93.72,140.32,30.27,282.66,17.42,311.5,19.6,319.47,42,341.94q123.85,124.13,247.8,248.14c16.78,16.83,16.64,18.87.22,35.38Q236,679.81,182,734.18c-25.72,26-24,45,6.11,66.12a262,262,0,0,0,28.65,17.23C280.24,850.86,347.33,870,419.74,868.85Z"/><path class="cls-2" d="M397.85,569.39c2.35,11.78,3.81,23.86,7.26,35.34,8.07,26.87,17.57,53.32,25.39,80.26,1.76,6.08,1.66,16.36-2.07,19.74-16.85,15.25-19.57,33.14-16.8,54.35,1,7.92,4,20-6.2,25-11.87,3.64-20.67-5-24.8-11.43-27.05-42.29-43.24-88.68-39-139.47C344.45,599,366.31,575.89,397.85,569.39Z"/><path class="cls-2" d="M597.85,750.54c.14-16.46-1-31.9-16.05-45-3.45-3-4.54-11.71-3.14-16.8,10.06-36.6,21.24-72.88,31.59-109.4,2.58-9.09,6.52-11.27,15.16-7.25,25,11.65,39.73,31.55,42.5,58.32,5.21,50.32-11.39,95.8-35.1,139.12a31,31,0,0,1-9.54,10c-5.31,3.55-9.71,6.49-19,3.62-4-1.24-8.59-6.82-7.37-16C597.45,762.76,597.29,757.91,597.85,750.54Z"/><path class="cls-2" d="M603.63,477.09c-9.28-54.47-35.25-99-82.78-129.64-10.83-7-19.58-7.19-30.57-.12-44.07,28.35-69.84,69.17-80.78,119.3C393.06,542,408.43,613.2,438.22,682.92,451.5,714,466,738.2,505.5,726.12c5.87,0,11.9-.85,17.6.15,20.8,3.65,31.85-6.07,40.87-24.2C599.41,630.81,617.17,556.57,603.63,477.09ZM511.88,539a10,10,0,0,1-6,1.68,7.71,7.71,0,0,1-1.53-.36A18.09,18.09,0,0,1,487,523.06a17.83,17.83,0,0,1,17.49-18.89A18,18,0,0,1,511.88,539Zm-6.64-72.5A32,32,0,0,1,473.12,436,31.48,31.48,0,0,1,504,402.62a32.07,32.07,0,0,1,33.23,31.22C537.58,451.41,523,466.24,505.24,466.46Z"/><path class="cls-2" d="M490.49,736.59H522.8s1.17,23.79-4.41,33.19-11.13,11.45-11.13,11.45-6.49-2.05-12.95-13.51S490.49,736.59,490.49,736.59Z"/></svg>