<svg width="96" height="73" viewBox="0 0 96 73" fill="none" xmlns="http://www.w3.org/2000/svg">
<path d="M73.9034 60.0536C72.5555 61.4699 71.2799 62.3851 70.2744 63.1077C58.4328 71.5957 44.421 69.122 41.4432 68.5175C37.045 67.6263 28.5454 65.9017 22.3991 58.6807C13.1014 47.7576 14.5481 30.5504 21.7601 19.1913C23.0791 17.1127 30.0476 5.58263 44.2113 3.73281C52.7833 2.6128 62.773 4.87208 70.0092 10.9274C85.1976 23.6376 84.115 49.316 73.9034 60.0536Z" fill="#305263"/>
<path d="M77.4284 37.1853L61.8391 28.1734C60.7609 27.5317 59.3914 27.5317 58.3133 28.1734L15.3333 52.9926H12.332V55.6175V55.6758C12.3612 56.1716 12.5943 56.6674 13.0896 56.9299L30.7478 67.1376C31.9425 67.8376 33.4286 67.8376 34.6233 67.1376L79.6721 41.1226C80.1674 40.8309 80.4297 40.3643 80.4297 39.8685V37.1853H77.4284Z" fill="#87BCC8"/>
<path d="M13.1189 51.6803L58.3134 25.5486C59.3915 24.907 60.761 24.907 61.8392 25.5486L79.6722 35.8438C80.6921 36.4271 80.6921 37.9145 79.6722 38.4978L34.6526 64.5128C33.4579 65.2128 31.9718 65.2128 30.7771 64.5128L13.1189 54.3051C12.099 53.7218 12.099 52.2636 13.1189 51.6803Z" fill="white"/>
<path d="M32.8167 64.7461C32.2048 64.7461 31.5929 64.6003 31.0392 64.2794L13.5267 54.0718C13.1479 53.8384 12.9148 53.4301 12.9148 52.9927C12.9148 52.5552 13.1479 52.1469 13.5267 51.9136L58.3424 25.7819C58.8378 25.4902 59.3914 25.3444 59.945 25.3444C60.4987 25.3444 61.0523 25.4902 61.5477 25.7819L79.235 36.077C79.6138 36.3104 79.8469 36.7187 79.8469 37.1561C79.8469 37.5936 79.6138 38.0019 79.235 38.2352L34.5942 64.2794C34.0405 64.6003 33.4286 64.7461 32.8167 64.7461ZM59.945 24.7903C59.304 24.7903 58.6338 24.9652 58.051 25.2861L13.2353 51.4178L13.3228 51.5344L13.381 51.6511L13.3228 51.5344L13.2353 51.4178C12.6817 51.7386 12.332 52.3219 12.332 52.9927C12.332 53.6634 12.6817 54.2467 13.2353 54.5676L30.7478 64.7753C31.3889 65.1544 32.0882 65.3294 32.8167 65.3294C33.5452 65.3294 34.2445 65.1544 34.8856 64.7753L79.5264 38.7602C80.08 38.4394 80.4297 37.8561 80.4297 37.1853C80.4297 36.5437 80.08 35.9604 79.5264 35.6104L61.8391 25.3152C61.2563 24.9652 60.6152 24.7903 59.945 24.7903Z" fill="url(#paint0_linear)"/>
<path d="M18.2177 50.3387L54.8745 29.1359C55.5738 28.7276 56.4188 28.7276 57.089 29.1359L74.3976 39.1103C74.6307 39.2561 74.6307 39.5769 74.3976 39.7227L37.9156 61.0422C37.2163 61.4505 36.3713 61.4505 35.6719 61.0422L18.1886 50.922C17.9846 50.8054 17.9846 50.4846 18.2177 50.3387Z" fill="#085261"/>
<path opacity="0.8" d="M68.3078 35.6104L21.8604 53.051L35.7013 61.0421H35.7305C35.7305 61.0421 35.7305 61.0421 35.7596 61.0421C36.0801 61.2171 36.459 61.3046 36.8378 61.3046C37.2166 61.3046 37.6245 61.2171 37.945 61.013L74.427 39.6935C74.5435 39.6351 74.6018 39.5185 74.6018 39.4018C74.6018 39.2852 74.5435 39.1685 74.427 39.1102L68.3078 35.6104Z" fill="#06788C"/>
<path d="M80.225 24.1486L65.539 15.6325C65.2767 15.4867 64.8396 15.4867 64.5774 15.6325L19.9657 41.4142C19.82 41.5017 19.7617 41.5892 19.7617 41.7059V43.6308C19.7617 43.7183 19.82 43.8349 19.9657 43.9224L34.6808 52.4094C34.9431 52.5552 35.3802 52.5552 35.6424 52.4094L80.225 26.6568C80.3415 26.5693 80.429 26.4818 80.429 26.3943V24.4694C80.429 24.3236 80.3707 24.207 80.225 24.1486Z" fill="#0D4650"/>
<g opacity="0.8">
<path opacity="0.8" d="M64.4915 15.6326L19.9672 41.356C19.7049 41.5018 19.7049 41.7643 19.9672 41.9101L34.6532 50.3971C34.9155 50.5429 35.3525 50.5429 35.6148 50.3971L80.1391 24.6737C80.4013 24.5278 80.4013 24.2654 80.1391 24.1195L65.4531 15.6326C65.1908 15.4867 64.7537 15.4867 64.4915 15.6326Z" fill="#32B9CF"/>
</g>
<path d="M70.8134 18.6949L80.2252 24.1196C80.4875 24.2654 80.4875 24.5279 80.2252 24.6737L35.7301 50.4263C35.4678 50.5721 35.0308 50.5721 34.7685 50.4263L33.9526 49.9597C32.5248 46.0516 33.6612 43.9809 35.5844 42.8143C38.8188 40.8602 43.1605 42.056 46.7155 40.0144C50.8823 37.5938 47.4731 34.444 51.7856 31.965C55.224 29.9817 58.5167 31.4108 61.5763 29.5151C65.6849 26.9778 61.926 23.0988 66.5882 20.2698C68.016 19.3657 69.7061 18.9283 70.8134 18.6949Z" fill="#2EC6BA"/>
<path d="M54.408 26.4818L50.4743 28.7567C50.2412 28.9025 49.8332 28.9025 49.6001 28.7567C49.367 28.6109 49.367 28.4067 49.6001 28.2609L53.5339 25.986C53.767 25.8402 54.1749 25.8402 54.408 25.986C54.6703 26.1027 54.6703 26.336 54.408 26.4818Z" fill="#F4F6FA"/>
<path d="M50.2119 28.5816C50.1245 28.64 50.008 28.64 49.9205 28.5816C49.8331 28.5233 49.8331 28.465 49.9205 28.4066L53.8543 26.1318C53.9417 26.0735 54.0583 26.0735 54.1457 26.1318C54.2331 26.1901 54.2331 26.2484 54.1457 26.3068L50.2119 28.5816Z" fill="#D2D6E3"/>
<path opacity="0.25" d="M80.1391 12.2492L48.6108 30.4772C48.232 30.7105 47.5909 30.7105 47.2121 30.4772L27.7182 19.2196C27.3394 18.9863 27.3394 18.6363 27.7182 18.403L59.2465 0.174928C59.6253 -0.0583907 60.2664 -0.0583907 60.6452 0.174928L80.11 11.4326C80.5471 11.6659 80.5471 12.0159 80.1391 12.2492Z" fill="#E2E5ED"/>
<path d="M80.43 11.812C80.4008 11.6662 80.3134 11.5495 80.1386 11.4328L60.6738 0.175203C60.295 -0.0581161 59.6539 -0.0581161 59.2751 0.175203L27.7177 18.4032C27.5137 18.5199 27.4263 18.6657 27.4263 18.8115V21.0281V21.1156H27.4554C27.4845 21.2322 27.572 21.3489 27.7177 21.4364L47.1825 32.694C47.5613 32.9273 48.2023 32.9273 48.5811 32.694L80.1094 14.466C80.3134 14.3493 80.4008 14.2035 80.4008 14.0577L80.43 11.812Z" fill="#0D4650"/>
<path opacity="0.8" d="M80.1393 12.2493L48.611 30.4773C48.2321 30.7106 47.5911 30.7106 47.2123 30.4773L27.7475 19.1905C27.3687 18.9572 27.3687 18.6072 27.7475 18.3739L59.2758 0.17502C59.6546 -0.0582992 60.2957 -0.0582992 60.6745 0.17502L80.1393 11.4327C80.5472 11.6368 80.5472 12.0159 80.1393 12.2493Z" fill="#2590A2"/>
<path opacity="0.25" d="M63.5876 3.49991L78.0696 11.8702C78.2445 11.9577 78.2445 12.1327 78.0696 12.2202L48.5519 29.2816C48.3771 29.3691 48.1148 29.3691 47.94 29.2816L41.8208 25.7527C43.8897 23.4778 45.8711 22.3112 47.4155 21.6696C48.1439 21.378 49.9214 20.6197 51.0287 19.3073C51.4075 18.8406 51.6698 18.2865 51.6989 17.5574C51.8155 15.195 51.1744 14.4951 54.4671 12.6868C57.7598 10.8786 58.3426 9.74118 58.0512 6.35806C57.7598 2.97494 63.5876 3.49991 63.5876 3.49991Z" fill="#E2E5ED"/>
<path d="M78.0694 12.1911L75.3886 13.7368L75.1555 13.8826L69.386 17.2074L69.1529 17.3532L63.4416 20.6489L63.1794 20.7947L57.3807 24.1487L57.1476 24.2945L51.3781 27.6193L51.145 27.7651L48.5516 29.2525C48.3768 29.34 48.1146 29.34 47.9397 29.2525L47.2695 28.8442C47.8523 27.9401 48.5808 27.211 49.2801 26.686C49.3675 26.6277 49.4258 26.5693 49.5132 26.511C49.9503 26.1902 50.3874 25.9569 50.7662 25.7236C52.2231 24.9653 53.1556 24.6445 53.9132 24.3528C54.5834 24.0903 55.0788 23.8862 55.6324 23.3612C55.6615 23.332 55.6907 23.3029 55.749 23.2737C55.7781 23.2445 55.8072 23.2154 55.8364 23.1862C56.7105 22.3113 56.7688 21.4655 56.798 20.6489C56.8271 19.6864 56.8562 18.7823 58.1384 17.849C58.1675 17.8199 58.2258 17.7907 58.2549 17.7616C58.284 17.7324 58.3423 17.7032 58.3715 17.6741C58.7503 17.4116 59.1873 17.1783 60.1489 16.7991C62.043 16.0992 63.4999 16.1866 65.1608 15.0201C65.2482 14.9617 65.3065 14.9034 65.3939 14.8451C67.5794 13.0952 65.8893 10.6745 66.9092 9.07043C66.9674 9.0121 66.9966 8.9246 67.0549 8.86627C67.288 8.60379 67.5794 8.37047 68.0164 8.16631C68.9489 7.72884 70.0853 7.64135 70.8138 7.61218L78.0694 11.8703C78.2442 11.9577 78.2442 12.1036 78.0694 12.1911Z" fill="url(#paint1_linear)"/>
<path d="M51.3491 27.6484L51.116 27.7942L49.2802 26.7151L44.0643 23.7112C44.0061 23.682 43.9769 23.5945 44.0061 23.5362C44.0352 23.4778 44.1226 23.4487 44.1809 23.4778L49.4842 26.5402L51.2908 27.5901C51.3199 27.5901 51.3491 27.6193 51.3491 27.6484Z" fill="#F4F6FA"/>
<path d="M57.3813 24.1488L57.1482 24.2946L55.633 23.4196L50.0966 20.2115C50.0383 20.1823 50.0091 20.0948 50.0383 20.0365C50.0674 19.9782 50.1548 19.949 50.2131 19.9782L55.8369 23.2155L57.3522 24.0904C57.3522 24.1196 57.3813 24.1488 57.3813 24.1488Z" fill="#F4F6FA"/>
<path d="M69.3569 17.2365L69.1237 17.3824L65.19 15.1075L57.2933 10.5286C57.2351 10.4995 57.2059 10.412 57.2351 10.3536C57.2642 10.2953 57.3516 10.2662 57.4099 10.2953L65.394 14.9034L69.2986 17.1782C69.3277 17.2074 69.3569 17.2074 69.3569 17.2365Z" fill="#F4F6FA"/>
<path d="M75.3885 13.7652L75.1554 13.911L66.9382 9.15714L58.8959 4.49076C58.8376 4.4616 58.8085 4.3741 58.8376 4.31577C58.8667 4.25744 58.9542 4.22828 59.0124 4.25744L67.0839 8.92382L75.3302 13.7069C75.3594 13.7069 75.3885 13.736 75.3885 13.7652Z" fill="#F4F6FA"/>
<path d="M59.7992 4.87044C59.5369 5.01627 59.0999 5.01627 58.8376 4.87044L58.08 4.43297C57.8177 4.28715 57.8177 4.02466 58.08 3.87884C58.3422 3.73301 58.7793 3.73301 59.0416 3.87884L59.7992 4.31631C60.0614 4.46214 60.0614 4.72462 59.7992 4.87044Z" fill="#00FFFF"/>
<path d="M50.6788 19.8324C50.9702 20.0074 50.9702 20.2699 50.6788 20.4157C50.3874 20.5907 49.9504 20.5907 49.659 20.4157C49.3676 20.2407 49.3676 19.9782 49.659 19.8324C49.9504 19.6866 50.4166 19.6866 50.6788 19.8324Z" fill="#00FFFF"/>
<path d="M57.9049 10.1495C58.1963 10.3245 58.1963 10.587 57.9049 10.7328C57.6135 10.9078 57.1764 10.9078 56.885 10.7328C56.5937 10.5578 56.5937 10.2954 56.885 10.1495C57.1473 10.0037 57.6135 10.0037 57.9049 10.1495Z" fill="#00FFFF"/>
<path d="M44.9672 24.0904C44.7049 24.2363 44.2678 24.2363 44.0056 24.0904L43.248 23.653C42.9857 23.5071 42.9857 23.2447 43.248 23.0988C43.5102 22.953 43.9473 22.953 44.2095 23.0988L44.9672 23.5363C45.2585 23.6821 45.2585 23.9446 44.9672 24.0904Z" fill="#00FFFF"/>
<path d="M63.4119 20.6782L63.1497 20.824L58.1086 17.9075L52.1351 14.4661C52.0769 14.4369 52.0477 14.3494 52.0769 14.2911C52.106 14.2328 52.1934 14.2036 52.2517 14.2328L58.3417 17.7325L63.3245 20.6199C63.3828 20.649 63.3828 20.649 63.4119 20.6782Z" fill="#F4F6FA"/>
<path d="M52.7765 14.0867C53.0679 14.2617 53.0679 14.5242 52.7765 14.67C52.4851 14.8158 52.048 14.845 51.7566 14.67C51.4652 14.495 51.4652 14.2325 51.7566 14.0867C52.048 13.9409 52.4851 13.9117 52.7765 14.0867Z" fill="#00FFFF"/>
<path d="M72.3798 63.8707H71.4474C69.7865 61.7709 66.1441 60.2835 61.8607 60.2543C57.4898 60.2251 53.7309 61.7125 52.0408 63.8707H51.1084V66.6706C51.3706 69.9079 55.9455 72.4744 61.5984 72.5327C67.3388 72.5619 72.0593 69.9662 72.3215 66.6706H72.3507V63.8707H72.3798Z" fill="#043647"/>
<path d="M72.3799 64.2502C72.3216 67.6334 67.5137 70.3749 61.6276 70.3165C55.7415 70.2874 51.0502 67.5167 51.1084 64.1336C51.1667 60.7505 55.9746 58.009 61.8607 58.0673C67.7176 58.0965 72.4381 60.8671 72.3799 64.2502Z" fill="#25B4CB"/>
<path d="M62.4431 66.3207C61.9769 66.3207 61.5106 66.204 61.0153 65.9124L60.8113 65.7957L62.1808 65.0082L62.3265 65.0957C62.5596 65.2416 62.7636 65.2999 62.9093 65.2999C63.0841 65.2999 63.2298 65.2707 63.3755 65.1832C63.5212 65.0957 63.5795 65.0082 63.5795 64.9207C63.5504 64.8333 63.4921 64.7166 63.3464 64.6583C63.1716 64.5708 62.9967 64.5124 62.7636 64.5124C62.5596 64.5124 62.3265 64.5416 62.0934 64.5999C61.8603 64.6583 61.5981 64.7166 61.3358 64.7749C61.0736 64.8333 60.7822 64.8916 60.5199 64.9207C60.2285 64.9499 59.9371 64.9207 59.6457 64.8916C59.3544 64.8333 59.0338 64.7166 58.7424 64.5416C57.81 63.9875 57.7226 63.4042 58.5093 62.7917L58.0722 62.5292L58.7716 62.1209L59.2087 62.3834C59.7623 62.1209 60.2868 62.0043 60.7822 62.0334C61.2775 62.0626 61.7729 62.2084 62.2682 62.5292L60.9279 63.2875L60.8113 63.2292C60.6656 63.1417 60.4908 63.0834 60.3159 63.0542C60.1411 63.025 59.9663 63.0542 59.8497 63.1417C59.704 63.2292 59.6457 63.3167 59.6457 63.4042C59.6749 63.4917 59.7332 63.5792 59.8497 63.6667C60.0246 63.7833 60.2285 63.8125 60.4325 63.8125C60.6365 63.8125 60.8696 63.7833 61.1318 63.725C61.3649 63.6667 61.6272 63.6083 61.8894 63.5208C62.1517 63.4625 62.4431 63.4042 62.7345 63.375C63.0259 63.3458 63.3173 63.3458 63.6378 63.4042C63.9583 63.4625 64.2788 63.5792 64.5994 63.7542C65.0947 64.0458 65.357 64.3666 65.3278 64.6583C65.2987 64.9499 65.0656 65.2707 64.5702 65.5915L65.2404 65.9998L64.5411 66.4082L63.8709 65.9998C63.4047 66.1748 62.9093 66.2915 62.4431 66.3207Z" fill="white"/>
<path d="M94.0439 20.4563L88.6957 15.5828V14.5442L86.7401 13.8251L80.1147 28.5257L82.0704 29.2048L82.3498 29.045V36.3553V37.8333V43.2661L84.3055 43.9452V42.1077L88.9751 39.4312L91.8088 37.7934V21.7746L94.0439 20.4563Z" fill="#6F75DB"/>
<path d="M88.6961 14.5436L95.9999 21.1748L93.7649 22.4531V38.4719L90.9312 40.1497L84.3059 43.9446V38.5518V37.0737V27.9259L82.0708 29.2042L88.6961 14.5436Z" fill="#7F86FF"/>
<path d="M16.263 32.5886C20.6688 32.4028 24.0847 28.5831 23.8927 24.0571C23.7007 19.5311 19.9735 16.0128 15.5677 16.1986C11.1619 16.3844 7.74598 20.2041 7.93799 24.7301C8.13 29.2561 11.8572 32.7744 16.263 32.5886Z" fill="#37AABE"/>
<path d="M15.67 30.7017L15.6065 29.1518C14.7445 29.17 13.8372 28.9343 13.2928 28.5718L13.6104 27.5295C14.1638 27.8739 14.9532 28.1367 15.788 28.1005C16.8495 28.0552 17.5391 27.3935 17.5028 26.5234C17.4665 25.6805 16.8677 25.1821 15.7426 24.7742C14.2001 24.2213 13.2293 23.5597 13.1748 22.2274C13.1204 20.9585 13.9642 19.9525 15.3252 19.6624L15.2617 18.1126L16.1872 18.0763L16.2507 19.5627C17.149 19.5537 17.7659 19.7712 18.2105 20.0159L17.8839 21.0401C17.5663 20.8679 16.9403 20.5597 15.9876 20.596C14.8353 20.6413 14.436 21.3663 14.4633 21.9827C14.4996 22.7802 15.0621 23.1518 16.3868 23.6503C17.9474 24.2304 18.7549 24.9917 18.8184 26.3603C18.8729 27.5748 18.1017 28.7349 16.5773 29.0612L16.6409 30.6564L15.67 30.7017Z" fill="white"/>
<path d="M16.3245 11.9996C18.7897 11.9646 20.7589 9.8831 20.7229 7.35052C20.6869 4.81794 18.6593 2.79331 16.1941 2.82837C13.7289 2.86342 11.7597 4.94491 11.7957 7.47748C11.8317 10.0101 13.8593 12.0347 16.3245 11.9996Z" fill="#37AABE"/>
<path d="M16.014 10.9395L16.0049 10.0694C15.524 10.0694 15.0159 9.92437 14.7256 9.70685L14.9161 9.12679C15.2155 9.32618 15.6601 9.48932 16.1229 9.48026C16.7126 9.4712 17.1119 9.11772 17.1028 8.6283C17.0937 8.157 16.7671 7.86697 16.141 7.62226C15.2881 7.28691 14.7528 6.90624 14.7437 6.15398C14.7347 5.43797 15.2155 4.89416 15.9868 4.75821L15.9777 3.88812L16.4949 3.87906L16.504 4.71289C17.003 4.72196 17.3478 4.85791 17.5928 4.99386L17.3931 5.56486C17.2207 5.46516 16.8669 5.28389 16.3406 5.28389C15.6964 5.29295 15.4605 5.69175 15.4696 6.03616C15.4787 6.48026 15.7872 6.69779 16.5221 6.99688C17.3841 7.34129 17.8287 7.7854 17.8377 8.54673C17.8468 9.22648 17.3931 9.86999 16.5402 10.0241L16.5493 10.9123L16.014 10.9395Z" fill="white"/>
<path d="M4.15523 16.6381C6.38492 16.6064 8.16603 14.7224 8.13345 12.4301C8.10086 10.1377 6.26692 8.30511 4.03722 8.3368C1.80753 8.3685 0.0264171 10.2525 0.0590042 12.5448C0.0915912 14.8372 1.92553 16.6698 4.15523 16.6381Z" fill="#37AABE"/>
<path d="M3.87847 15.6773L3.86939 14.8979C3.43387 14.8979 2.98021 14.7619 2.70801 14.5716L2.8804 14.0459C3.1526 14.2272 3.55183 14.3722 3.9692 14.3632C4.50452 14.3541 4.86746 14.0278 4.85838 13.5928C4.84931 13.1668 4.54989 12.9039 3.98735 12.6774C3.21611 12.3783 2.73523 12.0248 2.72615 11.3541C2.71708 10.7106 3.1526 10.2121 3.85125 10.0852L3.84217 9.30575L4.31398 9.29669L4.32306 10.049C4.77672 10.058 5.08522 10.1758 5.31205 10.3027L5.13058 10.8193C4.96726 10.7287 4.65877 10.5656 4.17788 10.5656C3.59719 10.5746 3.37943 10.9372 3.38851 11.2453C3.39758 11.6532 3.67885 11.8435 4.3412 12.1154C5.12151 12.4326 5.52074 12.8314 5.52981 13.5203C5.53888 14.1366 5.13058 14.7166 4.35935 14.8526L4.36842 15.6592L3.87847 15.6773Z" fill="white"/>
<defs>
<linearGradient id="paint0_linear" x1="80.856" y1="36.7576" x2="-9.36412" y2="58.4995" gradientUnits="userSpaceOnUse">
<stop stop-color="#C7D3E5"/>
<stop offset="0.3307" stop-color="#DCE7F1"/>
<stop offset="0.7277" stop-color="#F0F9FB"/>
<stop offset="1" stop-color="#F7FFFF"/>
</linearGradient>
<linearGradient id="paint1_linear" x1="62.7225" y1="6.11909" x2="62.7225" y2="35.0108" gradientUnits="userSpaceOnUse">
<stop stop-color="#2EC6BA"/>
<stop offset="0.4238" stop-color="#25B6B2"/>
<stop offset="1" stop-color="#1499A3"/>
</linearGradient>
</defs>
</svg>
