<svg width="118" height="93" viewBox="0 0 118 93" fill="none" xmlns="http://www.w3.org/2000/svg">
<path d="M77.7727 64.7055C76.27 66.2804 74.8479 67.2982 73.7269 68.1017C60.5251 77.5404 44.9039 74.7897 41.584 74.1174C36.6807 73.1264 27.2047 71.2087 20.3525 63.1788C9.98673 51.0322 11.5997 31.8976 19.6401 19.2662C21.1106 16.9548 28.8795 4.13321 44.6701 2.07619C54.2266 0.830728 65.3639 3.34308 73.4312 10.0766C90.3643 24.2106 89.1573 52.7651 77.7727 64.7055Z" fill="#305263"/>
<path d="M34.352 42.228L73.0454 54.7919L68.1607 69.7095L29.4673 57.1457L34.352 42.228Z" fill="#016A7B"/>
<path d="M68.5186 70.4092L73.7483 54.4335L33.9899 41.5248L28.7539 57.5015L68.5186 70.4092ZM72.3404 55.1469L67.8036 69.0068L30.1742 56.7861L34.7111 42.9262L72.3404 55.1469Z" fill="#42CAE0"/>
<path d="M49.0621 61.8871C45.6701 60.7857 43.8177 57.1521 44.9248 53.7712C46.0318 50.3904 49.679 48.5425 53.0711 49.6439C56.4631 50.7453 58.3155 54.3789 57.2084 57.7597C56.1014 61.1406 52.4542 62.9885 49.0621 61.8871Z" fill="#1A2F38"/>
<path d="M49.059 61.5879L49.5832 60.0546C48.7075 59.7406 47.8863 59.1579 47.4812 58.6012L48.1915 57.7042C48.6145 58.2524 49.3077 58.8105 50.1617 59.1019C51.2448 59.4599 52.188 59.0852 52.4811 58.2153C52.7645 57.3805 52.3496 56.66 51.374 55.8264C50.0279 54.689 49.3088 53.6704 49.7577 52.348C50.1874 51.0871 51.4114 50.4349 52.8913 50.6815L53.4155 49.1482L54.3575 49.468L53.8567 50.9442C54.7584 51.2853 55.2987 51.7385 55.6537 52.1437L54.9305 53.0183C54.6751 52.7256 54.1633 52.1845 53.186 51.8552C52.015 51.46 51.3341 52.0081 51.1264 52.6144C50.8572 53.4008 51.2838 53.9888 52.4245 54.985C53.7744 56.1534 54.2975 57.2123 53.8348 58.5654C53.424 59.7648 52.2094 60.6073 50.5482 60.335L50.0097 61.9166L49.059 61.5879Z" fill="#44A0AC"/>
<path d="M41.4349 54.3653C40.6578 54.113 40.2335 53.2806 40.4872 52.506C40.7409 51.7314 41.5765 51.308 42.3536 51.5602C43.1308 51.8125 43.5551 52.645 43.3014 53.4196C43.0477 54.1942 42.2121 54.6176 41.4349 54.3653Z" fill="#1A2F38"/>
<path d="M60.1293 60.439C59.3521 60.187 58.9279 59.3548 59.1818 58.5803C59.4357 57.8057 60.2716 57.3822 61.0488 57.6342C61.826 57.8863 62.2502 58.7185 61.9963 59.493C61.7424 60.2675 60.9065 60.6911 60.1293 60.439Z" fill="#36B9B1"/>
<path d="M47.9052 18.6444L71.6426 51.9319L58.717 61.0904L34.9797 27.8029L47.9052 18.6444Z" fill="#016A7B"/>
<path d="M58.5819 61.8745L72.4289 52.0654L48.0372 17.8624L34.1902 27.6715L58.5819 61.8745ZM70.8555 51.7978L58.8458 60.3074L35.7572 27.9344L47.7668 19.4249L70.8555 51.7978Z" fill="#40C7DF"/>
<path d="M47.9707 43.3521C45.8873 40.4326 46.5755 36.3827 49.5079 34.3065C52.4403 32.2302 56.5065 32.9138 58.5899 35.8333C60.6733 38.7529 59.9851 42.8027 57.0527 44.879C54.1203 46.9552 50.0541 46.2716 47.9707 43.3521Z" fill="#1A2F38"/>
<path d="M48.8618 44.0991L50.195 43.1544C50.7515 43.9067 51.5534 44.5279 52.2104 44.7538L52.8733 43.812C52.2182 43.5631 51.4806 43.0559 50.9555 42.3211C50.2897 41.3886 50.3829 40.3706 51.1363 39.8387C51.8639 39.3223 52.6805 39.5163 53.7672 40.2095C55.2518 41.1771 56.4543 41.5737 57.5992 40.762C58.6989 39.9861 58.9735 38.6211 58.3122 37.2687L59.6455 36.324L59.0615 35.5083L57.779 36.4163C57.1913 35.6465 56.5927 35.258 56.0952 35.0341L55.4562 35.9833C55.8128 36.1455 56.488 36.4817 57.0876 37.3232C57.8122 38.3366 57.4751 39.1512 56.9451 39.5217C56.2581 40.0087 55.5698 39.7653 54.2768 38.9588C52.7535 37.9976 51.5782 37.8004 50.4028 38.6341C49.3595 39.3724 48.9004 40.7905 49.6397 42.3056L48.2658 43.2797L48.8618 44.0991Z" fill="#44A0AC"/>
<path d="M46.3354 32.7072C45.8601 32.0407 46.0172 31.1161 46.6863 30.6421C47.3554 30.168 48.2831 30.3241 48.7585 30.9906C49.2338 31.6571 49.0767 32.5816 48.4076 33.0557C47.7385 33.5297 46.8108 33.3737 46.3354 32.7072Z" fill="#1A2F38"/>
<path d="M57.8087 48.7857C57.3334 48.1192 57.4905 47.1945 58.1596 46.7204C58.8287 46.2464 59.7564 46.4024 60.2317 47.0689C60.707 47.7354 60.5499 48.6601 59.8808 49.1341C59.2117 49.6082 58.284 49.4522 57.8087 48.7857Z" fill="#1A2F38"/>
<path d="M33.2435 71.5165C33.2435 72.9085 25.8041 74.0362 16.6261 74.0362C7.4394 74.0362 0 72.9085 0 71.5165L3.88296 64.4684H29.3517L33.2435 71.5165Z" fill="#298C9C"/>
<path d="M29.351 64.4681C29.351 65.5341 23.6501 66.3975 16.6167 66.3975C9.58322 66.3975 3.88232 65.5341 3.88232 64.4681C3.88232 63.402 9.58322 62.5386 16.6167 62.5386C23.6501 62.5386 29.351 63.402 29.351 64.4681Z" fill="url(#paint0_linear)"/>
<path d="M21.7179 36.5489L14.8168 29.6594L4.02395 40.443L4.03278 40.4518C4.01513 40.4606 3.99748 40.4694 3.97983 40.4782C3.57388 40.8835 4.78289 42.7601 6.68908 44.6631C8.59526 46.5661 10.475 47.7731 10.8809 47.3678C10.8986 47.359 10.8986 47.3325 10.9074 47.3149L10.9162 47.3237L21.7179 36.5489Z" fill="#075A66"/>
<path d="M19.7682 64.2301H13.4761L14.8528 39.8083H18.3916L19.7682 64.2301Z" fill="url(#paint1_linear)"/>
<path d="M16.6167 64.23H19.7667L18.3902 39.8082H16.6167V64.23Z" fill="#E4E8F1" fill-opacity="0.15"/>
<path d="M24.878 31.7029C25.884 35.5706 23.5543 39.5175 19.6801 40.5131C15.806 41.5174 11.8524 39.1915 10.8552 35.3239C9.84916 31.4562 12.1789 27.5093 16.0531 26.5137C19.9184 25.5094 23.872 27.8352 24.878 31.7029Z" fill="#127D85"/>
<path d="M47.5661 42.7339L27.3835 22.9375L8.30408 2.07501C8.30408 2.07501 -5.33924 10.7618 16.4054 33.5008C38.3706 56.0196 47.5661 42.7339 47.5661 42.7339Z" fill="#D5F6FF"/>
<path d="M18.5145 31.5534C2.68261 14.9903 5.61248 5.88056 8.3835 2.15387L8.30408 2.06577C8.30408 2.06577 -5.33924 10.7526 16.4054 33.4916C37.7793 55.4113 47.0543 43.4206 47.5397 42.7599C43.692 45.3765 34.4788 47.9226 18.5145 31.5534Z" fill="url(#paint2_linear)"/>
<path d="M47.558 42.7332C46.1901 44.0459 40.348 40.3544 33.0851 33.9142C32.8292 33.6851 32.5644 33.4561 32.2997 33.2094C29.8199 30.9716 27.1901 28.4343 24.5249 25.6767C21.701 22.7517 19.1153 19.8708 16.8826 17.1749C16.6619 16.9106 16.4501 16.6551 16.2383 16.3996C10.2815 9.12241 6.96335 3.36937 8.30473 2.07428C9.87557 0.567742 17.315 5.64239 26.0428 13.8887C26.2987 14.1354 26.5635 14.3821 26.8194 14.6288C28.302 16.0472 29.8111 17.5537 31.3289 19.1307C32.4762 20.3113 33.5793 21.4919 34.6295 22.6548C34.8854 22.9367 35.1325 23.2098 35.3884 23.4918C43.9221 32.9715 49.1994 41.165 47.558 42.7332Z" fill="#32B9CF"/>
<path d="M37.603 13.9065C38.992 13.9065 40.1181 12.7823 40.1181 11.3956C40.1181 10.0088 38.992 8.88467 37.603 8.88467C36.2139 8.88467 35.0879 10.0088 35.0879 11.3956C35.0879 12.7823 36.2139 13.9065 37.603 13.9065Z" fill="#7F86FF"/>
<path d="M38.2118 10.7614L35.3967 23.4832L33.0845 33.9145C32.8286 33.6854 32.5639 33.4564 32.2991 33.2097L34.6377 22.6463L36.994 12.0124L26.8277 14.629L16.8908 17.1752C16.6702 16.9109 16.4584 16.6554 16.2466 16.3999L26.0511 13.8802L38.2118 10.7614Z" fill="#7F86FF"/>
<path d="M49.2772 10.9643C49.1537 8.7177 48.4036 6.55921 46.9828 4.73551C45.5619 2.9118 43.6469 1.66957 41.4937 1" stroke="#7F86FF" stroke-width="1.28686" stroke-miterlimit="10" stroke-linecap="round"/>
<path d="M46.4098 11.5194C46.3127 9.7397 45.7214 8.03934 44.6006 6.60329C43.4799 5.16723 41.962 4.1805 40.2588 3.65189" stroke="#7F86FF" stroke-width="1.28686" stroke-miterlimit="10" stroke-linecap="round"/>
<path d="M43.594 11.7044C43.5234 10.4886 43.1264 9.32565 42.3587 8.34773C41.5911 7.36099 40.5587 6.69142 39.394 6.3302" stroke="#7F86FF" stroke-width="1.28686" stroke-miterlimit="10" stroke-linecap="round"/>
<path d="M73.4972 12.5298C71.5385 13.1796 69.8085 14.3608 68.5363 16.0531C67.264 17.7454 66.6253 19.7338 66.5508 21.7944" stroke="#7F86FF" stroke-width="1.28686" stroke-miterlimit="10" stroke-linecap="round"/>
<path d="M74.6782 14.9265C73.1264 15.4404 71.7637 16.3713 70.7623 17.7056C69.761 19.0399 69.2529 20.6164 69.1948 22.2462" stroke="#7F86FF" stroke-width="1.28686" stroke-miterlimit="10" stroke-linecap="round"/>
<path d="M75.5195 17.3657C74.4605 17.7206 73.5269 18.3507 72.8463 19.2633C72.1578 20.178 71.8137 21.2499 71.7744 22.3644" stroke="#7F86FF" stroke-width="1.28686" stroke-miterlimit="10" stroke-linecap="round"/>
<g filter="url(#filter0_d)">
<path d="M83.396 52.9232L84.7677 68.6716H78.915L80.2868 52.9232H83.396Z" fill="url(#paint3_linear)"/>
<path d="M92.2188 39.0363L91.2441 39.4303L94.6418 47.8077L95.6164 47.4137L92.2188 39.0363Z" fill="#42E8E0"/>
<path d="M73.5197 38.4075C75.3379 38.4075 76.8118 36.936 76.8118 35.1208C76.8118 33.3057 75.3379 31.8342 73.5197 31.8342C71.7015 31.8342 70.2275 33.3057 70.2275 35.1208C70.2275 36.936 71.7015 38.4075 73.5197 38.4075Z" fill="url(#paint4_linear)"/>
<path d="M90.5285 40.0047C90.5285 46.3954 86.7334 51.5993 82.0238 51.5993C77.3142 51.5993 73.519 46.3954 73.519 40.0047C73.519 33.614 77.3142 31.6968 82.0238 31.6968C86.7334 31.6968 90.5285 33.614 90.5285 40.0047Z" fill="url(#paint5_linear)"/>
<path d="M86.1394 37.4943C83.8531 38.8181 80.1952 38.8181 77.909 37.4943C75.6228 36.1705 75.6228 34.0707 77.909 32.7469C80.1952 31.4231 83.8531 31.4231 86.1394 32.7469C88.4256 34.0707 88.4256 36.2162 86.1394 37.4943Z" fill="url(#paint6_linear)"/>
<path d="M77.9094 33.6599C80.1956 32.3361 83.8535 32.3361 86.1398 33.6599C87.1 34.2077 87.6487 34.8924 87.7858 35.5771C88.0145 34.5728 87.4658 33.5229 86.1398 32.7469C83.8535 31.4231 80.1956 31.4231 77.9094 32.7469C76.5834 33.5229 76.0347 34.5728 76.2633 35.5771C76.4462 34.8924 76.9949 34.2077 77.9094 33.6599Z" fill="#1E6672"/>
<path d="M91.7184 42.5154C93.5366 42.5154 95.0106 41.0439 95.0106 39.2287C95.0106 37.4136 93.5366 35.9421 91.7184 35.9421C89.9002 35.9421 88.4263 37.4136 88.4263 39.2287C88.4263 41.0439 89.9002 42.5154 91.7184 42.5154Z" fill="url(#paint7_linear)"/>
<path d="M91.8097 42.5611C93.6279 42.5611 95.1019 41.0896 95.1019 39.2745C95.1019 37.4593 93.6279 35.9878 91.8097 35.9878C89.9915 35.9878 88.5176 37.4593 88.5176 39.2745C88.5176 41.0896 89.9915 42.5611 91.8097 42.5611Z" fill="url(#paint8_linear)"/>
<path d="M96.9757 50.1387C96.7928 51.6907 95.4213 54.6579 94.1413 54.5209C92.9069 54.384 92.2669 51.143 92.4497 49.5909C92.6326 48.0389 93.8212 46.8977 95.0556 47.0347C96.29 47.1716 97.1586 48.5867 96.9757 50.1387Z" fill="url(#paint9_radial)"/>
<path d="M96.9757 50.1387C96.7928 51.6907 95.4213 54.6579 94.1413 54.5209C92.9069 54.384 92.2669 51.143 92.4497 49.5909C92.6326 48.0389 93.8212 46.8977 95.0556 47.0347C96.29 47.1716 97.1586 48.5867 96.9757 50.1387Z" fill="url(#paint10_linear)"/>
<path d="M84.4935 52.9233H79.3267L79.7382 51.1887H84.0363L84.4935 52.9233Z" fill="#23ABD8"/>
<path opacity="0.47" d="M84.0364 51.1887H82.7563L82.9849 52.9233H84.4936L84.0364 51.1887Z" fill="#96CCCA"/>
<path opacity="0.47" d="M79.7381 51.1887H81.0182L80.8353 52.9233H79.3267L79.7381 51.1887Z" fill="#96CCCA"/>
<path d="M65.2524 41.2181C64.9493 41.2652 64.7297 41.0514 64.6686 40.7923C64.6372 40.5906 64.7364 40.4306 64.8653 40.3279L70.8576 36.1535C71.1015 35.9917 71.4203 36.0454 71.5388 36.2749C71.7009 36.5183 71.647 36.8366 71.4171 36.955L65.4387 41.0859C65.4109 41.1729 65.3098 41.1885 65.2524 41.2181Z" fill="#74FEF7"/>
<path d="M65.5788 43.0476C64.3894 43.9141 61.3938 44.8752 60.7018 43.8876C60.0098 42.9001 61.8151 40.409 63.0479 39.5564C64.2373 38.6899 65.7998 38.7572 66.5057 39.7012C67.1977 40.6888 66.8117 42.195 65.5788 43.0476Z" fill="url(#paint11_radial)"/>
<g filter="url(#filter1_d)">
<path d="M65.5788 43.0476C64.3894 43.9141 61.3938 44.8752 60.7018 43.8876C60.0098 42.9001 61.8151 40.409 63.0479 39.5564C64.2373 38.6899 65.7998 38.7572 66.5057 39.7012C67.1977 40.6888 66.8117 42.195 65.5788 43.0476Z" fill="url(#paint12_linear)"/>
</g>
<path d="M79.6919 22.1107C79.6919 23.5714 78.6404 25.3973 77.3604 26.1277C76.0803 26.858 75.0288 26.2646 75.0288 24.8039C75.0288 23.3432 76.0803 21.5173 77.3604 20.7869C78.6404 20.0109 79.6919 20.6043 79.6919 22.1107Z" fill="#BCBEFF"/>
<path d="M81.0639 24.1193C80.9724 24.6214 81.0639 25.3518 82.1155 25.8539C84.1731 26.9038 85.8192 25.3062 86.8708 26.0365C87.6482 26.5843 87.2824 28.2733 85.3619 28.9123C83.3501 29.5971 80.8352 29.1406 80.6523 27.1321C80.6523 26.3561 80.6981 25.5801 80.8352 24.8497C80.881 24.6214 80.9724 24.3476 81.0639 24.1193Z" fill="#19212C"/>
<path d="M81.9791 17.9111C78.3211 17.9111 75.1204 20.2848 74.0688 23.754C74.3888 23.8453 74.4803 24.1192 74.4803 24.4387C74.3888 25.1691 74.206 25.8538 74.206 26.5842C74.206 26.8581 74.0231 27.0863 73.7944 27.132C74.3431 31.6511 78.4583 34.8464 82.985 34.2987C87.5117 33.7509 90.7124 29.6426 90.1637 25.1235C89.6607 21.0152 86.14 17.9111 81.9791 17.9111Z" fill="url(#paint13_linear)"/>
<path d="M81.9788 18.1398C78.3665 18.1398 75.2116 20.4678 74.1142 23.9371C74.3885 23.9827 74.5714 24.3023 74.5257 24.5761C74.5257 24.5761 74.5257 24.5761 74.5257 24.6218C74.3428 25.3978 74.0685 26.3108 74.2971 27.1324C74.3885 27.4976 74.1599 27.7715 73.8398 27.8171C74.6172 32.2906 78.8695 35.3034 83.3505 34.5274C87.8315 33.7513 90.8493 29.5061 90.072 25.0326C89.4318 21.0156 86.0025 18.1398 81.9788 18.1398Z" fill="url(#paint14_linear)"/>
<path d="M84.3561 27.0407C84.3561 26.9951 84.3561 26.9494 84.3561 26.9038L84.3104 26.7668C84.3104 26.6755 84.2647 26.5842 84.2189 26.5386C84.1275 27.2689 83.716 28.045 82.9844 28.684C81.064 30.3273 77.7261 30.6925 75.5313 29.5513C74.7083 29.1405 74.1596 28.5471 73.8853 27.908C73.931 28.1819 73.9767 28.4558 74.0682 28.7297C74.1596 29.0036 74.2968 29.2774 74.4339 29.5057C74.4797 29.5513 74.5254 29.6426 74.5711 29.6883C74.8912 30.0078 75.257 30.2817 75.6685 30.4643C77.909 31.6055 81.2469 31.1946 83.1216 29.597C83.9903 28.7753 84.4018 27.8624 84.3561 27.0407Z" fill="#1E6672"/>
<path d="M83.6707 25.6714C82.0246 24.4845 79.3726 27.0408 76.0805 25.3518C74.663 24.6215 74.3887 23.6629 74.3887 22.8868C74.2515 23.252 74.1143 23.6172 74.0229 23.9824C73.84 25.0779 73.7485 26.2191 73.7485 27.3603C73.9772 30.5557 78.0466 31.3317 81.293 30.2361C84.3566 29.2319 84.951 26.5843 83.6707 25.6714Z" fill="url(#paint15_linear)"/>
<path d="M75.0294 27.6345C75.0751 27.6345 75.1208 27.5888 75.1208 27.5431C75.1208 27.4517 75.0751 27.3145 74.9379 27.2688H74.8922C74.8465 27.2688 74.8008 27.3145 74.8008 27.3602C74.8008 27.4517 74.8465 27.5888 74.9836 27.6345H75.0294Z" fill="url(#paint16_radial)"/>
<path d="M75.4399 28.3644C75.2113 28.4557 74.8456 28.1818 74.5713 27.6797C74.297 27.1776 74.2513 26.6754 74.4799 26.5385C74.7084 26.4472 75.0742 26.7211 75.3485 27.2232C75.6228 27.7253 75.6685 28.2275 75.4399 28.3644Z" fill="#00FF3C"/>
<path d="M75.0294 27.6345C75.0751 27.6345 75.1208 27.5888 75.1208 27.5431C75.1208 27.4517 75.0751 27.3145 74.9379 27.2688H74.8922C74.8465 27.2688 74.8008 27.3145 74.8008 27.3602C74.8008 27.4517 74.8465 27.5888 74.9836 27.6345H75.0294Z" fill="url(#paint17_radial)"/>
<path d="M75.0294 27.0869C75.0751 27.0869 75.1208 27.0411 75.1208 26.9954C75.1208 26.904 75.0751 26.7668 74.9379 26.7211H74.8922C74.8465 26.7211 74.8008 26.7668 74.8008 26.8126C74.8008 26.904 74.8465 27.0411 74.9836 27.0869C74.9836 27.0411 75.0294 27.0411 75.0294 27.0869Z" fill="url(#paint18_radial)"/>
<path d="M75.4376 27.7904C75.6592 27.6697 75.614 27.1589 75.3367 26.6495C75.0593 26.1401 74.6547 25.825 74.4331 25.9457C74.2114 26.0664 74.2566 26.5772 74.534 27.0866C74.8114 27.596 75.2159 27.9111 75.4376 27.7904Z" fill="#00FF3C"/>
<path d="M75.0294 27.0869C75.0751 27.0869 75.1208 27.0411 75.1208 26.9954C75.1208 26.904 75.0751 26.7668 74.9379 26.7211H74.8922C74.8465 26.7211 74.8008 26.7668 74.8008 26.8126C74.8008 26.904 74.8465 27.0411 74.9836 27.0869C74.9836 27.0411 75.0294 27.0411 75.0294 27.0869Z" fill="url(#paint19_radial)"/>
<path d="M75.0294 26.4477C75.0751 26.4477 75.1208 26.402 75.1208 26.3563C75.1208 26.2649 75.0751 26.1277 74.9379 26.082H74.8922C74.8465 26.082 74.8008 26.1277 74.8008 26.1734C74.8008 26.2649 74.8465 26.402 74.9836 26.4477C74.9836 26.4477 74.9836 26.4477 75.0294 26.4477Z" fill="url(#paint20_radial)"/>
<path d="M75.4399 27.1776C75.2113 27.2689 74.8456 26.995 74.5713 26.4929C74.297 25.9908 74.2513 25.4887 74.4799 25.3517C74.7084 25.2604 75.0742 25.5343 75.3485 26.0364C75.6228 26.5842 75.6685 27.0863 75.4399 27.1776Z" fill="#00FF3C"/>
<path d="M75.0294 26.4477C75.0751 26.4477 75.1208 26.402 75.1208 26.3563C75.1208 26.2649 75.0751 26.1277 74.9379 26.082H74.8922C74.8465 26.082 74.8008 26.1277 74.8008 26.1734C74.8008 26.2649 74.8465 26.402 74.9836 26.4477C74.9836 26.4477 74.9836 26.4477 75.0294 26.4477Z" fill="url(#paint21_radial)"/>
<path d="M75.4399 28.3644C75.2113 28.4557 74.8456 28.1818 74.5713 27.6797C74.297 27.1776 74.2513 26.6754 74.4799 26.5385C74.7084 26.4472 75.0742 26.7211 75.3485 27.2232C75.6228 27.7253 75.6685 28.2275 75.4399 28.3644Z" fill="#42E8E0"/>
<path d="M75.4376 27.7904C75.6592 27.6697 75.614 27.1589 75.3367 26.6495C75.0593 26.1401 74.6547 25.825 74.4331 25.9457C74.2114 26.0664 74.2566 26.5772 74.534 27.0866C74.8114 27.596 75.2159 27.9111 75.4376 27.7904Z" fill="#42E8E0"/>
<path d="M75.4399 27.1776C75.2113 27.2689 74.8456 26.995 74.5713 26.4929C74.297 25.9908 74.2513 25.4887 74.4799 25.3517C74.7084 25.2604 75.0742 25.5343 75.3485 26.0364C75.6228 26.5842 75.6685 27.0863 75.4399 27.1776Z" fill="#42E8E0"/>
<path d="M77.8179 29.0041C77.8637 29.0041 77.9094 28.9584 77.9094 28.9126C77.9094 28.8212 77.8637 28.6841 77.7265 28.6383H77.6808C77.6351 28.6383 77.5894 28.6841 77.5894 28.7298C77.5894 28.8212 77.6351 28.9584 77.7722 29.0041C77.7722 28.9584 77.8179 29.0041 77.8179 29.0041Z" fill="url(#paint22_radial)"/>
<path d="M78.2749 29.6884C78.0463 29.7797 77.6805 29.5058 77.4062 29.0037C77.1319 28.5016 77.0862 27.9994 77.3148 27.8625C77.5434 27.7712 77.9091 28.0451 78.1834 28.5472C78.4577 29.0493 78.4577 29.5971 78.2749 29.6884Z" fill="#00FF3C"/>
<path d="M77.8179 29.0041C77.8637 29.0041 77.9094 28.9584 77.9094 28.9126C77.9094 28.8212 77.8637 28.6841 77.7265 28.6383H77.6808C77.6351 28.6383 77.5894 28.6841 77.5894 28.7298C77.5894 28.8212 77.6351 28.9584 77.7722 29.0041C77.7722 28.9584 77.8179 29.0041 77.8179 29.0041Z" fill="url(#paint23_radial)"/>
<path d="M77.8179 28.4106C77.8637 28.4106 77.9094 28.3649 77.9094 28.3192C77.9094 28.2278 77.8637 28.0906 77.7265 28.0449H77.6808C77.6351 28.0449 77.5894 28.0906 77.5894 28.1363C77.5894 28.2278 77.6351 28.3649 77.7722 28.4106H77.8179Z" fill="url(#paint24_radial)"/>
<path d="M78.2798 29.1431C78.5015 29.0224 78.4563 28.5116 78.179 28.0022C77.9016 27.4928 77.497 27.1777 77.2754 27.2984C77.0537 27.4191 77.0989 27.9299 77.3763 28.4393C77.6536 28.9487 78.0582 29.2638 78.2798 29.1431Z" fill="#00FF3C"/>
<path d="M77.8179 28.4106C77.8637 28.4106 77.9094 28.3649 77.9094 28.3192C77.9094 28.2278 77.8637 28.0906 77.7265 28.0449H77.6808C77.6351 28.0449 77.5894 28.0906 77.5894 28.1363C77.5894 28.2278 77.6351 28.3649 77.7722 28.4106H77.8179Z" fill="url(#paint25_radial)"/>
<path d="M77.8179 27.8172C77.8637 27.8172 77.9094 27.7715 77.9094 27.7258C77.9094 27.6344 77.8637 27.4972 77.7265 27.4515H77.6808C77.6351 27.4515 77.5894 27.4972 77.5894 27.5429C77.5894 27.6344 77.6351 27.7715 77.7722 27.8172H77.8179Z" fill="url(#paint26_radial)"/>
<path d="M78.2749 28.547C78.0463 28.6383 77.6805 28.3644 77.4062 27.8623C77.1319 27.3602 77.0862 26.858 77.3148 26.7211C77.5434 26.5842 77.9091 26.9037 78.1834 27.4058C78.412 27.9079 78.4577 28.4101 78.2749 28.547Z" fill="#00FF3C"/>
<path d="M77.8179 27.8172C77.8637 27.8172 77.9094 27.7715 77.9094 27.7258C77.9094 27.6344 77.8637 27.4972 77.7265 27.4515H77.6808C77.6351 27.4515 77.5894 27.4972 77.5894 27.5429C77.5894 27.6344 77.6351 27.7715 77.7722 27.8172H77.8179Z" fill="url(#paint27_radial)"/>
<path d="M78.2749 29.6884C78.0463 29.7797 77.6805 29.5058 77.4062 29.0037C77.1319 28.5016 77.0862 27.9994 77.3148 27.8625C77.5434 27.7712 77.9091 28.0451 78.1834 28.5472C78.4577 29.0493 78.4577 29.5971 78.2749 29.6884Z" fill="#42E8E0"/>
<path d="M78.2798 29.1431C78.5015 29.0224 78.4563 28.5116 78.179 28.0022C77.9016 27.4928 77.497 27.1777 77.2754 27.2984C77.0537 27.4191 77.0989 27.9299 77.3763 28.4393C77.6536 28.9487 78.0582 29.2638 78.2798 29.1431Z" fill="#42E8E0"/>
<path d="M78.2749 28.547C78.0463 28.6383 77.6805 28.3644 77.4062 27.8623C77.1319 27.3602 77.0862 26.858 77.3148 26.7211C77.5434 26.5842 77.9091 26.9037 78.1834 27.4058C78.412 27.9079 78.4577 28.4101 78.2749 28.547Z" fill="#42E8E0"/>
</g>
<defs>
<filter id="filter0_d" x="39.8714" y="0.415203" width="77.8056" height="92.1145" filterUnits="userSpaceOnUse" color-interpolation-filters="sRGB">
<feFlood flood-opacity="0" result="BackgroundImageFix"/>
<feColorMatrix in="SourceAlpha" type="matrix" values="0 0 0 0 0 0 0 0 0 0 0 0 0 0 0 0 0 0 127 0"/>
<feOffset dy="3.18107"/>
<feGaussianBlur stdDeviation="10.3385"/>
<feColorMatrix type="matrix" values="0 0 0 0 0.124514 0 0 0 0 0.679167 0 0 0 0 0.652436 0 0 0 0.16 0"/>
<feBlend mode="normal" in2="BackgroundImageFix" result="effect1_dropShadow"/>
<feBlend mode="normal" in="SourceGraphic" in2="effect1_dropShadow" result="shape"/>
</filter>
<filter id="filter1_d" x="57.3673" y="35.7665" width="12.6605" height="11.7201" filterUnits="userSpaceOnUse" color-interpolation-filters="sRGB">
<feFlood flood-opacity="0" result="BackgroundImageFix"/>
<feColorMatrix in="SourceAlpha" type="matrix" values="0 0 0 0 0 0 0 0 0 0 0 0 0 0 0 0 0 0 127 0"/>
<feOffset/>
<feGaussianBlur stdDeviation="1.59054"/>
<feColorMatrix type="matrix" values="0 0 0 0 0 0 0 0 0 0 0 0 0 0 0 0 0 0 0.1 0"/>
<feBlend mode="normal" in2="BackgroundImageFix" result="effect1_dropShadow"/>
<feBlend mode="normal" in="SourceGraphic" in2="effect1_dropShadow" result="shape"/>
</filter>
<linearGradient id="paint0_linear" x1="16.6167" y1="62.5386" x2="16.6167" y2="66.3975" gradientUnits="userSpaceOnUse">
<stop stop-color="#016A7B"/>
<stop offset="1" stop-color="#075A66"/>
</linearGradient>
<linearGradient id="paint1_linear" x1="16.6222" y1="39.8083" x2="16.6222" y2="64.2301" gradientUnits="userSpaceOnUse">
<stop stop-color="#127D85"/>
<stop offset="1" stop-color="#A5D3DF"/>
</linearGradient>
<linearGradient id="paint2_linear" x1="25.8091" y1="2.06577" x2="25.8091" y2="46.623" gradientUnits="userSpaceOnUse">
<stop stop-color="#20858E"/>
<stop offset="1" stop-color="#A8D3DE"/>
</linearGradient>
<linearGradient id="paint3_linear" x1="81.8372" y1="52.9294" x2="81.8372" y2="68.6636" gradientUnits="userSpaceOnUse">
<stop stop-color="white"/>
<stop offset="1" stop-color="#C9C9C9" stop-opacity="0"/>
</linearGradient>
<linearGradient id="paint4_linear" x1="70.2571" y1="34.4963" x2="76.7309" y2="35.78" gradientUnits="userSpaceOnUse">
<stop stop-color="#F7F7F7"/>
<stop offset="0.55" stop-color="#F2F2F9"/>
<stop offset="1" stop-color="#E9E9FD"/>
</linearGradient>
<linearGradient id="paint5_linear" x1="73.5055" y1="41.6412" x2="90.5458" y2="41.6412" gradientUnits="userSpaceOnUse">
<stop stop-color="#F7F7F7"/>
<stop offset="0.55" stop-color="#F2F2F9"/>
<stop offset="1" stop-color="#E9E9FD"/>
</linearGradient>
<linearGradient id="paint6_linear" x1="76.2154" y1="35.1361" x2="87.8433" y2="35.1361" gradientUnits="userSpaceOnUse">
<stop stop-color="#42E8E0"/>
<stop offset="0.18" stop-color="#41E3DD"/>
<stop offset="0.38" stop-color="#3CD5D3"/>
<stop offset="0.61" stop-color="#35BDC3"/>
<stop offset="0.84" stop-color="#2C9CAD"/>
<stop offset="1" stop-color="#24819B"/>
</linearGradient>
<linearGradient id="paint7_linear" x1="88.4738" y1="38.6026" x2="94.9476" y2="39.8863" gradientUnits="userSpaceOnUse">
<stop stop-color="#F7F7F7"/>
<stop offset="0.55" stop-color="#F2F2F9"/>
<stop offset="1" stop-color="#E9E9FD"/>
</linearGradient>
<linearGradient id="paint8_linear" x1="89.142" y1="41.1991" x2="94.4756" y2="37.3175" gradientUnits="userSpaceOnUse">
<stop stop-color="#F7F7F7"/>
<stop offset="0.55" stop-color="#F2F2F9"/>
<stop offset="1" stop-color="#E9E9FD"/>
</linearGradient>
<radialGradient id="paint9_radial" cx="0" cy="0" r="1" gradientUnits="userSpaceOnUse" gradientTransform="translate(94.7327 51.0075) rotate(6.88212) scale(2.28587 3.76201)">
<stop stop-color="#2BB675"/>
<stop offset="1" stop-color="#14444F"/>
</radialGradient>
<linearGradient id="paint10_linear" x1="92.0846" y1="50.4884" x2="96.6156" y2="51.0456" gradientUnits="userSpaceOnUse">
<stop stop-color="#F7F7F7"/>
<stop offset="0.55" stop-color="#F2F2F9"/>
<stop offset="1" stop-color="#E9E9FD"/>
</linearGradient>
<radialGradient id="paint11_radial" cx="0" cy="0" r="1" gradientUnits="userSpaceOnUse" gradientTransform="translate(69.777 36.6792) rotate(54.2979) scale(5.56766 9.15884)">
<stop stop-color="#2BB675"/>
<stop offset="1" stop-color="#23ABD8"/>
</radialGradient>
<linearGradient id="paint12_linear" x1="66.0917" y1="41.4083" x2="61.1942" y2="40.7913" gradientUnits="userSpaceOnUse">
<stop stop-color="white"/>
<stop offset="0.55" stop-color="#F2F2F9"/>
<stop offset="1" stop-color="#E9E9FD"/>
</linearGradient>
<linearGradient id="paint13_linear" x1="73.7408" y1="26.1351" x2="90.2116" y2="26.1351" gradientUnits="userSpaceOnUse">
<stop stop-color="#F7F7F7"/>
<stop offset="0.55" stop-color="#F2F2F9"/>
<stop offset="1" stop-color="#E9E9FD"/>
</linearGradient>
<linearGradient id="paint14_linear" x1="80.9113" y1="34.4967" x2="83.1967" y2="18.2108" gradientUnits="userSpaceOnUse">
<stop stop-color="#F7F7F7"/>
<stop offset="0.55" stop-color="#F2F2F9"/>
<stop offset="1" stop-color="#E9E9FD"/>
</linearGradient>
<linearGradient id="paint15_linear" x1="73.7645" y1="26.8106" x2="84.3025" y2="26.8106" gradientUnits="userSpaceOnUse">
<stop stop-color="#00ACBF"/>
<stop offset="0.29" stop-color="#04A7BB"/>
<stop offset="0.63" stop-color="#1099AF"/>
<stop offset="1" stop-color="#24819B"/>
</linearGradient>
<radialGradient id="paint16_radial" cx="0" cy="0" r="1" gradientUnits="userSpaceOnUse" gradientTransform="translate(74.9553 27.441) rotate(180) scale(0.178524)">
<stop stop-color="white"/>
<stop offset="1" stop-color="#95FDA8"/>
</radialGradient>
<radialGradient id="paint17_radial" cx="0" cy="0" r="1" gradientUnits="userSpaceOnUse" gradientTransform="translate(74.9553 27.441) rotate(180) scale(0.178524)">
<stop stop-color="white"/>
<stop offset="1" stop-color="#95FDA8"/>
</radialGradient>
<radialGradient id="paint18_radial" cx="0" cy="0" r="1" gradientUnits="userSpaceOnUse" gradientTransform="translate(74.9546 26.8626) scale(0.178387)">
<stop stop-color="white"/>
<stop offset="1" stop-color="#95FDA8"/>
</radialGradient>
<radialGradient id="paint19_radial" cx="0" cy="0" r="1" gradientUnits="userSpaceOnUse" gradientTransform="translate(74.9546 26.8626) scale(0.178387)">
<stop stop-color="white"/>
<stop offset="1" stop-color="#95FDA8"/>
</radialGradient>
<radialGradient id="paint20_radial" cx="0" cy="0" r="1" gradientUnits="userSpaceOnUse" gradientTransform="translate(74.9524 26.2678) scale(0.178707)">
<stop stop-color="white"/>
<stop offset="1" stop-color="#95FDA8"/>
</radialGradient>
<radialGradient id="paint21_radial" cx="0" cy="0" r="1" gradientUnits="userSpaceOnUse" gradientTransform="translate(74.9524 26.2678) scale(0.178707)">
<stop stop-color="white"/>
<stop offset="1" stop-color="#95FDA8"/>
</radialGradient>
<radialGradient id="paint22_radial" cx="0" cy="0" r="1" gradientUnits="userSpaceOnUse" gradientTransform="translate(77.7615 28.7858) scale(0.178707)">
<stop stop-color="white"/>
<stop offset="1" stop-color="#95FDA8"/>
</radialGradient>
<radialGradient id="paint23_radial" cx="0" cy="0" r="1" gradientUnits="userSpaceOnUse" gradientTransform="translate(77.7615 28.7858) scale(0.178707)">
<stop stop-color="white"/>
<stop offset="1" stop-color="#95FDA8"/>
</radialGradient>
<radialGradient id="paint24_radial" cx="0" cy="0" r="1" gradientUnits="userSpaceOnUse" gradientTransform="translate(77.7615 28.2079) scale(0.178387)">
<stop stop-color="white"/>
<stop offset="1" stop-color="#95FDA8"/>
</radialGradient>
<radialGradient id="paint25_radial" cx="0" cy="0" r="1" gradientUnits="userSpaceOnUse" gradientTransform="translate(77.7615 28.2079) scale(0.178387)">
<stop stop-color="white"/>
<stop offset="1" stop-color="#95FDA8"/>
</radialGradient>
<radialGradient id="paint26_radial" cx="0" cy="0" r="1" gradientUnits="userSpaceOnUse" gradientTransform="translate(77.7592 27.6132) scale(0.178707)">
<stop stop-color="white"/>
<stop offset="1" stop-color="#95FDA8"/>
</radialGradient>
<radialGradient id="paint27_radial" cx="0" cy="0" r="1" gradientUnits="userSpaceOnUse" gradientTransform="translate(77.7592 27.6132) scale(0.178707)">
<stop stop-color="white"/>
<stop offset="1" stop-color="#95FDA8"/>
</radialGradient>
</defs>
</svg>
