<svg width="99" height="69" viewBox="0 0 99 69" fill="none" xmlns="http://www.w3.org/2000/svg">
<path d="M70.3835 58.3524C69.0435 59.7425 67.7754 60.6409 66.7758 61.3501C55.0034 69.6812 41.0735 67.2532 38.1131 66.6598C33.7407 65.7851 25.2907 64.0924 19.1804 57.0049C9.93697 46.2837 11.3753 29.3946 18.5451 18.2455C19.8564 16.2053 26.7841 4.88841 40.865 3.07279C49.3868 1.97348 59.3182 4.191 66.5121 10.1343C81.6117 22.6097 80.5354 47.8133 70.3835 58.3524Z" fill="#305263"/>
<path d="M10.5062 25.0192L46.0332 36.435L41.5475 49.9919L6.02045 38.5761L10.5062 25.0192Z" fill="#016A7B"/>
<path d="M41.8764 50.628L46.678 36.1093L10.1739 24.3778L5.36653 38.8974L41.8764 50.628ZM45.3854 36.7576L41.2199 49.3534L6.67056 38.2472L10.8361 25.6514L45.3854 36.7576Z" fill="#42CAE0"/>
<path d="M24.0124 42.8837C20.898 41.8828 19.1973 38.5806 20.2138 35.5081C21.2302 32.4356 24.579 30.7562 27.6934 31.7571C30.8078 32.758 32.5085 36.0602 31.492 39.1327C30.4755 42.2052 27.1268 43.8846 24.0124 42.8837Z" fill="#1A2B34"/>
<path d="M17.0104 36.0478C16.2968 35.8184 15.9071 35.0618 16.14 34.3577C16.373 33.6537 17.1403 33.2688 17.8539 33.4982C18.5675 33.7275 18.9572 34.4842 18.7243 35.1882C18.4913 35.8923 17.724 36.2771 17.0104 36.0478Z" fill="#1A2B34"/>
<path d="M34.1742 41.5673C33.4605 41.3382 33.071 40.5819 33.3042 39.8779C33.5374 39.1739 34.3051 38.7889 35.0188 39.018C35.7325 39.2471 36.122 40.0034 35.8888 40.7074C35.6556 41.4113 34.8879 41.7963 34.1742 41.5673Z" fill="#36B9B1"/>
<path d="M22.9474 3.58552L44.7437 33.8359L32.8756 42.1584L11.0793 11.908L22.9474 3.58552Z" fill="#016A7B"/>
<path d="M32.7209 42.8889L45.4381 33.9623L23.073 2.88751L10.3558 11.8141L32.7209 42.8889ZM43.994 33.7202L32.9643 41.4641L11.794 12.052L22.8237 4.30812L43.994 33.7202Z" fill="#40C7DF"/>
<path d="M23.0098 26.0381C21.0967 23.3849 21.7286 19.7046 24.4211 17.8179C27.1136 15.9312 30.8471 16.5525 32.7602 19.2056C34.6733 21.8588 34.0414 25.5391 31.3489 27.4258C28.6564 29.3125 24.9229 28.6912 23.0098 26.0381Z" fill="#1A2B34"/>
<path d="M23.8281 26.718L25.0523 25.8594C25.5632 26.5431 26.2994 27.1077 26.9027 27.313L27.5113 26.457C26.9098 26.2308 26.2326 25.7699 25.7505 25.1021C25.1392 24.2546 25.2248 23.3296 25.9165 22.8461C26.5846 22.3768 27.3343 22.5531 28.3321 23.1831C29.6951 24.0624 30.7992 24.4229 31.8504 23.6852C32.8601 22.98 33.1122 21.7395 32.505 20.5105L33.7292 19.6519L33.193 18.9106L32.0155 19.7358C31.4759 19.0362 30.9263 18.6832 30.4695 18.4797L29.8828 19.3423C30.2102 19.4897 30.8301 19.7953 31.3807 20.56C32.046 21.481 31.7364 22.2213 31.2498 22.558C30.6191 23.0006 29.9871 22.7794 28.7999 22.0464C27.4013 21.1729 26.3222 20.9937 25.2431 21.7514C24.2851 22.4224 23.8636 23.7111 24.5424 25.0881L23.281 25.9733L23.8281 26.718Z" fill="#44A0AC"/>
<path d="M21.5077 16.3647C21.0712 15.7589 21.2155 14.9185 21.8299 14.4876C22.4443 14.0567 23.2962 14.1985 23.7327 14.8043C24.1691 15.4101 24.0249 16.2505 23.4105 16.6814C22.796 17.1123 21.9441 16.9705 21.5077 16.3647Z" fill="#1A2B34"/>
<path d="M32.0417 30.9766C31.6053 30.3708 31.7495 29.5304 32.3639 29.0995C32.9784 28.6686 33.8303 28.8104 34.2668 29.4162C34.7033 30.022 34.559 30.8624 33.9446 31.2933C33.3302 31.7242 32.4782 31.5824 32.0417 30.9766Z" fill="#00212C"/>
<path d="M71.4976 10.2217L59.2881 40.9461L71.3088 45.5884L83.5183 14.8641L71.4976 10.2217Z" fill="#016A7B"/>
<path d="M71.5663 46.1745L58.6941 41.2012L71.2383 9.63088L84.1144 14.6008L71.5663 46.1745ZM59.8815 40.6877L71.0488 45.0024L82.9192 15.121L71.7519 10.8063L59.8815 40.6877Z" fill="#42CAE0"/>
<path d="M76.3061 29.5856C77.3764 26.8921 76.0356 23.8558 73.3113 22.8037C70.587 21.7515 67.5108 23.0821 66.4405 25.7755C65.3701 28.469 66.7109 31.5053 69.4352 32.5574C72.1596 33.6095 75.2357 32.279 76.3061 29.5856Z" fill="#1A2B34"/>
<path d="M75.7023 30.4482L74.4736 29.9412C74.1684 30.6335 73.6458 31.2673 73.1672 31.5654L72.4704 30.9418C72.943 30.6287 73.4384 30.0973 73.7239 29.4213C74.0765 28.5633 73.8206 27.7792 73.1232 27.495C72.4541 27.2205 71.8407 27.5178 71.104 28.2631C70.0979 29.2921 69.2234 29.8197 68.1635 29.385C67.1529 28.969 66.6848 27.9426 66.9677 26.7571L65.7389 26.2501L66.0525 25.5043L67.2357 25.9894C67.5645 25.2774 67.9656 24.8642 68.3173 24.5985L68.9951 25.2313C68.7411 25.4224 68.2695 25.8078 67.9462 26.5817C67.5584 27.5088 67.9707 28.0898 68.4565 28.2907C69.0867 28.551 69.5922 28.2372 70.4712 27.3669C71.5029 26.3365 72.3998 25.9698 73.4841 26.4174C74.4452 26.8147 75.07 27.8438 74.7561 29.1746L76.0238 29.6959L75.7023 30.4482Z" fill="#44A0AC"/>
<path d="M75.5084 20.925C75.7537 20.3078 75.4464 19.6121 74.8222 19.371C74.1979 19.1299 73.493 19.4348 73.2478 20.0519C73.0025 20.6691 73.3098 21.3648 73.934 21.6059C74.5583 21.847 75.2632 21.5421 75.5084 20.925Z" fill="#1A2B34"/>
<path d="M28.2328 36.5839V41.5049C28.2328 42.4454 27.4514 43.2169 26.499 43.2169H22.9263C21.9738 43.2169 21.1924 42.4454 21.1924 41.5049V36.5839C21.1924 35.6435 21.9738 34.872 22.9263 34.872H26.499C27.4514 34.8681 28.2328 35.6397 28.2328 36.5839Z" fill="#76D4E3"/>
<path d="M28.2328 36.5839V39.3246C28.2328 40.2651 27.4514 41.0366 26.499 41.0366H22.9263C21.9738 41.0366 21.1924 40.2651 21.1924 39.3246V36.5839C21.1924 35.6435 21.9738 34.872 22.9263 34.872H26.499C27.4514 34.8681 28.2328 35.6397 28.2328 36.5839Z" fill="#AAEDF8"/>
<path d="M67.8044 39.0445C67.8044 41.5625 67.2835 43.9654 66.3427 46.1534C63.5164 52.7211 56.9113 57.358 49.2605 57.358H43.954C37.1857 57.358 31.2299 53.7306 27.9915 48.3452C26.3509 45.616 25.4062 42.4339 25.4062 39.0445C25.4062 36.5264 25.9272 34.1235 26.868 31.9355C29.6943 25.3678 36.2993 20.7347 43.9501 20.7347H49.2528C56.2116 20.7347 62.3034 24.5694 65.4757 30.2005C66.9608 32.8222 67.8044 35.8393 67.8044 39.0445Z" fill="#76D5E3"/>
<path d="M65.4796 30.1966C65.9189 32.3078 65.5729 35.3287 65.0092 36.9256C61.2654 47.5544 52.4678 49.4737 43.4758 50.2836C37.0807 50.8594 27.9915 48.3413 27.9915 48.3413C26.3509 45.6121 25.4062 42.43 25.4062 39.0406C25.4062 36.5225 25.9272 34.1196 26.868 31.9317C29.6943 25.364 36.2993 20.7309 43.9501 20.7309H49.2528C56.2155 20.7309 62.3112 24.5617 65.4796 30.1966Z" fill="#AAEDF8"/>
<path d="M41.7696 25.3179H34.4726C33.7378 25.3179 33.1392 24.8765 33.1392 24.3314V14.4972C33.1392 14.3283 33.1936 14.1747 33.283 14.0442C33.6407 13.5337 34.5776 13.3226 35.2735 13.7141C38.0414 15.2649 42.5821 18.6351 43.0914 24.2662C43.1497 24.8343 42.5394 25.3179 41.7696 25.3179Z" fill="#AAEDF8"/>
<path d="M34.7681 25.318H34.4726C33.7378 25.318 33.1392 24.8766 33.1392 24.3315V14.4973C33.1392 14.3284 33.1936 14.1748 33.283 14.0443C33.3141 14.0712 33.3452 14.0981 33.3724 14.1326C34.9586 15.8753 37.2406 19.2954 36.5991 24.0897C36.5097 24.7883 35.7166 25.318 34.7681 25.318Z" fill="#76D4E3"/>
<path d="M32.0114 32.9684C32.6126 32.9684 33.0999 32.4872 33.0999 31.8935C33.0999 31.2999 32.6126 30.8186 32.0114 30.8186C31.4102 30.8186 30.9229 31.2999 30.9229 31.8935C30.9229 32.4872 31.4102 32.9684 32.0114 32.9684Z" fill="#1A2B34"/>
<path d="M52.3942 49.5812L50.6642 60.6745C50.4348 61.5343 51.0918 62.3749 51.9899 62.3749H56.5383C57.5141 62.3749 58.4044 61.8376 58.8515 60.9816L65.9191 47.0631L52.3942 49.5812Z" fill="#76D5E3"/>
<path d="M42.0459 49.7731L43.4337 60.6745C43.6631 61.5343 43.0061 62.375 42.1081 62.375H37.5596C36.5838 62.375 35.6935 61.8376 35.2465 60.9816L27.9961 48.3414L42.0459 49.7731Z" fill="#76D5E3"/>
<path d="M72.2249 44.023C72.1199 44.023 72.015 44.0115 71.9139 43.9846C71.1092 43.7735 70.6465 42.8254 70.7087 41.5049C70.7709 40.2113 71.3191 38.8448 72.2132 37.7547C72.6098 37.271 73.0646 36.8526 73.5778 36.4957C73.3368 36.1041 73.0141 35.728 72.5748 35.4055C71.8323 34.8566 71.0625 34.6954 70.2267 34.9219C67.9796 35.5245 66.0747 38.6951 65.9192 39.0521C65.8492 39.244 65.6393 39.3438 65.441 39.2786C65.2428 39.2133 65.1339 39.0022 65.2 38.8026C65.2661 38.603 65.822 37.6587 66.5995 36.7183C67.9524 35.0831 69.1304 34.4651 69.8846 34.2309C71.0003 33.8855 72.0577 34.0774 73.0296 34.799C73.5117 35.156 73.9121 35.5898 74.2192 36.0888C74.989 35.6627 75.8598 35.371 76.8045 35.2174C77.0105 35.1829 77.2088 35.3211 77.2399 35.5284C77.2749 35.7318 77.1349 35.9276 76.925 35.9583C76.0581 36.1003 75.265 36.369 74.5613 36.7605C74.7752 37.2749 74.9151 37.8391 74.9657 38.4495C75.0745 39.7047 74.8218 41.0789 74.2659 42.2151C73.7022 43.3704 72.9558 44.023 72.2249 44.023ZM73.9121 37.1789C73.5 37.4822 73.1268 37.8315 72.8042 38.2268C72.0111 39.1941 71.5212 40.3994 71.4668 41.5395C71.4241 42.4415 71.6845 43.1478 72.1044 43.2591C72.5281 43.3704 73.1385 42.8062 73.5856 41.8926C74.0754 40.8908 74.3125 39.6279 74.2154 38.5186C74.1765 38.1155 74.0948 37.6511 73.9121 37.1789ZM65.9231 39.0368C65.9231 39.0406 65.9231 39.0406 65.9192 39.0444C65.9192 39.0406 65.9231 39.0406 65.9231 39.0368Z" fill="#AAEDF8"/>
<path d="M48.1216 24.278C48.005 24.3663 47.8806 24.4508 47.7523 24.5276C47.7017 24.5583 47.6512 24.5851 47.6007 24.6158C47.4685 24.6888 47.3363 24.7502 47.2002 24.8078C47.1614 24.8001 47.1225 24.7924 47.0836 24.7886C46.8387 24.7463 46.5938 24.7118 46.3527 24.6773C46.2322 24.6619 46.1156 24.6427 45.999 24.6274C45.5091 24.5621 45.0387 24.5122 44.5917 24.47C44.4711 24.4585 44.3506 24.4469 44.234 24.4393C44.1407 24.4316 44.0513 24.4239 43.958 24.4162C43.7364 24.4009 43.5226 24.3855 43.3165 24.374C43.0288 24.1706 42.7606 23.9287 42.5312 23.6524C42.3796 23.4681 42.2397 23.2647 42.1191 23.0497C41.0423 21.1228 41.7537 18.7007 43.7053 17.6374C43.7558 17.6105 43.8103 17.5837 43.8608 17.5568C45.7851 16.6125 48.141 17.3265 49.1868 19.2035C50.1587 20.9501 49.6689 23.0996 48.1216 24.278Z" fill="#7F86FF"/>
<path d="M47.4534 21.5147C47.3834 21.3458 47.294 21.2114 47.1851 21.1116C47.0763 21.0118 46.9441 20.9389 46.8003 20.889C46.6525 20.8391 46.4893 20.8083 46.3104 20.7968C46.1316 20.7853 45.9333 20.7815 45.7234 20.7891C45.5912 20.793 45.4824 20.7891 45.3891 20.7815C45.2958 20.7738 45.218 20.7546 45.1519 20.7316C45.0858 20.7047 45.0353 20.6701 44.9925 20.6241C44.9537 20.578 44.9187 20.5243 44.8915 20.4628C44.8642 20.3976 44.8487 20.3361 44.8448 20.2709C44.8409 20.2095 44.8487 20.148 44.872 20.0904C44.8953 20.0329 44.9342 19.983 44.9848 19.9331C45.0353 19.8831 45.1053 19.8448 45.1908 19.8102C45.3463 19.7488 45.494 19.7488 45.6301 19.814C45.7662 19.8793 45.8789 20.0175 45.9644 20.2248L46.7847 19.8947C46.7147 19.7219 46.6253 19.5722 46.5165 19.4532C46.4076 19.3342 46.2871 19.242 46.151 19.1768C46.015 19.1115 45.8672 19.0731 45.7117 19.0616C45.5523 19.0501 45.3891 19.0654 45.2141 19.1115L44.9809 18.5472L44.526 18.7315L44.7554 19.2881C44.5921 19.3726 44.4522 19.4685 44.3394 19.5837C44.2267 19.695 44.1373 19.8179 44.0751 19.9446C44.0129 20.0751 43.9818 20.2095 43.9779 20.3553C43.974 20.4974 44.0051 20.6433 44.0634 20.793C44.1334 20.9619 44.2228 21.1001 44.3355 21.1961C44.4444 21.2959 44.5727 21.3688 44.7204 21.4187C44.8642 21.4686 45.0314 21.4955 45.2102 21.507C45.393 21.5185 45.5873 21.5147 45.8011 21.507C45.9256 21.4994 46.0305 21.4994 46.1199 21.5109C46.2093 21.5185 46.2871 21.5377 46.3532 21.5608C46.4193 21.5877 46.4737 21.6222 46.5165 21.6721C46.5592 21.7182 46.5981 21.7796 46.6253 21.8525C46.6525 21.9178 46.6642 21.9831 46.6642 22.0445C46.6642 22.1098 46.6486 22.1712 46.6214 22.2288C46.5903 22.2863 46.5476 22.3401 46.4893 22.39C46.4309 22.4399 46.3571 22.4821 46.2677 22.5167C46.1899 22.5474 46.1083 22.5666 46.0266 22.5781C45.945 22.5896 45.8634 22.5819 45.7817 22.5551C45.704 22.5282 45.6301 22.4821 45.5601 22.413C45.4901 22.3439 45.4318 22.248 45.3813 22.1251L44.5571 22.4553C44.6426 22.6626 44.7515 22.8276 44.8798 22.9505C45.0081 23.0733 45.1519 23.1616 45.3074 23.2115C45.4629 23.2653 45.6223 23.2883 45.7895 23.2806C45.9567 23.273 46.1238 23.2461 46.2871 23.2L46.5009 23.7183L46.9519 23.5379L46.7381 23.0196C46.9013 22.9351 47.0413 22.8392 47.1618 22.7278C47.2784 22.6165 47.3679 22.4975 47.4301 22.3708C47.4923 22.2441 47.5234 22.1059 47.5272 21.9639C47.5428 21.818 47.5156 21.6683 47.4534 21.5147Z" fill="white"/>
<path d="M52.5496 25.6329C52.4952 25.8056 52.3086 25.917 52.1142 25.8594C50.3609 25.3181 48.5065 24.9611 46.6755 24.7538C44.6656 24.5273 42.6168 24.4812 41.6488 24.5465C41.4583 24.558 41.2911 24.4159 41.2795 24.224C41.2678 24.0359 41.4116 23.8708 41.606 23.8593C43.1066 23.771 45.2176 23.8861 46.8115 24.0743C48.6387 24.2854 50.532 24.6501 52.3164 25.1991C52.503 25.2605 52.604 25.4525 52.5496 25.6329Z" fill="#1A2B34"/>
<path d="M34.5136 65.9849C34.5326 64.8122 31.1292 63.807 26.9119 63.7397C22.6946 63.6724 19.2604 64.5686 19.2414 65.7413C19.2224 66.914 22.6258 67.9192 26.8431 67.9865C31.0604 68.0537 34.4946 67.1576 34.5136 65.9849Z" fill="#043647"/>
<path d="M34.5112 65.9836L34.5745 64.6262L33.1856 64.8094L19.305 64.3847L19.2417 65.7421L23.7757 67.2119L30.2474 66.5082L34.5112 65.9836Z" fill="#043647"/>
<path d="M34.5751 64.6281C34.5941 63.4554 31.1907 62.4503 26.9734 62.383C22.7561 62.3158 19.3219 63.2119 19.3029 64.3846C19.284 65.5573 22.6873 66.5625 26.9046 66.6297C31.1219 66.697 34.5561 65.8008 34.5751 64.6281Z" fill="#25B4CB"/>
<path d="M21.0866 64.2764L22.5261 64.2972C22.543 64.0682 22.8048 63.835 23.1636 63.7018L24.1177 63.8142C23.7715 63.9516 23.4971 64.1515 23.4929 64.3763C23.4886 64.6595 24.0712 64.8593 24.886 64.8718C25.6712 64.8843 26.1609 64.7386 26.5915 64.4513C27.1699 64.0557 27.8284 63.8142 29.0696 63.835C30.2558 63.8558 31.1508 64.1015 31.3577 64.4721L32.7972 64.4929L32.793 64.7386L31.4083 64.7178C31.3746 64.9551 31.1466 65.1133 30.9017 65.2258L29.9603 65.1133C30.1334 65.0342 30.45 64.876 30.4543 64.622C30.4585 64.318 29.8041 64.1931 29.2342 64.1806C28.4912 64.1681 28.1197 64.3097 27.6005 64.647C26.9926 65.0467 26.2496 65.2424 24.9789 65.2216C23.8517 65.2049 22.8005 64.9676 22.5641 64.5554L21.0781 64.5304L21.0866 64.2764Z" fill="white"/>
<path d="M32.9594 63.1106C32.9784 61.9379 29.575 60.9327 25.3577 60.8655C21.1404 60.7982 17.7062 61.6943 17.6872 62.867C17.6682 64.0397 21.0716 65.0449 25.2889 65.1122C29.5062 65.1795 32.9404 64.2833 32.9594 63.1106Z" fill="#043647"/>
<path d="M32.9574 63.1112L33.0208 61.7579L31.6319 61.9369L17.7513 61.5164L17.688 62.8696L22.222 64.3437L28.6937 63.6358L32.9574 63.1112Z" fill="#043647"/>
<path d="M33.0248 61.758C33.0438 60.5853 29.6404 59.5801 25.4231 59.5128C21.2059 59.4456 17.7717 60.3417 17.7527 61.5144C17.7337 62.6871 21.137 63.6923 25.3543 63.7596C29.5716 63.8269 33.0058 62.9307 33.0248 61.758Z" fill="#25B4CB"/>
<path d="M19.5333 61.404L20.9729 61.4248C20.9898 61.1958 21.2515 60.9626 21.6104 60.8293L22.5644 60.9418C22.2183 61.0792 21.9439 61.279 21.9396 61.5039C21.9354 61.787 22.518 61.9869 23.3328 61.9994C24.118 62.0119 24.6077 61.8661 25.0383 61.5788C25.6166 61.1833 26.2752 60.9418 27.5164 60.9626C28.7026 60.9834 29.5976 61.2291 29.8045 61.5997L31.244 61.6205L31.2398 61.8661L29.8551 61.8453C29.8213 62.0827 29.5934 62.2409 29.3485 62.3533L28.4071 62.2409C28.5802 62.1618 28.8968 62.0036 28.901 61.7496C28.9053 61.4456 28.2509 61.3207 27.681 61.3082C26.938 61.2957 26.5665 61.4373 26.0472 61.7745C25.4393 62.1743 24.6963 62.37 23.4256 62.3492C22.2985 62.3325 21.2473 62.0952 21.0109 61.6829L19.5249 61.658L19.5333 61.404Z" fill="white"/>
<path d="M34.7899 61.3295C34.8089 60.1568 31.4056 59.1516 27.1883 59.0843C22.971 59.017 19.5368 59.9131 19.5178 61.0858C19.4988 62.2585 22.9022 63.2637 27.1195 63.331C31.3367 63.3983 34.7709 62.5022 34.7899 61.3295Z" fill="#043647"/>
<path d="M34.79 61.3248L34.8533 59.9715L33.4644 60.1547L19.5838 59.73L19.5205 61.0833L24.0545 62.5573L30.5262 61.8536L34.79 61.3248Z" fill="#043647"/>
<path d="M34.8554 59.9728C34.8744 58.8001 31.471 57.7949 27.2537 57.7276C23.0364 57.6604 19.6022 58.5565 19.5832 59.7292C19.5642 60.9019 22.9676 61.9071 27.1849 61.9744C31.4022 62.0417 34.8364 61.1455 34.8554 59.9728Z" fill="#25B4CB"/>
<path d="M21.3651 59.6219L22.8046 59.6427C22.8215 59.4137 23.0832 59.1805 23.4421 59.0473L24.3962 59.1597C24.05 59.2971 23.7756 59.497 23.7714 59.7218C23.7671 60.005 24.3497 60.2048 25.1645 60.2173C25.9497 60.2298 26.4394 60.0841 26.87 59.7968C27.4484 59.4012 28.1069 59.1597 29.3481 59.1805C30.5343 59.2013 31.4293 59.447 31.6362 59.8176L33.0799 59.8384L33.0757 60.0841L31.691 60.0633C31.6573 60.3006 31.4293 60.4588 31.1845 60.5712L30.243 60.4588C30.4161 60.3797 30.7327 60.2215 30.737 59.9675C30.7412 59.6635 30.0868 59.5386 29.5169 59.5261C28.7739 59.5136 28.4024 59.6552 27.8832 59.9925C27.2753 60.3922 26.5323 60.5879 25.2616 60.5671C24.1344 60.5504 23.0832 60.3131 22.8468 59.9009L21.3608 59.8717L21.3651 59.6219Z" fill="white"/>
<path d="M34.8012 59.3098C34.8202 58.1371 31.4168 57.1319 27.1995 57.0646C22.9822 56.9973 19.548 57.8934 19.529 59.0661C19.51 60.2389 22.9134 61.2441 27.1307 61.3113C31.348 61.3786 34.7822 60.4825 34.8012 59.3098Z" fill="#043647"/>
<path d="M34.8027 59.3057L34.866 57.9524L33.4771 58.1357L19.5965 57.7109L19.5332 59.0642L24.0672 60.5382L30.5389 59.8345L34.8027 59.3057Z" fill="#043647"/>
<path d="M34.8666 57.9529C34.8856 56.7802 31.4822 55.775 27.2649 55.7077C23.0477 55.6404 19.6135 56.5365 19.5945 57.7092C19.5755 58.8819 22.9788 59.8872 27.1961 59.9544C31.4134 60.0217 34.8476 59.1256 34.8666 57.9529Z" fill="#25B4CB"/>
<path d="M21.3778 57.603L22.8215 57.6238C22.8384 57.3948 23.1002 57.1616 23.459 57.0284L24.4131 57.1408C24.0669 57.2782 23.7925 57.478 23.7883 57.7029C23.7841 57.986 24.3666 58.1859 25.1814 58.1984C25.9666 58.2109 26.4563 58.0652 26.8869 57.7778C27.4653 57.3823 28.1238 57.1408 29.365 57.1616C30.5513 57.1824 31.4462 57.4281 31.6531 57.7987L33.0926 57.8195L33.0884 58.0652L31.7037 58.0443C31.67 58.2817 31.442 58.4399 31.1972 58.5523L30.2557 58.4399C30.4288 58.3608 30.7454 58.2026 30.7497 57.9486C30.7539 57.6446 30.0995 57.5197 29.5296 57.5072C28.7866 57.4947 28.4151 57.6363 27.8959 57.9735C27.288 58.3733 26.545 58.569 25.2743 58.5482C24.1471 58.5315 23.0959 58.2942 22.8595 57.8819L21.3735 57.8528L21.3778 57.603Z" fill="white"/>
<path d="M34.8124 57.3859C34.8314 56.2132 31.428 55.208 27.2107 55.1407C22.9935 55.0734 19.5593 55.9696 19.5403 57.1423C19.5213 58.315 22.9246 59.3202 27.1419 59.3874C31.3592 59.4547 34.7934 58.5586 34.8124 57.3859Z" fill="#043647"/>
<path d="M34.8105 57.3861L34.8738 56.0328L33.4849 56.216L19.6043 55.7913L19.541 57.1445L24.075 58.6186L30.5467 57.9149L34.8105 57.3861Z" fill="#043647"/>
<path d="M34.8778 56.0331C34.8968 54.8604 31.4935 53.8552 27.2762 53.788C23.0589 53.7207 19.6247 54.6168 19.6057 55.7895C19.5867 56.9622 22.9901 57.9674 27.2074 58.0347C31.4246 58.102 34.8588 57.2058 34.8778 56.0331Z" fill="#25B4CB"/>
<path d="M21.3864 55.6791L22.8259 55.7C22.8428 55.4709 23.1046 55.2378 23.4634 55.1045L24.4175 55.2169C24.0713 55.3544 23.7969 55.5542 23.7927 55.7791C23.7885 56.0622 24.371 56.2621 25.1858 56.2746C25.971 56.2871 26.4607 56.1413 26.8913 55.854C27.4697 55.4585 28.1282 55.2169 29.3694 55.2378C30.5556 55.2586 31.4506 55.5043 31.6575 55.8748L33.097 55.8957L33.0928 56.1413L31.7081 56.1205C31.6744 56.3578 31.4464 56.5161 31.2015 56.6285L30.2601 56.5161C30.4332 56.437 30.7498 56.2787 30.7541 56.0247C30.7583 55.7208 30.1039 55.5959 29.534 55.5834C28.791 55.5709 28.4195 55.7124 27.9003 56.0497C27.2924 56.4495 26.5494 56.6452 25.2787 56.6243C24.1515 56.6077 23.1003 56.3703 22.8639 55.9581L21.3779 55.9331L21.3864 55.6791Z" fill="white"/>
<path d="M33.101 55.8685C33.12 54.6958 29.7166 53.6906 25.4993 53.6233C21.282 53.556 17.8479 54.4522 17.8288 55.6249C17.8098 56.7976 21.2132 57.8028 25.4305 57.87C29.6478 57.9373 33.082 57.0412 33.101 55.8685Z" fill="#043647"/>
<path d="M33.0971 55.8716L33.1604 54.5141L31.7715 54.6974L17.891 54.2726L17.8276 55.6259L22.3616 57.0999L28.8333 56.3962L33.0971 55.8716Z" fill="#043647"/>
<path d="M33.162 54.5157C33.181 53.343 29.7776 52.3378 25.5604 52.2706C21.3431 52.2033 17.9089 53.0994 17.8899 54.2721C17.8709 55.4448 21.2743 56.45 25.4915 56.5173C29.7088 56.5846 33.143 55.6884 33.162 54.5157Z" fill="#25B4CB"/>
<path d="M19.6725 54.1644L21.1121 54.1852C21.129 53.9562 21.3907 53.7231 21.7495 53.5898L22.7036 53.7022C22.3574 53.8396 22.083 54.0395 22.0788 54.2644C22.0746 54.5475 22.6572 54.7474 23.4719 54.7599C24.2571 54.7724 24.7468 54.6266 25.1774 54.3393C25.7558 53.9437 26.4144 53.7022 27.6555 53.7231C28.8418 53.7439 29.7368 53.9895 29.9436 54.3601L31.3832 54.3809L31.3789 54.6266L29.9943 54.6058C29.9605 54.8431 29.7325 55.0014 29.4877 55.1138L28.5463 55.0014C28.7194 54.9223 29.036 54.764 29.0402 54.51C29.0444 54.2061 28.3901 54.0811 27.8202 54.0687C27.0772 54.0562 26.7057 54.1977 26.1864 54.535C25.5785 54.9347 24.8355 55.1304 23.5648 55.1096C22.4376 55.093 21.3865 54.8556 21.1501 54.4434L19.6641 54.4184L19.6725 54.1644Z" fill="white"/>
<path d="M35.453 52.6266C35.4721 51.4539 32.0687 50.4487 27.8514 50.3814C23.6341 50.314 20.1999 51.2101 20.1809 52.3828C20.1619 53.5555 23.5653 54.5608 27.7825 54.6281C31.9998 54.6954 35.434 53.7993 35.453 52.6266Z" fill="#043647"/>
<path d="M35.4482 52.6277L35.5157 51.2703L34.1226 51.4535L20.2463 51.0287L20.1787 52.3862L24.7169 53.856L31.1886 53.1523L35.4482 52.6277Z" fill="#043647"/>
<path d="M35.5145 51.2746C35.5335 50.1019 32.1302 49.0967 27.9129 49.0294C23.6956 48.9621 20.2614 49.8583 20.2424 51.031C20.2234 52.2037 23.6268 53.2089 27.8441 53.2762C32.0614 53.3434 35.4955 52.4473 35.5145 51.2746Z" fill="#25B4CB"/>
<path d="M22.0278 50.9208L23.4674 50.9417C23.4843 50.7126 23.746 50.4795 24.1048 50.3462L25.0589 50.4586C24.7128 50.5961 24.4384 50.7959 24.4341 51.0208C24.4299 51.3039 25.0125 51.5038 25.8273 51.5163C26.6125 51.5288 27.1022 51.383 27.5328 51.0957C28.1111 50.7002 28.7697 50.4586 30.0108 50.4795C31.1971 50.5003 32.0921 50.746 32.2989 51.1165L33.7385 51.1374L33.7343 51.383L32.358 51.358C32.3243 51.5954 32.0963 51.7536 31.8514 51.866L30.91 51.7536C31.0831 51.6745 31.3997 51.5163 31.404 51.2623C31.4082 50.9583 30.7538 50.8334 30.1839 50.8209C29.4409 50.8084 29.0694 50.95 28.5502 51.2873C27.9423 51.687 27.1993 51.8827 25.9286 51.8619C24.8014 51.8452 23.7502 51.6079 23.5138 51.1957L22.0278 51.1707V50.9208Z" fill="white"/>
<path d="M62.5992 16.2932C65.8636 14.5164 67.0511 10.4631 65.2515 7.23992C63.452 4.01677 59.3469 2.84428 56.0825 4.6211C52.8182 6.39792 51.6307 10.4512 53.4302 13.6744C55.2298 16.8975 59.3349 18.07 62.5992 16.2932Z" fill="#043647"/>
<path d="M62.3315 16.4292C62.2498 16.4791 62.1643 16.529 62.0788 16.575C62.0516 16.5904 62.0205 16.6057 61.9933 16.6211C61.9272 16.6556 61.8611 16.6902 61.795 16.7209C58.5799 18.2793 54.6613 17.0817 52.9118 13.9533C51.2441 10.967 52.1421 7.27048 54.8751 5.32819C55.0928 5.17465 55.3221 5.02879 55.5632 4.89828C55.6487 4.85222 55.7381 4.80615 55.8236 4.76393C55.9092 4.72171 55.9947 4.68332 56.0802 4.64494C56.3446 4.52978 56.6128 4.42998 56.885 4.34937C57.2893 4.23037 57.6975 4.14977 58.1057 4.10755C59.3769 3.9732 60.6559 4.20351 61.7911 4.75241C62.9963 5.33203 64.0342 6.27246 64.7301 7.51998C66.4834 10.6599 65.4066 14.5828 62.3315 16.4292Z" fill="#7F86FF"/>
<path d="M61.8342 11.3849C61.8225 11.3503 61.8069 11.3196 61.7914 11.2889C61.6825 11.0509 61.5465 10.859 61.3832 10.7131C61.1966 10.5481 60.9828 10.4214 60.7379 10.3369C60.4929 10.2525 60.2208 10.2026 59.9176 10.1834C59.6143 10.1642 59.2878 10.1604 58.934 10.1719C58.7163 10.1796 58.5297 10.1757 58.3742 10.1604C58.2187 10.145 58.0865 10.1181 57.9777 10.0759C57.8688 10.0337 57.7833 9.97228 57.7133 9.89935C57.6472 9.82641 57.5889 9.73429 57.5461 9.62681C57.5034 9.51933 57.4762 9.41186 57.4684 9.30822C57.4606 9.20074 57.4762 9.10094 57.515 9.00498C57.5539 8.90901 57.6161 8.82073 57.7016 8.74012C57.7872 8.65951 57.9038 8.59041 58.0476 8.53284C58.312 8.42536 58.5569 8.4292 58.7863 8.54052C59.0156 8.65183 59.1984 8.88214 59.3422 9.22761L60.7184 8.67486C60.5979 8.38314 60.4502 8.13747 60.2675 7.93787C60.0886 7.73826 59.8826 7.58089 59.6571 7.47341C59.4316 7.36593 59.1867 7.30067 58.9185 7.28148C58.6541 7.26229 58.3742 7.28916 58.0904 7.36593L57.7016 6.41782L56.9397 6.7249L57.3245 7.65766C57.0485 7.79968 56.8153 7.9609 56.6248 8.14898C56.4343 8.33707 56.2866 8.53668 56.1855 8.75547C56.0844 8.97427 56.03 9.20074 56.0222 9.43872C56.0183 9.67671 56.065 9.92238 56.166 10.168C56.2827 10.4521 56.4343 10.6786 56.6209 10.8436C56.8075 11.0087 57.0213 11.1353 57.2662 11.216C57.5111 11.2966 57.7833 11.3465 58.0865 11.3618C58.3897 11.3772 58.7163 11.3772 59.074 11.3618C59.28 11.3503 59.4588 11.3503 59.6104 11.3657C59.7621 11.381 59.8942 11.4079 60.0031 11.4501C60.1119 11.4923 60.2052 11.5537 60.2791 11.6344C60.353 11.715 60.4152 11.8148 60.4657 11.9376C60.5085 12.0451 60.5318 12.1526 60.5318 12.26C60.5318 12.3675 60.5085 12.4673 60.4579 12.5671C60.4113 12.6631 60.3374 12.7552 60.2402 12.8397C60.143 12.9241 60.0186 12.9932 59.8709 13.0546C59.7426 13.1083 59.6066 13.1429 59.4666 13.1582C59.3267 13.1736 59.1906 13.1621 59.0584 13.1199C58.9262 13.0776 58.8018 12.997 58.6852 12.8819C58.5686 12.7667 58.4675 12.6055 58.3859 12.4021L57.0096 12.9548C57.1535 13.3041 57.3323 13.5805 57.55 13.7839C57.7677 13.9874 58.0049 14.1332 58.2615 14.2215C58.518 14.3098 58.7902 14.3482 59.0701 14.3367C59.35 14.3252 59.6299 14.2791 59.902 14.2023L60.2558 15.066L61.0139 14.7627L60.6562 13.8952C60.9322 13.7532 61.1655 13.592 61.3638 13.4077C61.5465 13.2389 61.6864 13.0546 61.7914 12.8588C61.7992 12.8435 61.8069 12.8281 61.8147 12.8128C61.9197 12.5978 61.9741 12.3714 61.9819 12.1295C61.9897 11.8915 61.9391 11.642 61.8342 11.3849Z" fill="white"/>
</svg>
