<svg width="96" height="122" viewBox="0 0 96 122" fill="none" xmlns="http://www.w3.org/2000/svg">
<path d="M83.5891 93.5197C81.6936 95.5095 79.8999 96.7955 78.4859 97.8107C61.8335 109.736 42.1294 106.261 37.9417 105.411C31.7568 104.159 19.8041 101.736 11.1609 91.5907C-1.91418 76.2437 0.120318 52.0674 10.2623 36.1079C12.1171 33.1874 21.9166 16.9875 41.8344 14.3885C53.8888 12.8149 67.937 15.9892 78.1129 24.4969C99.4717 42.355 97.9493 78.4332 83.5891 93.5197Z" fill="url(#paint0_linear)"/>
<path d="M74.8857 85.0115C73.448 86.5382 72.0874 87.5249 71.0149 88.3038C58.384 97.4538 43.4383 94.7872 40.2619 94.1355C35.5707 93.1748 26.5045 91.3157 19.9486 83.5315C10.0311 71.7565 11.5743 53.2072 19.267 40.9623C20.6739 38.7215 28.1068 26.2922 43.2145 24.2981C52.3579 23.0907 63.0135 25.5262 70.732 32.0538C86.9328 45.7554 85.7779 73.4364 74.8857 85.0115Z" fill="url(#paint1_linear)"/>
<path d="M29.05 102L30.4685 105.032C24.9378 105.452 19.515 104.036 14.994 100.95L14.9919 100.948C9.96122 97.5522 6.65401 92.4933 5.61756 86.695L5.6168 86.6909C5.53845 86.2728 5.13882 85.9388 4.66727 86.0231L2.77289 86.3315L2.77287 86.3313L2.76111 86.3335C2.34178 86.4121 2.00701 86.8139 2.0941 87.2874C3.29638 94.0559 7.15814 99.9578 12.9666 103.921L12.9669 103.921C18.2717 107.535 24.6397 109.155 31.1046 108.583L30.8016 112.657L30.8015 112.657L30.8012 112.663C30.754 113.406 31.6553 113.852 32.2092 113.307L32.2112 113.305L39.0966 106.45C39.0973 106.45 39.098 106.449 39.0987 106.448C39.5077 106.047 39.3731 105.363 38.8685 105.123L30.1536 100.906L30.1536 100.906L30.1441 100.901C29.4866 100.6 28.6893 101.259 29.05 102Z" fill="#32DAF5" stroke="#32DAF5"/>
<path d="M81.8995 18.6969L81.8994 18.6968C76.1204 14.6394 69.1248 12.7706 61.9937 13.3213L62.3964 8.76163L62.3965 8.76042C62.4614 8.0051 61.5296 7.50713 60.9532 8.07934L53.2593 15.5449L53.2593 15.5449L53.2579 15.5462C52.8385 15.9564 52.9376 16.6521 53.4709 16.9176C53.4712 16.9177 53.4714 16.9178 53.4717 16.9179L63.0358 21.6933L63.0357 21.6934L63.045 21.6978C63.7515 22.0326 64.5157 21.3256 64.2007 20.5851L64.2008 20.585L64.1966 20.5757L62.6452 17.1269C68.7741 16.7292 74.7562 18.3668 79.7101 21.8361L79.7102 21.8362C85.1836 25.6683 88.7588 31.3069 89.8219 37.7119C89.896 38.1768 90.3221 38.4842 90.7843 38.4135C90.7852 38.4134 90.786 38.4132 90.7869 38.4131L92.8971 38.0986L92.9004 38.098C93.3473 38.0283 93.6924 37.6133 93.6169 37.129L93.6169 37.129L93.616 37.1238C92.3718 29.6665 88.2212 23.1384 81.8995 18.6969Z" fill="#2EC6BA" stroke="#2EC6BA"/>
<path d="M28.5049 25.9095C13.7885 25.9095 1.85619 37.8475 1.85619 52.5709C1.85619 67.2943 13.7885 79.2322 28.5049 79.2322C43.2214 79.2322 55.1537 67.2943 55.1537 52.5709C55.1537 37.8475 43.2214 25.9095 28.5049 25.9095ZM28.5049 74.0591C16.661 74.0591 7.02684 64.4646 7.02684 52.5709C7.02684 40.7214 16.6168 31.0826 28.5049 31.0826C40.3488 31.0826 49.983 40.6772 49.983 52.5709C49.983 64.4646 40.3488 74.0591 28.5049 74.0591Z" fill="#085261"/>
<path d="M29 76.0001C41.7025 76.0001 52 65.7026 52 53.0001C52 40.2975 41.7025 30.0001 29 30.0001C16.2975 30.0001 6 40.2975 6 53.0001C6 65.7026 16.2975 76.0001 29 76.0001Z" fill="#95E6F3"/>
<path d="M26.6487 24.4505C11.9323 24.4505 0 36.3884 0 51.1118C0 65.8353 11.9323 77.7732 26.6487 77.7732C41.3652 77.7732 53.2975 65.8353 53.2975 51.1118C53.2975 36.3884 41.3652 24.4505 26.6487 24.4505ZM26.6487 72.6001C14.8049 72.6001 5.17065 63.0055 5.17065 51.1118C5.17065 39.2624 14.7607 29.6236 26.6487 29.6236C38.4926 29.6236 48.1268 39.2181 48.1268 51.1118C48.1268 63.0055 38.4926 72.6001 26.6487 72.6001Z" fill="#25B4CB"/>
<path d="M27.2232 38.4221L26.6045 37.6262V38.9527L27.2232 38.4221Z" fill="#F8931F"/>
<path d="M27.4444 35.9022L20.5502 50.9351L27.4444 54.0743V35.9022Z" fill="white"/>
<path d="M27.4443 35.9022L34.2943 50.9351L27.4443 54.0743V35.9022Z" fill="#085261"/>
<path d="M27.4444 67.9132L20.5502 52.8803L27.4444 56.5059V67.9132Z" fill="white"/>
<path d="M27.4443 67.9132L34.2943 52.8803L27.4443 56.5059V67.9132Z" fill="#085261"/>
<path d="M68.3485 48.5721C53.0783 48.5721 40.6971 60.9619 40.6971 76.2426C40.6971 91.5233 53.0783 103.913 68.3485 103.913C83.6186 103.913 95.9998 91.5233 95.9998 76.2426C95.9998 60.9619 83.6186 48.5721 68.3485 48.5721ZM68.3485 98.5441C56.059 98.5441 46.0623 88.5864 46.0623 76.2426C46.0623 63.9446 56.0131 53.941 68.3485 53.941C80.638 53.941 90.6347 63.8987 90.6347 76.2426C90.6347 88.5864 80.638 98.5441 68.3485 98.5441Z" fill="#085261"/>
<path d="M68.7612 100.93C82.1332 100.93 92.9733 90.0826 92.9733 76.7014C92.9733 63.3202 82.1332 52.4725 68.7612 52.4725C55.3892 52.4725 44.549 63.3202 44.549 76.7014C44.549 90.0826 55.3892 100.93 68.7612 100.93Z" fill="#16B1CC"/>
<path d="M66.4227 47.0578C51.1526 47.0578 38.7714 59.4475 38.7714 74.7282C38.7714 90.0089 51.1526 102.399 66.4227 102.399C81.6929 102.399 94.0741 90.0089 94.0741 74.7282C94.0741 59.4475 81.6929 47.0578 66.4227 47.0578ZM66.4227 97.0298C54.1332 97.0298 44.1366 87.0721 44.1366 74.7282C44.1366 62.4303 54.0874 52.4267 66.4227 52.4267C78.7122 52.4267 88.7089 62.3844 88.7089 74.7282C88.7089 87.0721 78.7122 97.0298 66.4227 97.0298Z" fill="#188EA4"/>
<path d="M76.6487 77.8947C75.8691 76.977 74.7227 76.3804 73.0719 76.1051V75.9674C74.3558 75.738 75.3647 75.1873 76.0525 74.2696C76.7404 73.3977 77.1072 72.2505 77.1072 70.9198C77.1072 68.9466 76.4194 67.4782 74.9978 66.5604C74.1266 66.0097 72.9343 65.5968 71.4669 65.3673V61.0997H68.4862V65.1838C68.3487 65.1838 68.257 65.1838 68.1194 65.1838H67.7067H66.973V61.0997H63.9923V65.1838H61.2409H57.8476V68.35H61.2409V85.0532H57.8476V88.2195H61.2409H63.9923V92.3494H66.973V88.2195H68.4404V92.3494H71.421V88.1277C73.1177 87.8983 74.5393 87.3476 75.594 86.4758C77.0155 85.3286 77.7492 83.6766 77.7492 81.6116C77.7951 80.0056 77.3824 78.8125 76.6487 77.8947ZM67.7525 68.3041H68.3487C70.0453 68.3041 71.2835 68.5336 72.063 69.0383C72.8426 69.5431 73.2553 70.3232 73.2553 71.3786C73.2553 72.5717 72.8884 73.4436 72.1547 73.9025C71.421 74.4072 70.2746 74.6367 68.7155 74.6367H65.0929V68.3041H67.0188H67.7525ZM72.6133 84.0896C71.8337 84.6861 70.6415 85.0073 69.0365 85.0073H65.047V77.7112H68.8531C70.5039 77.7112 71.742 77.9865 72.5674 78.583C73.3929 79.1796 73.8056 80.0515 73.8056 81.2445C73.8056 82.5294 73.4387 83.493 72.6133 84.0896Z" fill="#085261"/>
<path d="M75.9607 77.0684C75.1811 76.1507 74.0347 75.5541 72.3839 75.2788V75.1411C73.6679 74.9117 74.6767 74.361 75.3645 73.4433C76.0524 72.5714 76.4192 71.4242 76.4192 70.0935C76.4192 68.1203 75.7314 66.6519 74.3098 65.7341C73.4386 65.1834 72.2463 64.7705 70.7789 64.541V60.2734H67.7982V64.3575C67.7065 64.3575 67.569 64.3575 67.4314 64.3575H67.0187H66.285V60.2734H63.3043V64.3575H60.5529H57.1596V67.5237H60.5529V84.2269H57.1596V87.3932H60.5529H63.3043V91.5231H66.285V87.3932H67.7524V91.5231H70.733V87.3014C72.4297 87.072 73.8513 86.5213 74.906 85.6495C76.3275 84.5023 77.0612 82.8503 77.0612 80.7853C77.1071 79.1793 76.7402 77.9403 75.9607 77.0684ZM67.0645 67.432H67.6607C69.3574 67.432 70.5955 67.6614 71.375 68.1662C72.1546 68.6709 72.5673 69.451 72.5673 70.5064C72.5673 71.6995 72.2005 72.5714 71.4668 73.0303C70.7331 73.5351 69.5866 73.7645 68.0275 73.7645H64.4049V67.432H66.3308H67.0645ZM71.9712 83.2174C71.1916 83.814 69.9993 84.1352 68.3944 84.1352H64.4049V76.839H68.211C69.8618 76.839 71.0999 77.1143 71.9253 77.7109C72.7507 78.3074 73.1634 79.1793 73.1634 80.3724C73.1634 81.7031 72.7507 82.6209 71.9712 83.2174Z" fill="white"/>
<path d="M71.4209 61.0997L70.7789 60.2278V61.6504L71.4209 61.0997Z" fill="#085261"/>
<path d="M67.0187 61.0997L66.3308 60.2278V61.6504L67.0187 61.0997Z" fill="#085261"/>
<path d="M57.2512 67.4319L57.8932 68.3038L58.8104 67.4319H57.2512Z" fill="#085261"/>
<path d="M57.2512 87.3016L57.8932 88.1735L59.0855 87.3016H57.2512Z" fill="#085261"/>
<path d="M63.396 91.4316L64.038 92.3035L64.7717 91.4316H63.396Z" fill="#085261"/>
<path d="M67.7982 91.4316L68.4861 92.3035L69.1739 91.4316H67.7982Z" fill="#085261"/>
<defs>
<linearGradient id="paint0_linear" x1="106.286" y1="133.848" x2="23.9816" y2="31.4289" gradientUnits="userSpaceOnUse">
<stop stop-color="#00212C"/>
<stop offset="1" stop-color="#00212C"/>
</linearGradient>
<linearGradient id="paint1_linear" x1="92.1015" y1="115.954" x2="28.8013" y2="38.081" gradientUnits="userSpaceOnUse">
<stop stop-color="#1A83A6"/>
<stop offset="1" stop-color="#00212C"/>
</linearGradient>
</defs>
</svg>
