<svg width="75" height="91" viewBox="0 0 75 91" fill="none" xmlns="http://www.w3.org/2000/svg">
<path d="M64.4628 70.7453C63.0011 72.2835 61.6178 73.2776 60.5273 74.0624C47.6852 83.281 32.4897 80.5944 29.2602 79.9378C24.4905 78.9699 15.2728 77.0969 8.60722 69.2542C-1.47608 57.3909 0.0928956 38.7025 7.91425 26.3656C9.34464 24.1081 16.9019 11.5855 32.2622 9.57643C41.5584 8.36002 52.3922 10.8138 60.2397 17.3903C76.7113 31.1947 75.5372 59.0834 64.4628 70.7453Z" fill="#305263"/>
<path d="M57.7508 64.1684C56.642 65.3486 55.5928 66.1113 54.7657 66.7134C45.0249 73.7864 33.499 71.7251 31.0494 71.2214C27.4316 70.4787 20.4399 69.0417 15.384 63.0244C7.7358 53.9222 8.92587 39.5836 14.8584 30.1181C15.9434 28.386 21.6756 18.778 33.3264 17.2366C40.3776 16.3033 48.5951 18.186 54.5475 23.2318C67.0413 33.8232 66.1507 55.2208 57.7508 64.1684Z" fill="url(#paint0_linear)"/>
<path d="M22.3 77.3499L23.3234 79.543C19.141 79.8252 15.0478 78.735 11.6282 76.395L11.6261 76.3936C7.77129 73.7851 5.23849 69.9008 4.44466 65.4494L4.4439 65.4453C4.37336 65.068 4.01218 64.7615 3.58069 64.8383L2.12066 65.0765L2.12064 65.0764L2.10887 65.0786C1.72915 65.1499 1.42345 65.5155 1.50273 65.9484C2.43541 71.2111 5.43112 75.7994 9.93491 78.8793L9.93515 78.8794C14.0119 81.6638 18.8982 82.9247 23.8639 82.5144L23.64 85.5312L23.64 85.5312L23.6397 85.5366C23.597 86.2096 24.4135 86.6207 24.9195 86.1216L24.9215 86.1196L30.2306 80.8219C30.2313 80.8212 30.2321 80.8205 30.2328 80.8198C30.6063 80.4515 30.4819 79.8306 30.025 79.6125L23.3045 76.3526L23.3045 76.3525L23.295 76.3481C22.6997 76.0746 21.9717 76.6729 22.3 77.3499Z" fill="#32DAF5" stroke="#32DAF5"/>
<path d="M63.2259 12.8139L63.2258 12.8138C58.7831 9.68726 53.4131 8.23393 47.934 8.62815L48.2329 5.23618L48.233 5.23498C48.2913 4.55489 47.4523 4.0956 46.926 4.61875L40.993 10.3892L40.993 10.3892L40.9917 10.3905C40.6129 10.7618 40.7025 11.3927 41.1845 11.6331C41.1846 11.6332 41.1848 11.6333 41.185 11.6334L48.5605 15.3247L48.5604 15.3248L48.5697 15.3292C49.2103 15.6335 49.8993 14.9895 49.6159 14.3217L49.616 14.3217L49.6118 14.3124L48.4827 11.7965C53.1261 11.5304 57.6508 12.791 61.4051 15.4265L61.4051 15.4265C65.6016 18.3715 68.3416 22.7036 69.1565 27.624C69.2234 28.0444 69.6096 28.3246 70.0286 28.2602C70.0293 28.2601 70.03 28.26 70.0307 28.2599L71.6573 28.0169L71.6606 28.0163C72.0643 27.9532 72.3773 27.5768 72.3088 27.137L72.3088 27.137L72.308 27.1318C71.3434 21.3369 68.1254 16.2643 63.2259 12.8139Z" fill="#7F86FF" stroke="#7F86FF"/>
<path d="M21.9823 18.4823C10.6332 18.4823 1.43115 27.7104 1.43115 39.0917C1.43115 50.473 10.6332 59.7011 21.9823 59.7011C33.3314 59.7011 42.5334 50.473 42.5334 39.0917C42.5334 27.7104 33.3314 18.4823 21.9823 18.4823ZM21.9823 55.7022C12.8485 55.7022 5.41869 48.2856 5.41869 39.0917C5.41869 29.9319 12.8144 22.4811 21.9823 22.4811C31.1161 22.4811 38.5459 29.8978 38.5459 39.0917C38.5459 48.2856 31.1161 55.7022 21.9823 55.7022Z" fill="#085261"/>
<path d="M22.3642 57.2026C32.1603 57.2026 40.1015 49.2426 40.1015 39.4234C40.1015 29.6043 32.1603 21.6443 22.3642 21.6443C12.5682 21.6443 4.62695 29.6043 4.62695 39.4234C4.62695 49.2426 12.5682 57.2026 22.3642 57.2026Z" fill="#95E6F3"/>
<path d="M20.5511 17.3544C9.202 17.3544 0 26.5825 0 37.9638C0 49.3451 9.202 58.5732 20.5511 58.5732C31.9003 58.5732 41.1023 49.3451 41.1023 37.9638C41.1023 26.5825 31.9003 17.3544 20.5511 17.3544ZM20.5511 54.5744C11.4173 54.5744 3.98753 47.1577 3.98753 37.9638C3.98753 28.8041 11.3832 21.3532 20.5511 21.3532C29.685 21.3532 37.1147 28.7699 37.1147 37.9638C37.1147 47.1577 29.685 54.5744 20.5511 54.5744Z" fill="#25B4CB"/>
<path d="M20.9942 28.1545L20.5171 27.5393V28.5647L20.9942 28.1545Z" fill="#F8931F"/>
<path d="M21.1649 26.2066L15.8481 37.8272L21.1649 40.2538V26.2066Z" fill="white"/>
<path d="M21.1646 26.2066L26.4472 37.8272L21.1646 40.2538V26.2066Z" fill="#085261"/>
<path d="M21.1649 50.9514L15.8481 39.3308L21.1649 42.1334V50.9514Z" fill="white"/>
<path d="M21.1646 50.9514L26.4472 39.3308L21.1646 42.1334V50.9514Z" fill="#085261"/>
<path d="M52.7096 36.0006C40.9335 36.0006 31.3853 45.5779 31.3853 57.39C31.3853 69.2021 40.9335 78.7794 52.7096 78.7794C64.4857 78.7794 74.034 69.2021 74.034 57.39C74.034 45.5779 64.4857 36.0006 52.7096 36.0006ZM52.7096 74.6292C43.2321 74.6292 35.5228 66.9319 35.5228 57.39C35.5228 47.8836 43.1968 40.1508 52.7096 40.1508C62.1871 40.1508 69.8964 47.8481 69.8964 57.39C69.8964 66.9319 62.1871 74.6292 52.7096 74.6292Z" fill="#085261"/>
<path d="M53.028 76.4737C63.3403 76.4737 71.7001 68.0884 71.7001 57.7446C71.7001 47.4009 63.3403 39.0156 53.028 39.0156C42.7157 39.0156 34.356 47.4009 34.356 57.7446C34.356 68.0884 42.7157 76.4737 53.028 76.4737Z" fill="#16B1CC"/>
<path d="M51.2243 34.83C39.4481 34.83 29.8999 44.4073 29.8999 56.2194C29.8999 68.0315 39.4481 77.6088 51.2243 77.6088C63.0004 77.6088 72.5486 68.0315 72.5486 56.2194C72.5486 44.4073 63.0004 34.83 51.2243 34.83ZM51.2243 73.4587C41.7468 73.4587 34.0375 65.7613 34.0375 56.2194C34.0375 46.713 41.7114 38.9802 51.2243 38.9802C60.7017 38.9802 68.411 46.6775 68.411 56.2194C68.411 65.7613 60.7017 73.4587 51.2243 73.4587Z" fill="#188EA4"/>
<path d="M59.1105 58.6671C58.5093 57.9577 57.6252 57.4966 56.3521 57.2837V57.1773C57.3423 56.9999 58.1203 56.5743 58.6507 55.8649C59.1812 55.1909 59.4641 54.3041 59.4641 53.2754C59.4641 51.7501 58.9337 50.615 57.8374 49.9056C57.1655 49.4799 56.246 49.1607 55.1144 48.9833V45.6845H52.8157V48.8415C52.7096 48.8415 52.6389 48.8415 52.5328 48.8415H52.2145H51.6487V45.6845H49.3501V48.8415H47.2282H44.6113V51.289H47.2282V64.2007H44.6113V66.6482H47.2282H49.3501V69.8407H51.6487V66.6482H52.7804V69.8407H55.079V66.5773C56.3875 66.3999 57.4837 65.9743 58.2971 65.3003C59.3934 64.4135 59.9592 63.1366 59.9592 61.5403C59.9946 60.2988 59.6763 59.3766 59.1105 58.6671ZM52.2499 51.2535H52.7096C54.0181 51.2535 54.9729 51.4309 55.5741 51.8211C56.1753 52.2113 56.4936 52.8143 56.4936 53.6301C56.4936 54.5524 56.2106 55.2264 55.6448 55.5811C55.079 55.9713 54.1949 56.1486 52.9925 56.1486H50.1988V51.2535H51.6841H52.2499ZM55.9985 63.4558C55.3973 63.9169 54.4778 64.1652 53.2401 64.1652H50.1634V58.5252H53.0986C54.3717 58.5252 55.3265 58.7381 55.9631 59.1992C56.5996 59.6603 56.9179 60.3343 56.9179 61.2566C56.9179 62.2498 56.635 62.9947 55.9985 63.4558Z" fill="#085261"/>
<path d="M58.5802 58.0284C57.979 57.319 57.0949 56.8578 55.8218 56.645V56.5386C56.812 56.3612 57.59 55.9356 58.1205 55.2262C58.6509 54.5522 58.9338 53.6654 58.9338 52.6367C58.9338 51.1114 58.4034 49.9763 57.3071 49.2669C56.6352 48.8412 55.7157 48.522 54.5841 48.3446V45.0458H52.2854V48.2028C52.2147 48.2028 52.1086 48.2028 52.0025 48.2028H51.6843H51.1184V45.0458H48.8198V48.2028H46.698H44.0811V50.6503H46.698V63.562H44.0811V66.0095H46.698H48.8198V69.202H51.1184V66.0095H52.2501V69.202H54.5487V65.9386C55.8572 65.7612 56.9535 65.3356 57.7668 64.6616C58.8631 63.7748 59.4289 62.4978 59.4289 60.9016C59.4643 59.6601 59.1814 58.7024 58.5802 58.0284ZM51.7196 50.5794H52.1794C53.4878 50.5794 54.4426 50.7567 55.0438 51.1469C55.645 51.5371 55.9633 52.1401 55.9633 52.956C55.9633 53.8782 55.6804 54.5522 55.1146 54.9069C54.5487 55.2971 53.6646 55.4745 52.4623 55.4745H49.6685V50.5794H51.1538H51.7196ZM55.5036 62.7816C54.9024 63.2428 53.9829 63.4911 52.7452 63.4911H49.6685V57.8511H52.6037C53.8768 57.8511 54.8316 58.0639 55.4682 58.525C56.1047 58.9862 56.423 59.6601 56.423 60.5824C56.423 61.6111 56.1047 62.3205 55.5036 62.7816Z" fill="white"/>
<path d="M55.0786 45.6845L54.5835 45.0105V46.1101L55.0786 45.6845Z" fill="#085261"/>
<path d="M51.6843 45.6845L51.1538 45.0105V46.1101L51.6843 45.6845Z" fill="#085261"/>
<path d="M44.1514 50.5793L44.6465 51.2533L45.3537 50.5793H44.1514Z" fill="#085261"/>
<path d="M44.1514 65.9387L44.6465 66.6127L45.5659 65.9387H44.1514Z" fill="#085261"/>
<path d="M48.8901 69.1312L49.3852 69.8052L49.9511 69.1312H48.8901Z" fill="#085261"/>
<path d="M52.2852 69.1312L52.8156 69.8052L53.3461 69.1312H52.2852Z" fill="#085261"/>
<defs>
<linearGradient id="paint0_linear" x1="71.0274" y1="88.0869" x2="22.0725" y2="28.0039" gradientUnits="userSpaceOnUse">
<stop stop-color="#1A83A6"/>
<stop offset="1" stop-color="#1B2E37"/>
</linearGradient>
</defs>
</svg>
