<svg width="24" height="24" viewBox="0 0 24 24" fill="none" xmlns="http://www.w3.org/2000/svg">
    <circle cx="12" cy="12" r="12" fill="#202020"/>
    <path
        d="M8.5107 17.5392C7.54427 18.2615 6.58801 18.9838 5.62158 19.7061C3.40896 17.8699 2 15.0977 2 12.0001C2 10.2147 2.46796 8.53619 3.29197 7.08146C4.80265 9.06518 6.29808 11.0235 7.80876 13.0021C7.3052 13.5158 6.8169 14.0296 6.30825 14.523C6.13022 14.6959 6.10479 14.8231 6.22687 15.0418C6.76095 16.0133 7.20856 16.5169 8.5107 17.5392Z"
        fill="white"/>
    <path
        d="M16.9695 3.32248C14.94 4.77721 12.936 6.21668 10.9166 7.66633C10.4232 7.1882 9.92476 6.71516 9.44154 6.23194C9.30421 6.09461 9.21265 6.09969 9.04988 6.18108C8.00207 6.72024 7.17297 7.49847 6.49647 8.50051C5.76401 7.52391 5.04173 6.56256 4.31945 5.60122C6.15567 3.39878 8.91255 2 12 2C13.8108 2 15.5046 2.47813 16.9695 3.32248Z"
        fill="white"/>
    <path
        d="M22 11.9999C22 13.7548 21.5473 15.4079 20.7538 16.8422C19.2787 14.8941 17.8088 12.9511 16.3286 10.9928C16.7711 10.5299 17.2086 10.0722 17.646 9.61437C17.9817 9.2634 17.9868 9.25831 17.7426 8.82596C17.2086 7.86971 16.4761 7.09657 15.5249 6.47602C16.4914 5.74865 17.4476 5.03654 18.4039 4.31935C20.6012 6.15048 22 8.91243 22 11.9999Z"
        fill="white"/>
    <path
        d="M19.7061 18.3733C17.8699 20.591 15.0977 22 12.0001 22C10.2096 22 8.52599 21.527 7.07126 20.7029C7.22894 20.5809 7.37136 20.469 7.51887 20.3571C9.29405 19.0295 11.0743 17.707 12.8444 16.3744C13.0021 16.2574 13.0835 16.2675 13.2208 16.3998C13.6735 16.8576 14.1465 17.295 14.5942 17.7579C14.7417 17.9105 14.8536 17.9054 15.0265 17.8138C15.9929 17.3001 16.7966 16.6033 17.4172 15.6979C17.4528 15.6419 17.4985 15.591 17.5596 15.5046C18.2717 16.4608 18.9736 17.3967 19.7061 18.3733Z"
        fill="white"/>
</svg>
