<svg id="clipper" width="24" height="24" viewBox="0 0 24 24" fill="none" xmlns="http://www.w3.org/2000/svg">
    <path d="M24 17.6579V20.4841C23.9997 21.4164 23.6293 22.3104 22.9701 22.9697C22.3109 23.629 21.4169 23.9996 20.4846 24H1.45353V17.6719H0V14.8591H8.48432V15.5623C8.48517 16.1214 8.70764 16.6574 9.10296 17.0529C9.49828 17.4483 10.0342 17.6709 10.5934 17.6719H22.5936L24 17.6579Z" fill="#D25254"/>
    <path d="M12.7035 0H11.2971V17.6719H12.7035V0Z" fill="#D25254"/>
    <path d="M15.5156 0H12.0002V4.26575H15.5156V0Z" fill="#E2C159"/>
    <path d="M12.0003 0H8.43774V4.26575H12.0003V0Z" fill="#E2C159"/>
    <path d="M21.1642 5.62495H12.0002V12.7688H21.1642V5.62495Z" fill="#E2C159"/>
    <path d="M12.0002 5.62495H2.8363V12.7688H12.0002V5.62495Z" fill="#E2C159"/>
</svg>
