<svg width="24" height="24" viewBox="0 0 24 24" fill="none" xmlns="http://www.w3.org/2000/svg">
    <path d="M12 0L1 6.06498V18.0217L12 24L23 18.0217V5.97834L12 0ZM12 0L1 6.06498V18.0217L12 24L23 18.0217V5.97834L12 0Z" fill="white"/>
    <path d="M12 0L1 6.06498V18.0217L12 24L23 18.0217V5.97834L12 0ZM7.6 5.19856H16.3083L17.3167 9.3574H6.68333L7.6 5.19856ZM11.175 17.6751L9.25 19.4079H7.69167L3.75 12.8231L6.68333 10.7437L9.25 12.3899V15.1625L11.175 16.8953C11.175 16.8087 11.175 17.6751 11.175 17.6751ZM9.89167 14.9892L10.1667 12.3899L9.25 10.0505H14.8417L13.925 12.3899L14.2 14.9892H9.89167ZM16.4 19.3213H14.8417L12.9167 17.6751V16.8087L14.8417 15.0758V12.3032L17.4083 10.7437L20.3417 12.8231L16.4 19.3213Z" fill="#002D74"/>
    <path d="M12 0V5.19856H16.3083L17.3167 9.3574H12V9.9639H14.8417L13.925 12.3032L14.2 14.9025H12V24L23 18.0217V5.97834L12 0ZM16.4 19.3213H14.8417L12.9167 17.6751V16.8087L14.8417 15.0758V12.3032L17.4083 10.7437L20.3417 12.8231L16.4 19.3213Z" fill="url(#paint0_linear)"/>
    <path d="M9.89167 14.9892L10.1667 12.3899L9.25 10.0505H12V9.44404H6.68333L7.69167 5.19856H12V0L1 6.06498V18.0217L12 24V14.9892H9.89167ZM11.175 17.6751L9.25 19.4079H7.69167L3.75 12.8231L6.68333 10.7437L9.25 12.3899V15.1625L11.175 16.8953V17.6751Z" fill="url(#paint1_linear)"/>
    <defs>
        <linearGradient id="paint0_linear" x1="17.5005" y1="21.469" x2="17.5005" y2="2.53971" gradientUnits="userSpaceOnUse">
            <stop stop-color="#001B45"/>
            <stop offset="1" stop-color="#002D74" stop-opacity="0"/>
        </linearGradient>
        <linearGradient id="paint1_linear" x1="6.50046" y1="21.4687" x2="6.50046" y2="2.53943" gradientUnits="userSpaceOnUse">
            <stop stop-color="#002D74" stop-opacity="0"/>
            <stop offset="1" stop-color="#001B45"/>
        </linearGradient>
    </defs>
</svg>
