<svg id="shiba" width="24" height="24" viewBox="0 0 24 24" fill="none" xmlns="http://www.w3.org/2000/svg">
    <path d="M1.45177 13.0077L1.20081 15.8938L8.17767 18.5038L22.1816 17.0984L22.5078 15.1911L22.1816 12.6563L21.002 9.79532L21.8302 6.2065L22.3824 2.76826L22.1816 1.08679L21.8302 0.384084L21.3534 0.183311L20.5252 0.384084L19.1951 1.08679L17.4634 2.5173L15.8572 4.32425L15.1796 4.14858L12.7202 3.79722H10.4866L7.9518 4.32425L6.22013 2.5173L4.71433 1.08679L2.98267 0.183311H2.25486L1.70274 0.810727L1.45177 2.21614L1.70274 5.15244L2.25486 8.13894L2.68151 9.79532L1.45177 13.0077Z" fill="#FDA207"/>
    <path d="M6.74715 4.92657C5.29154 5.70456 3.48459 8.26442 3.48459 8.26442C3.48459 8.26442 1.47686 2.11575 2.85717 2.06555C4.23749 2.01536 6.74715 4.92657 6.74715 4.92657Z" fill="#FD9200"/>
    <path fill-rule="evenodd" clip-rule="evenodd" d="M5.83677 5.58305C4.63331 6.63706 3.48459 8.26442 3.48459 8.26442C3.48459 8.26442 2.27223 4.55157 2.37939 2.87264C2.3959 2.87063 2.41294 2.86929 2.43052 2.86865C3.84517 2.81721 5.58127 5.21814 5.83677 5.58305Z" fill="#FD8300"/>
    <path d="M16.861 4.92657C18.3166 5.70456 20.1236 8.26442 20.1236 8.26442C20.1236 8.26442 22.1313 2.11575 20.751 2.06555C19.3707 2.01536 16.861 4.92657 16.861 4.92657Z" fill="#FD9200"/>
    <path fill-rule="evenodd" clip-rule="evenodd" d="M17.7714 5.58305C18.9748 6.63706 20.1236 8.26442 20.1236 8.26442C20.1236 8.26442 21.3359 4.55157 21.2288 2.87264C21.2123 2.87063 21.1952 2.86929 21.1776 2.86865C19.763 2.81721 18.0269 5.21814 17.7714 5.58305Z" fill="#FD8300"/>
    <path d="M7.27421 17.4749C4.08694 14.388 1.15063 15.8185 1.15063 15.8185L1.47689 17.1737L2.30508 18.6544L3.83597 20.2606L6.77228 22.3436L9.78387 23.5483L12.0677 23.8745L14.3264 23.5483L17.5889 22.3436L20.1739 20.2606L21.9306 18.0772L22.533 15.8185C19.1198 14.6641 16.3592 17.4749 16.3592 17.4749C16.3592 17.4749 15.4306 13.8359 11.9171 13.8359C8.40356 13.8359 7.27421 17.4749 7.27421 17.4749Z" fill="white"/>
    <path d="M5.86877 9.87061C5.86877 10.5332 6.70533 10.6821 7.12361 10.6737C7.58371 10.6402 8.50392 10.4328 8.50392 9.87061C8.50392 9.1679 7.72592 8.66597 7.12361 8.66597C6.77225 8.66597 5.86877 9.04242 5.86877 9.87061Z" fill="white"/>
    <path d="M6.14476 11.3011C5.46213 11.0803 5.37513 11.7779 5.41696 12.1544C5.42436 12.3803 5.49225 12.6061 5.8185 12.8822C6.14476 13.1583 9.583 14.5386 9.583 13.7104C9.583 12.8822 6.99805 11.5772 6.14476 11.3011Z" fill="black"/>
    <path d="M17.7645 9.87061C17.7645 10.5332 16.928 10.6821 16.5097 10.6737C16.0496 10.6402 15.1294 10.4328 15.1294 9.87061C15.1294 9.1679 15.9074 8.66597 16.5097 8.66597C16.861 8.66597 17.7645 9.04242 17.7645 9.87061Z" fill="white"/>
    <path d="M17.7394 11.3011C18.422 11.0803 18.509 11.7779 18.4672 12.1544C18.4598 12.3803 18.3919 12.6061 18.0657 12.8822C17.7394 13.1583 14.3012 14.5386 14.3012 13.7104C14.3012 12.8822 16.8861 11.5772 17.7394 11.3011Z" fill="black"/>
    <path d="M12.0425 18.1525V18.7548L11.6159 19.2065H10.612L10.2104 19.056H9.40735L9.7587 19.8842H9.98457L10.361 20.7876L10.4865 20.5618V19.5077C10.7124 19.5412 11.3599 19.6081 12.1429 19.6081C12.9259 19.6081 13.657 19.5077 13.9247 19.4575V20.5116L14.1004 20.7876L14.4518 19.8842H14.6525L14.9035 19.056H14.0251L13.9247 19.2065H12.9711L12.4691 18.8301V18.3533C12.4691 17.9517 12.6197 17.9517 13.1718 17.6506C13.724 17.3494 13.6738 16.722 13.6738 16.0695C13.6738 15.5475 13.2722 15.4337 13.0715 15.4421H11.3147C10.7124 15.4421 10.5869 15.7934 10.5869 15.944C10.5869 16.0946 10.4614 17.249 11.1641 17.5502C11.7263 17.7911 11.9839 18.0521 12.0425 18.1525Z" fill="black"/>
    <path d="M13.0715 19.8842L11.1139 19.834L11.3649 20.1853L11.666 20.0598L12.1429 20.4614L12.5695 20.0598L12.8205 20.1853L13.0715 19.8842Z" fill="black"/>
    <path fill-rule="evenodd" clip-rule="evenodd" d="M15.7568 4.14858C15.7568 4.14858 12.0927 2.71807 8.00196 4.14858C8.00196 4.14858 4.16217 -0.686252 2.12935 0.0829264C0.0965217 0.852106 2.53089 9.66983 2.53089 9.66983C2.42912 9.94813 2.31072 10.2367 2.18568 10.5414L2.18553 10.5418C1.65287 11.8399 1 13.4311 1 15.7683C1 18.6544 6.32048 24 11.8417 24C17.363 24 22.7086 19.332 22.7086 15.7683C22.7086 12.2046 21.1526 9.66983 21.1526 9.66983C21.1526 9.66983 23.8379 0.609954 21.5792 0.0829264C19.3205 -0.444099 15.7568 4.14858 15.7568 4.14858ZM2.86087 9.79051L2.89952 9.68482L2.86958 9.57633L2.80352 9.59457C2.86958 9.57633 2.86958 9.57633 2.86958 9.57633L2.86799 9.57057L2.86301 9.55231C2.85858 9.53604 2.852 9.5117 2.84346 9.47979C2.82638 9.41597 2.80149 9.32189 2.77048 9.20167C2.70843 8.9612 2.62192 8.61633 2.52438 8.19991C2.3291 7.36629 2.09045 6.24954 1.91506 5.11132C1.73897 3.96848 1.62988 2.82377 1.68518 1.927C1.71289 1.47744 1.78083 1.11266 1.88843 0.848056C1.99569 0.584284 2.12451 0.46042 2.25369 0.411543C2.61409 0.275172 3.11604 0.370732 3.73896 0.703576C4.34712 1.02854 4.9926 1.53836 5.59058 2.08635C6.18582 2.63183 6.72063 3.20269 7.10748 3.63842C7.3006 3.85595 7.45615 4.03901 7.56313 4.16732C7.6166 4.23147 7.6579 4.28188 7.68565 4.31603C7.69952 4.33311 7.71 4.34611 7.71692 4.35473L7.72461 4.36432L7.7264 4.36657L7.72678 4.36705L7.72681 4.36709L7.88216 4.56269L8.11793 4.48024C10.0982 3.78776 11.9793 3.78658 13.3697 3.96077C14.0642 4.04777 14.6335 4.17818 15.0274 4.28625C15.2243 4.34026 15.3771 4.3886 15.4795 4.42299C15.5307 4.44018 15.5693 4.45388 15.5945 4.46304C15.6071 4.46762 15.6164 4.47107 15.6221 4.47325L15.6282 4.47556L15.629 4.47587L15.6292 4.47595L15.6293 4.47599L15.8735 4.57132L16.0344 4.36396L16.0347 4.36353L16.0364 4.36144L16.0434 4.35243C16.0485 4.34596 16.0557 4.33683 16.0649 4.32521L16.0724 4.31585C16.0981 4.2835 16.1365 4.23566 16.1863 4.17469C16.2861 4.05272 16.4316 3.87838 16.6134 3.67052C16.9776 3.25417 17.4847 2.70638 18.0592 2.17637C18.6359 1.64439 19.2691 1.14104 19.8852 0.804105C20.5105 0.462092 21.0611 0.322818 21.4994 0.425088C21.6481 0.459785 21.7807 0.56439 21.8925 0.797887C22.0079 1.03903 22.0835 1.38613 22.115 1.82822C22.1778 2.70925 22.0596 3.85806 21.8664 5.01618C21.674 6.16875 21.4113 7.30763 21.1962 8.16001C21.0888 8.58576 20.9934 8.93904 20.925 9.18558C20.8908 9.30884 20.8633 9.40536 20.8445 9.47087C20.8351 9.50362 20.8278 9.52861 20.823 9.54531L20.8161 9.56866L20.8158 9.56974L20.8157 9.56999L20.7712 9.72016L20.853 9.85339L20.8531 9.85349L20.8531 9.85365L20.8534 9.85402L20.8558 9.85804L20.8608 9.86649C20.8626 9.86946 20.8646 9.87293 20.867 9.87689C20.8771 9.89423 20.8926 9.92101 20.9126 9.95688C20.9526 10.0286 21.0108 10.1367 21.0811 10.278C21.2218 10.5609 21.4107 10.9766 21.6 11.5018C21.979 12.5532 22.3572 14.0369 22.3572 15.7683C22.3572 17.3926 21.1193 19.3603 19.1269 20.9456C17.1493 22.5191 14.5076 23.6486 11.8417 23.6486C9.18928 23.6486 6.5561 22.3605 4.5764 20.6974C3.58923 19.8681 2.7763 18.9551 2.21285 18.0816C1.64437 17.2003 1.35135 16.393 1.35135 15.7683C1.35135 13.5066 1.97382 11.9872 2.50431 10.6922C2.63178 10.3811 2.75393 10.0829 2.86087 9.79051Z" fill="black"/>
</svg>
