<svg width="24" height="24" viewBox="0 0 24 24" fill="none" xmlns="http://www.w3.org/2000/svg">
    <g clip-path="url(#clip0)">
        <path d="M5.0475 2.2679L23.5615 14.9867L18.9487 21.7426L0.434708 9.02385L5.0475 2.2679Z"
              fill="url(#paint0_linear)"/>
        <path d="M23.5651 14.9814C21.9813 17.3011 16.5529 16.3343 11.4404 12.8221C6.32789 9.3099 3.46731 4.58227 5.0511 2.26263C6.63488 -0.0570018 12.0633 0.90976 17.1758 4.42196C22.2883 7.93415 25.1489 12.6618 23.5651 14.9814Z"
              fill="url(#paint1_linear)"/>
        <path d="M18.9523 21.7374C17.3685 24.057 11.9401 23.0902 6.8276 19.578C1.7151 16.0658 -1.14548 11.3382 0.438306 9.01858C2.02209 6.69895 7.45051 7.66571 12.563 11.1779C17.6755 14.6901 20.5361 19.4177 18.9523 21.7374Z"
              fill="url(#paint2_linear)"/>
        <path d="M23.5652 14.9814C23.564 14.9831 23.5628 14.9849 23.5616 14.9866L18.9504 21.7403L18.9488 21.7426C17.3604 24.0555 11.9363 23.0875 6.82772 19.578C5.81594 18.8829 4.89236 18.1402 4.07397 17.378C4.7457 17.2438 5.71701 16.8321 6.62362 15.8301C8.19602 14.0924 9.04421 13.777 9.74675 13.8106C10.4493 13.8443 11.25 14.5027 12.5078 16.1874C13.7655 17.8721 15.6141 18.3523 16.6849 17.4622C16.778 17.3848 16.8645 17.3143 16.9462 17.2477C17.8043 16.5485 18.1276 16.285 19.8832 13.0944C20.3043 12.3431 21.6558 10.9981 23.6228 11.6368C24.1291 12.9564 24.146 14.1308 23.5652 14.9814Z"
              fill="#0E0F23"/>
        <path fill-rule="evenodd" clip-rule="evenodd"
              d="M22.8531 14.5774C21.4978 16.5623 16.5558 15.5311 11.8147 12.274C7.07355 9.01696 4.32878 4.76749 5.68404 2.78256C7.0393 0.797629 11.9814 1.82889 16.7225 5.08594C21.4636 8.34299 24.2084 12.5925 22.8531 14.5774ZM18.5277 11.5982C17.858 12.579 15.4145 12.0685 13.0701 10.4579C10.7257 8.84728 9.36801 6.74653 10.0377 5.7657C10.7074 4.78488 13.1508 5.2954 15.4952 6.90599C17.8397 8.51657 19.1973 10.6173 18.5277 11.5982Z"
              fill="white"/>
        <path d="M4.61953 4.6453C4.59332 4.54279 4.48923 4.481 4.38703 4.50729C4.28483 4.53358 4.22323 4.63799 4.24944 4.7405C4.30681 4.96489 4.37417 5.19115 4.45124 5.4188C4.48517 5.51901 4.59366 5.57265 4.69356 5.53862C4.79346 5.50459 4.84694 5.39577 4.81302 5.29556C4.73893 5.07674 4.67437 4.85982 4.61953 4.6453Z"
              fill="white"/>
        <path d="M5.14878 6.1552C5.10604 6.05844 4.9932 6.01475 4.89674 6.05762C4.80028 6.10049 4.75673 6.21368 4.79946 6.31043C5.91343 8.83259 8.15395 11.4623 11.1943 13.5509C11.2813 13.6107 11.4002 13.5884 11.4598 13.5011C11.5194 13.4138 11.4972 13.2945 11.4102 13.2347C8.41617 11.1779 6.22859 8.60001 5.14878 6.1552Z"
              fill="white"/>
        <path d="M17.2094 16.0142C17.1079 15.9856 17.0024 16.0449 16.9738 16.1468C16.9453 16.2487 17.0044 16.3545 17.106 16.3831C17.4534 16.4811 17.7975 16.566 18.1372 16.6377C18.2405 16.6595 18.3418 16.5932 18.3635 16.4897C18.3852 16.3861 18.3191 16.2845 18.2159 16.2627C17.8847 16.1928 17.5489 16.11 17.2094 16.0142Z"
              fill="white"/>
        <path d="M18.9949 16.4046C18.8906 16.3886 18.7932 16.4606 18.7773 16.5652C18.7614 16.6698 18.8331 16.7675 18.9374 16.7834C19.7789 16.9118 20.5879 16.955 21.3461 16.9105C21.4514 16.9043 21.5318 16.8137 21.5257 16.708C21.5195 16.6024 21.4291 16.5217 21.3238 16.5279C20.5955 16.5707 19.8134 16.5294 18.9949 16.4046Z"
              fill="white"/>
    </g>
    <defs>
        <linearGradient id="paint0_linear" x1="6.51086" y1="1.116" x2="10.1995" y2="13.7823"
                        gradientUnits="userSpaceOnUse">
            <stop stop-color="#03B8FF"/>
            <stop offset="1" stop-color="#FA52A0"/>
        </linearGradient>
        <linearGradient id="paint1_linear" x1="6.51086" y1="1.116" x2="10.1995" y2="13.7823"
                        gradientUnits="userSpaceOnUse">
            <stop stop-color="#03B8FF"/>
            <stop offset="1" stop-color="#FA52A0"/>
        </linearGradient>
        <linearGradient id="paint2_linear" x1="6.51086" y1="1.116" x2="10.1995" y2="13.7823"
                        gradientUnits="userSpaceOnUse">
            <stop stop-color="#03B8FF"/>
            <stop offset="1" stop-color="#FA52A0"/>
        </linearGradient>
        <clipPath id="clip0">
            <rect width="24" height="24" fill="white" transform="translate(0.00170898)"/>
        </clipPath>
    </defs>
</svg>
