<svg width="19" height="15" viewBox="0 0 19 15" fill="none" xmlns="http://www.w3.org/2000/svg">
<path d="M4.75 10H7.6C7.85196 10 8.09359 9.89464 8.27175 9.70711C8.44991 9.51957 8.55 9.26522 8.55 9C8.55 8.73478 8.44991 8.48043 8.27175 8.29289C8.09359 8.10536 7.85196 8 7.6 8H4.75C4.49804 8 4.25641 8.10536 4.07825 8.29289C3.90009 8.48043 3.8 8.73478 3.8 9C3.8 9.26522 3.90009 9.51957 4.07825 9.70711C4.25641 9.89464 4.49804 10 4.75 10ZM16.15 0H2.85C2.09413 0 1.36922 0.316071 0.834746 0.87868C0.300267 1.44129 0 2.20435 0 3V12C0 12.7956 0.300267 13.5587 0.834746 14.1213C1.36922 14.6839 2.09413 15 2.85 15H16.15C16.9059 15 17.6308 14.6839 18.1653 14.1213C18.6997 13.5587 19 12.7956 19 12V3C19 2.20435 18.6997 1.44129 18.1653 0.87868C17.6308 0.316071 16.9059 0 16.15 0ZM17.1 12C17.1 12.2652 16.9999 12.5196 16.8218 12.7071C16.6436 12.8946 16.402 13 16.15 13H2.85C2.59804 13 2.35641 12.8946 2.17825 12.7071C2.00009 12.5196 1.9 12.2652 1.9 12V6H17.1V12ZM17.1 4H1.9V3C1.9 2.73478 2.00009 2.48043 2.17825 2.29289C2.35641 2.10536 2.59804 2 2.85 2H16.15C16.402 2 16.6436 2.10536 16.8218 2.29289C16.9999 2.48043 17.1 2.73478 17.1 3V4Z" fill="white"/>
</svg>
