<svg width="4" height="16" viewBox="0 0 4 16" fill="none" xmlns="http://www.w3.org/2000/svg">
<path d="M2 6C1.46957 6 0.96086 6.21072 0.585787 6.58579C0.210715 6.96086 6.46346e-07 7.46957 6.46346e-07 8V14C6.46346e-07 14.5304 0.210715 15.0391 0.585787 15.4142C0.96086 15.7893 1.46957 16 2 16C2.53043 16 3.03914 15.7893 3.41421 15.4142C3.78929 15.0391 4 14.5304 4 14V8C4 7.46957 3.78929 6.96086 3.41421 6.58579C3.03914 6.21072 2.53043 6 2 6ZM2 0C1.60444 0 1.21776 0.117299 0.888859 0.337061C0.559961 0.556824 0.303616 0.869181 0.152241 1.23463C0.0008659 1.60009 -0.0387399 2.00222 0.0384306 2.39018C0.115601 2.77814 0.306083 3.13451 0.585787 3.41421C0.865492 3.69392 1.22186 3.8844 1.60982 3.96157C1.99778 4.03874 2.39992 3.99913 2.76537 3.84776C3.13082 3.69638 3.44318 3.44004 3.66294 3.11114C3.8827 2.78224 4 2.39556 4 2C4 1.46957 3.78929 0.96086 3.41421 0.585787C3.03914 0.210714 2.53043 0 2 0Z" fill="#378C9C"/>
</svg>
