<svg width="16" height="18" viewBox="0 0 16 18" fill="none" xmlns="http://www.w3.org/2000/svg">
<path fill-rule="evenodd" clip-rule="evenodd" d="M1.00068 10.4297V10.2545C1.02714 9.73616 1.19814 9.23395 1.49606 8.79965C1.99194 8.27794 2.3314 7.63861 2.47882 6.94875C2.47882 6.41558 2.47882 5.87478 2.52676 5.3416C2.77445 2.77472 5.38717 1 7.96793 1H8.03185C10.6126 1 13.2253 2.77472 13.481 5.3416C13.5289 5.87478 13.481 6.41558 13.521 6.94875C13.6704 7.64021 14.0095 8.28152 14.5037 8.80726C14.8039 9.23773 14.9751 9.73809 14.9991 10.2545V10.422C15.0169 11.1184 14.77 11.7974 14.304 12.3339C13.6881 12.9611 12.8523 13.3514 11.9549 13.4307C9.32341 13.7049 6.66838 13.7049 4.03687 13.4307C3.14047 13.3479 2.30592 12.9583 1.68782 12.3339C1.22894 11.797 0.985375 11.122 1.00068 10.4297Z" stroke="#378C9C" stroke-width="2" stroke-linecap="round" stroke-linejoin="round"/>
<path d="M5.98511 16.0814C6.39627 16.5827 7.00007 16.9072 7.66288 16.9829C8.32568 17.0587 8.99283 16.8795 9.51667 16.4851C9.67779 16.3684 9.82276 16.2328 9.94813 16.0814" stroke="#378C9C" stroke-width="2" stroke-linecap="round" stroke-linejoin="round"/>
</svg>
