<svg width="9" height="16" viewBox="0 0 9 16" fill="none" xmlns="http://www.w3.org/2000/svg">
<path d="M3.21217 13.2637C3.14465 13.3397 3.08174 13.4199 3.02378 13.5037C2.96436 13.5929 2.91685 13.6897 2.88249 13.7917C2.83722 13.8824 2.80547 13.9794 2.78829 14.0797C2.78059 14.1862 2.78059 14.2931 2.78829 14.3997C2.78298 14.6095 2.826 14.8178 2.91388 15.0076C2.98439 15.2062 3.09688 15.3865 3.24338 15.5358C3.38989 15.6851 3.56682 15.7998 3.76163 15.8716C3.94955 15.9563 4.15275 16 4.3582 16C4.56366 16 4.76685 15.9563 4.95476 15.8716C5.14958 15.7998 5.32651 15.6851 5.47302 15.5358C5.61952 15.3865 5.73201 15.2062 5.80252 15.0076C5.87223 14.8131 5.90422 14.6066 5.89671 14.3997C5.89791 14.1891 5.8583 13.9804 5.78018 13.7854C5.70205 13.5905 5.58694 13.4132 5.44144 13.2637C5.29549 13.1137 5.12186 12.9947 4.93055 12.9135C4.73924 12.8322 4.53405 12.7904 4.3268 12.7904C4.11955 12.7904 3.91436 12.8322 3.72305 12.9135C3.53174 12.9947 3.35811 13.1137 3.21217 13.2637ZM4.3268 9.86821e-07C3.49956 -0.000539548 2.68677 0.220989 1.97023 0.642294C1.25368 1.0636 0.658658 1.66982 0.245037 2.39994C0.131448 2.58205 0.0551786 2.78569 0.0208147 2.99861C-0.0135492 3.21154 -0.00529678 3.42935 0.0450766 3.63893C0.0954499 3.84852 0.186903 4.04556 0.313933 4.2182C0.440963 4.39083 0.600946 4.5355 0.784256 4.64348C0.967567 4.75147 1.17042 4.82055 1.38061 4.84657C1.59079 4.87259 1.80397 4.85501 2.00732 4.79489C2.21067 4.73477 2.39998 4.63335 2.56387 4.49673C2.72776 4.36011 2.86284 4.19111 2.96098 3.99991C3.0993 3.75575 3.29846 3.55317 3.53831 3.41269C3.77816 3.2722 4.05017 3.19881 4.3268 3.19993C4.74317 3.19993 5.14248 3.36849 5.43689 3.66854C5.73131 3.9686 5.89671 4.37555 5.89671 4.79989C5.89671 5.22423 5.73131 5.63118 5.43689 5.93123C5.14248 6.23128 4.74317 6.39985 4.3268 6.39985C3.91044 6.39985 3.51112 6.56842 3.21671 6.86847C2.92229 7.16852 2.75689 7.57548 2.75689 7.99981V9.59978C2.75689 10.0241 2.92229 10.4311 3.21671 10.7311C3.51112 11.0312 3.91044 11.1997 4.3268 11.1997C4.74317 11.1997 5.14248 11.0312 5.43689 10.7311C5.73131 10.4311 5.89671 10.0241 5.89671 9.59978V9.31178C6.935 8.92782 7.80785 8.18417 8.36268 7.21082C8.91751 6.23747 9.11901 5.09635 8.93197 3.98693C8.74493 2.87751 8.18124 1.87039 7.33945 1.1416C6.49765 0.412812 5.4313 0.00873417 4.3268 9.86821e-07Z" fill="#378C9C"/>
</svg>
