<svg width="205" height="71" viewBox="0 0 205 71" fill="none" xmlns="http://www.w3.org/2000/svg">
<path d="M54.8766 58.6359H46.2068L68.5966 12.3604H77.2664L54.8766 58.6359Z" fill="#E3E8F4"/>
<path d="M86.0502 55.9752H92.307L90.9866 58.6359H76.1169L98.5068 12.3604H107.177L86.0502 55.9752Z" fill="#E3E8F4"/>
<path d="M152.074 12.364H156.668L134.222 35.9052L139.617 58.636H132.844L128.25 38.6807L118.605 58.636H109.935L132.325 12.364H140.994L129.798 35.5C129.798 35.5 129.798 35.5574 129.855 35.6147C129.912 35.6721 130.026 35.5574 130.026 35.5574L152.074 12.364Z" fill="#E3E8F4"/>
<path d="M191.846 37.44C192.02 37.7304 192.077 38.0173 192.077 38.2504C192.077 38.4834 192.02 38.6556 192.02 38.6556L185.835 51.059C183.998 54.7596 179.98 58.636 175.788 58.636H167.463C164.477 58.636 160.345 56.1474 160.345 52.9093C160.345 52.0416 160.69 50.826 161.438 49.2661L163.217 45.5655H171.887L168.499 52.5651C168.267 53.0851 168.153 53.4903 168.153 53.8381C168.153 55.2832 168.844 55.9788 170.278 55.9788H172.631C174.182 55.9788 175.215 55.2258 175.962 53.666L183.18 38.8886L172.289 28.2135C172.175 27.9805 172.118 27.751 172.118 27.5179C172.118 27.2274 172.232 26.9979 172.232 26.9979L177.4 16.2977C178.492 14.0996 181.877 12.364 184.116 12.364H194.049C197.32 12.364 201.224 15.1395 201.224 18.148C201.224 18.9011 200.822 20.1131 200.074 21.7339L198.295 25.4345H189.568L193.013 18.4349C193.184 17.9723 193.302 17.5098 193.302 17.1045C193.302 15.7168 192.611 15.0212 191.177 15.0212H188.938C187.504 15.0212 186.354 15.7742 185.607 17.2767L180.955 26.7039L191.846 37.44Z" fill="#E3E8F4"/>
<path d="M35.2842 37.44C35.4585 37.7304 35.5155 38.0173 35.5155 38.2504C35.5155 38.4834 35.4585 38.6556 35.4585 38.6556L29.273 51.059C27.4365 54.7596 23.4184 58.636 19.2258 58.636H10.9013C7.91523 58.636 3.7832 56.1474 3.7832 52.9093C3.7832 52.0416 4.12843 50.826 4.87582 49.2661L6.65534 45.5655H15.3251L11.9369 52.5651C11.7056 53.0851 11.5917 53.4903 11.5917 53.8381C11.5917 55.2832 12.2822 55.9788 13.7164 55.9788H16.069C17.6207 55.9788 18.6528 55.2258 19.4002 53.666L26.6179 38.8886L15.7273 28.2135C15.6134 27.9805 15.5565 27.751 15.5565 27.5179C15.5565 27.2274 15.6704 26.9979 15.6704 26.9979L20.8381 16.2977C21.9307 14.0996 25.3153 12.364 27.5539 12.364H37.4872C40.7579 12.364 44.6622 15.1395 44.6622 18.148C44.6622 18.9011 44.26 20.1131 43.5126 21.7339L41.7331 25.4345H33.0028L36.448 18.4349C36.6224 17.9723 36.7362 17.5098 36.7362 17.1045C36.7362 15.7168 36.0458 15.0212 34.6115 15.0212H32.3729C30.9386 15.0212 29.789 15.7742 29.0416 17.2767L24.39 26.7075L35.2842 37.44Z" fill="#E3E8F4"/>
<path d="M177.535 37.8523L174.414 34.9227L167.694 28.6152L164.025 25.1691C165.292 24.6277 165.829 23.1682 166.114 21.7482C166.353 20.5649 166.167 19.6146 166.1 19.3278C166.086 19.2704 166.075 19.2381 166.075 19.2381L165.925 19.4282L161.423 25.1763L160.284 23.9069L158.142 24.3516L157.074 24.5739L145.212 27.0445L142.027 27.7079C142.027 27.7079 130.698 30.573 122.523 30.573L72.5045 30.7989L121.434 31.7133C129.139 31.7133 133.976 32.4699 136.813 33.1728L134.218 35.8944L134.432 36.7909C131.207 37.673 126.488 38.4619 119.9 38.4619L40.2847 38.695L112.494 40.0433C124.495 40.0433 131.762 41.431 135.823 42.6466L136.72 46.4225L140.176 44.4144C140.183 44.418 140.187 44.4216 140.187 44.4216V44.4109L148.846 39.3727L149.024 39.2687L155.601 35.4426C155.821 32.4664 156.928 30.5551 157.807 29.4758C158.427 28.7156 158.932 28.3677 158.932 28.3677C158.43 29.257 158.06 30.0889 157.807 30.8635C157.338 32.2942 157.259 33.5278 157.455 34.5713C157.975 37.3288 160.405 38.7237 162.562 38.7775C163.324 38.7954 164 38.6054 164.587 38.3113C165.452 37.8774 166.128 37.2212 166.587 36.6582C166.95 36.2136 167.185 35.8299 167.274 35.6685C167.274 35.6685 166.516 37.4543 167.449 38.9711C167.62 39.2508 167.844 39.5197 168.143 39.7672C168.666 40.1975 170.285 40.5059 171.655 40.6887C172.285 40.7748 172.641 41.4597 172.353 42.0299C172.243 42.2486 172.399 42.5068 172.645 42.5068H174.962C175.684 42.5068 176.346 42.1016 176.681 41.4561L177.788 39.3154C178.04 38.8348 177.937 38.2288 177.535 37.8523Z" fill="#4583FF"/>
</svg>
