<svg width="238" height="34" viewBox="0 0 238 34" fill="none" xmlns="http://www.w3.org/2000/svg">
<g clip-path="url(#clip0_3014_27326)">
<path d="M36.6456 33.2929H30.5402L46.3077 0.704491H52.4131L36.6456 33.2929Z" fill="white"/>
<path d="M58.5986 31.4191H63.0048L62.075 33.2929H51.6034L67.3709 0.704491H73.4764L58.5986 31.4191Z" fill="white"/>
<path d="M105.094 0.707108H108.33L92.5223 17.2854L96.322 33.293H91.5524L88.3167 19.2399L81.5244 33.293H75.4189L91.1864 0.707108H97.2919L89.4069 17C89.4069 17 89.4069 17.0404 89.447 17.0808C89.4871 17.1212 89.5673 17.0404 89.5673 17.0404L105.094 0.707108Z" fill="white"/>
<path d="M133.103 18.3662C133.226 18.5707 133.266 18.7728 133.266 18.9369C133.266 19.101 133.226 19.2223 133.226 19.2223L128.87 27.9571C127.576 30.5632 124.747 33.293 121.794 33.293H115.932C113.829 33.293 110.919 31.5404 110.919 29.2601C110.919 28.649 111.162 27.793 111.689 26.6945L112.942 24.0884H119.047L116.661 29.0177C116.498 29.3839 116.418 29.6692 116.418 29.9142C116.418 30.9319 116.904 31.4218 117.914 31.4218H119.571C120.664 31.4218 121.391 30.8915 121.917 29.793L127 19.3864L119.33 11.8687C119.25 11.7046 119.21 11.543 119.21 11.3788C119.21 11.1743 119.29 11.0127 119.29 11.0127L122.93 3.47731C123.699 1.92933 126.083 0.707108 127.659 0.707108H134.654C136.958 0.707108 139.707 2.66165 139.707 4.78034C139.707 5.31064 139.424 6.16418 138.898 7.30559L137.644 9.91165H131.499L133.925 4.98236C134.045 4.6566 134.128 4.33085 134.128 4.04549C134.128 3.06822 133.642 2.57832 132.632 2.57832H131.055C130.045 2.57832 129.236 3.10862 128.709 4.1667L125.433 10.8056L133.103 18.3662Z" fill="white"/>
<path d="M22.8481 18.3662C22.9709 18.5707 23.011 18.7728 23.011 18.9369C23.011 19.101 22.9709 19.2223 22.9709 19.2223L18.6148 27.9571C17.3216 30.5632 14.4919 33.293 11.5394 33.293H5.67702C3.57419 33.293 0.664307 31.5404 0.664307 29.2601C0.664307 28.649 0.907423 27.793 1.43376 26.6945L2.68694 24.0884H8.79242L6.40637 29.0177C6.24346 29.3839 6.16325 29.6692 6.16325 29.9142C6.16325 30.9319 6.64949 31.4218 7.65955 31.4218H9.31625C10.409 31.4218 11.1359 30.8915 11.6622 29.793L16.7451 19.3864L9.07564 11.8687C8.99544 11.7046 8.95534 11.543 8.95534 11.3788C8.95534 11.1743 9.03554 11.0127 9.03554 11.0127L12.6748 3.47731C13.4442 1.92933 15.8278 0.707108 17.4043 0.707108H24.3995C26.7029 0.707108 29.4523 2.66165 29.4523 4.78034C29.4523 5.31064 29.1691 6.16418 28.6428 7.30559L27.3896 9.91165H21.2415L23.6677 4.98236C23.7905 4.6566 23.8707 4.33085 23.8707 4.04549C23.8707 3.06822 23.3844 2.57832 22.3744 2.57832H20.7979C19.7878 2.57832 18.9783 3.10862 18.4519 4.1667L15.1761 10.8081L22.8481 18.3662Z" fill="white"/>
<path d="M123.025 18.6566L120.827 16.5934L116.095 12.1515L113.511 9.72475C114.403 9.34344 114.781 8.31566 114.982 7.31566C115.15 6.48232 115.019 5.81313 114.972 5.61111C114.962 5.57071 114.954 5.54798 114.954 5.54798L114.849 5.68182L111.678 9.7298L110.876 8.83586L109.368 9.14899L108.616 9.30556L100.262 11.0455L98.0189 11.5126C98.0189 11.5126 90.0411 13.5303 84.284 13.5303L49.0597 13.6894L83.5171 14.3333C88.9433 14.3333 92.3495 14.8662 94.347 15.3611L92.5199 17.2778L92.6703 17.9091C90.3995 18.5303 87.0761 19.0859 82.4368 19.0859L26.3696 19.25L77.2211 20.1995C85.6725 20.1995 90.7905 21.1768 93.6503 22.0328L94.2819 24.6919L96.7155 23.2778C96.7206 23.2803 96.7231 23.2828 96.7231 23.2828V23.2753L102.821 19.7273L102.946 19.654L107.578 16.9596C107.733 14.8636 108.513 13.5177 109.132 12.7576C109.568 12.2222 109.924 11.9773 109.924 11.9773C109.571 12.6035 109.31 13.1894 109.132 13.7348C108.801 14.7424 108.746 15.6111 108.884 16.346C109.25 18.2879 110.962 19.2702 112.481 19.3081C113.017 19.3207 113.493 19.1869 113.907 18.9798C114.516 18.6742 114.992 18.2121 115.315 17.8157C115.571 17.5025 115.736 17.2323 115.799 17.1187C115.799 17.1187 115.265 18.3763 115.922 19.4444C116.042 19.6414 116.2 19.8308 116.41 20.0051C116.779 20.3081 117.919 20.5253 118.884 20.654C119.328 20.7146 119.579 21.197 119.376 21.5985C119.298 21.7525 119.408 21.9343 119.581 21.9343H121.213C121.721 21.9343 122.188 21.649 122.423 21.1944L123.203 19.6869C123.381 19.3485 123.308 18.9217 123.025 18.6566Z" fill="#4583FF"/>
</g>
<path d="M167.175 8H163.35L150.5 28H151.775L154.175 24.3H158.325L157.175 28H160.95L167.175 8ZM160.45 14.575C160.55 14.45 160.65 14.4 160.775 14.4C161 14.4 161.25 14.6 161.25 14.85C161.25 14.85 161.25 14.9 161.225 14.975L158.675 23.15H154.95L160.45 14.575ZM184.125 8H177.7L167.95 28H176.175C178 28 179.775 26.325 180.55 24.725L186.75 12.05C187.075 11.375 187.25 10.8 187.25 10.5C187.25 9.2 185.55 8 184.125 8ZM176.25 25.85C175.925 26.525 175.475 26.85 174.8 26.85H173.775C173.15 26.85 172.85 26.55 172.85 25.925C172.85 25.775 172.9 25.6 173 25.375L180.45 10.125C180.775 9.475 181.275 9.15 181.9 9.15H182.875C183.5 9.15 183.8 9.45 183.8 10.05C183.8 10.225 183.75 10.425 183.675 10.625L176.25 25.85ZM198.67 16.625C198.545 16.625 198.17 16.525 198.27 16.1L200.145 8H196.245L186.47 28H187.745L194.345 14.575C194.445 14.45 194.52 14.4 194.645 14.4C194.87 14.4 195.145 14.6 195.195 14.85V14.975L192.045 28H194.02L203.92 14.575C204.02 14.425 204.145 14.4 204.27 14.4C204.495 14.4 204.745 14.625 204.67 14.85C204.67 14.85 204.645 14.9 204.62 14.975L198.195 28H199.47L209.345 8H205.445L199.145 16.35C199.045 16.5 198.895 16.625 198.67 16.625ZM220.992 8H217.217L207.467 28H211.242L220.992 8ZM236.029 8L231.754 16.75C231.654 16.975 231.379 17.05 231.154 17.05C230.804 17.05 230.579 16.75 230.629 16.425L231.829 8H228.779L219.004 28H220.279L226.879 14.575C226.979 14.45 227.054 14.4 227.179 14.4C227.404 14.4 227.679 14.6 227.729 14.85L225.729 28H227.504L237.304 8H236.029Z" fill="#3EE5E5"/>
<defs>
<clipPath id="clip0_3014_27326">
<rect width="140" height="34" fill="white"/>
</clipPath>
</defs>
</svg>
