<svg width="90" height="21" viewBox="0 0 90 21" fill="none" xmlns="http://www.w3.org/2000/svg">
<path d="M23.2901 20.7722H19.3381L29.5441 0H33.4961L23.2901 20.7722Z" fill="#201F33"/>
<path d="M37.5 19.5779H40.3521L39.7502 20.7722H32.9721L43.1781 0H47.1301L37.5 19.5779Z" fill="#201F33"/>
<path d="M67.5958 0.00161743H69.6902L59.4582 10.5688L61.9176 20.7722H58.8303L56.7359 11.8147L52.3394 20.7722H48.3875L58.5935 0.00161743H62.5455L57.4416 10.3869C57.4416 10.3869 57.4416 10.4127 57.4676 10.4384C57.4935 10.4642 57.5455 10.4127 57.5455 10.4127L67.5958 0.00161743Z" fill="#201F33"/>
<path d="M85.7251 11.2577C85.8046 11.3881 85.8306 11.5169 85.8306 11.6215C85.8306 11.7261 85.8047 11.8034 85.8047 11.8034L82.9851 17.3711C82.1479 19.0322 80.3163 20.7722 78.4052 20.7722H74.6106C73.2495 20.7722 71.366 19.6552 71.366 18.2017C71.366 17.8121 71.5233 17.2665 71.864 16.5663L72.6752 14.9051H76.6272L75.0827 18.0471C74.9773 18.2805 74.9253 18.4624 74.9253 18.6186C74.9253 19.2672 75.2401 19.5795 75.8939 19.5795H76.9662C77.6736 19.5795 78.144 19.2415 78.4847 18.5413L81.7748 11.908L76.8105 7.11616C76.7586 7.01154 76.7326 6.90852 76.7326 6.8039C76.7326 6.67352 76.7845 6.5705 76.7845 6.5705L79.1401 1.76738C79.6382 0.780677 81.181 0.00161743 82.2015 0.00161743H86.7294C88.2203 0.00161743 90 1.24747 90 2.59794C90 2.93597 89.8166 3.48002 89.476 4.20757L88.6648 5.8687H84.6869L86.2573 2.72671C86.3351 2.51907 86.3887 2.31143 86.3887 2.12954C86.3887 1.50662 86.0739 1.19435 85.4202 1.19435H84.3997C83.7459 1.19435 83.2219 1.53237 82.8812 2.20681L80.7608 6.43851L85.7251 11.2577Z" fill="#201F33"/>
<path d="M14.3592 11.2579C14.4387 11.3882 14.4646 11.517 14.4646 11.6216C14.4646 11.7263 14.4387 11.8035 14.4387 11.8035L11.6191 17.3712C10.782 19.0323 8.95035 20.7724 7.03926 20.7724H3.24464C1.88352 20.7724 0 19.6553 0 18.2018C0 17.8123 0.157365 17.2666 0.498053 16.5664L1.30921 14.9053H5.26119L3.71674 18.0473C3.61129 18.2807 3.55938 18.4625 3.55938 18.6187C3.55938 19.2674 3.87411 19.5796 4.5279 19.5796H5.60026C6.30759 19.5796 6.77806 19.2416 7.11875 18.5414L10.4088 11.9081L5.44451 7.11629C5.3926 7.01166 5.36664 6.90864 5.36664 6.80402C5.36664 6.67364 5.41856 6.57062 5.41856 6.57062L7.77417 1.7675C8.27222 0.780799 9.81505 0.0017395 10.8355 0.0017395H15.3634C16.8543 0.0017395 18.634 1.24759 18.634 2.59807C18.634 2.93609 18.4507 3.48014 18.11 4.20769L17.2988 5.86883H13.3193L14.8897 2.72684C14.9692 2.51919 15.0211 2.31155 15.0211 2.12967C15.0211 1.50674 14.7064 1.19447 14.0526 1.19447H13.0321C12.3783 1.19447 11.8543 1.53249 11.5136 2.20693L9.39325 6.44024L14.3592 11.2579Z" fill="#201F33"/>
<path d="M79.2018 11.4428L77.779 10.1278L74.7161 7.29642L73.0435 5.74957C73.621 5.50652 73.866 4.8514 73.9958 4.21399C74.1045 3.68281 74.0201 3.25626 73.9893 3.12749C73.9828 3.10174 73.9779 3.08725 73.9779 3.08725L73.9098 3.17256L71.8576 5.75279L71.3384 5.18298L70.3618 5.38258L69.8751 5.48237L64.4679 6.59141L63.0159 6.88919C63.0159 6.88919 57.852 8.17528 54.1256 8.17528L31.3254 8.27668L53.6291 8.68714C57.1415 8.68714 59.3462 9.02677 60.6392 9.34226L59.4565 10.564L59.5539 10.9664C58.084 11.3623 55.9328 11.7165 52.9299 11.7165L16.6385 11.8211L49.5539 12.4263C55.0243 12.4263 58.3371 13.0492 60.1882 13.5949L60.597 15.2898L62.1723 14.3884C62.1755 14.39 62.1772 14.3917 62.1772 14.3917V14.3868L66.1243 12.1253L66.2054 12.0786L69.2034 10.3611C69.304 9.02516 69.8086 8.16723 70.2093 7.68273C70.4916 7.34149 70.7219 7.18536 70.7219 7.18536C70.4932 7.58454 70.3245 7.95798 70.2093 8.30566C69.9951 8.9479 69.9594 9.50161 70.0487 9.97001C70.2855 11.2078 71.3936 11.834 72.3767 11.8581C72.7239 11.8662 73.0321 11.7808 73.2998 11.6489C73.694 11.4541 74.0023 11.1595 74.2115 10.9068C74.377 10.7072 74.4841 10.535 74.5246 10.4626C74.5246 10.4626 74.1791 11.2642 74.6041 11.945C74.682 12.0706 74.7842 12.1913 74.9205 12.3024C75.159 12.4955 75.8971 12.6339 76.5217 12.716C76.8089 12.7547 76.9711 13.0621 76.8397 13.318C76.7894 13.4162 76.8608 13.5321 76.9727 13.5321H78.0289C78.3582 13.5321 78.6599 13.3502 78.8124 13.0605L79.317 12.0995C79.4322 11.8839 79.3851 11.6118 79.2018 11.4428Z" fill="#4583FF"/>
</svg>
