<svg xmlns="http://www.w3.org/2000/svg" xmlns:xlink="http://www.w3.org/1999/xlink" viewBox="0 0 610 631"><defs><style>.cls-1{fill:url(#radial-gradient);}.cls-2{fill:url(#radial-gradient-2);}.cls-3{fill:url(#radial-gradient-3);}.cls-4{fill:url(#radial-gradient-4);}.cls-5{fill:url(#radial-gradient-5);}.cls-6{fill:url(#radial-gradient-9);}.cls-7{fill:none;}.cls-8{isolation:isolate;}.cls-9{fill:url(#Nouvelle_nuance_de_dégradé_1_11);}.cls-10,.cls-35{fill:#42e8e0;}.cls-11{fill:url(#Nouvelle_nuance_de_dégradé_1_2);}.cls-12,.cls-25,.cls-45{mix-blend-mode:lighten;}.cls-12{fill:url(#Nouvelle_nuance_de_dégradé_1_11-2);}.cls-13,.cls-21{fill:#fff;}.cls-14{fill:url(#Nouvelle_nuance_de_dégradé_1_11-3);}.cls-15{fill:url(#Nouvelle_nuance_de_dégradé_1_7);}.cls-16{fill:#1e6672;}.cls-17{fill:#bcbeff;}.cls-18{fill:#23abd8;}.cls-19{fill:#96ccca;opacity:0.47;}.cls-19,.cls-22{mix-blend-mode:multiply;}.cls-20{clip-path:url(#clip-path);}.cls-21{opacity:0.67;}.cls-22{opacity:0.26;fill:url(#radial-gradient-13);}.cls-23{fill:#19212c;}.cls-24{fill:url(#Nouvelle_nuance_de_dégradé_1_11-4);}.cls-26{fill:url(#Nouvelle_nuance_de_dégradé_1_11-5);}.cls-27{fill:url(#Dégradé_sans_nom_7);}.cls-28{fill:url(#radial-gradient-14);}.cls-29{mask:url(#mask);}.cls-30{fill:#00ff3c;}.cls-30,.cls-35{mix-blend-mode:screen;}.cls-31{fill:url(#radial-gradient-16);}.cls-32{mask:url(#mask-2);}.cls-33{fill:url(#radial-gradient-18);}.cls-34{mask:url(#mask-3);}.cls-36{fill:url(#radial-gradient-20);}.cls-37{mask:url(#mask-7);}.cls-38{fill:url(#radial-gradient-22);}.cls-39{mask:url(#mask-8);}.cls-40{fill:url(#radial-gradient-24);}.cls-41{mask:url(#mask-9);}.cls-42{fill:url(#Nouvelle_nuance_de_dégradé_1_11-6);}.cls-43{fill:url(#Nouvelle_nuance_de_dégradé_1_11-7);}.cls-44{fill:url(#Nouvelle_nuance_de_dégradé_1_4);}.cls-45{fill:url(#Nouvelle_nuance_de_dégradé_1_11-8);}</style><radialGradient id="radial-gradient" cx="-531.91" cy="1745.83" r="7.2" gradientTransform="matrix(0.62, 1.13, 0.48, -0.26, -267.33, 1256.51)" gradientUnits="userSpaceOnUse"><stop offset="0.07" stop-color="#fff"/><stop offset="0.16" stop-color="#cfcfcf"/><stop offset="0.29" stop-color="#999"/><stop offset="0.41" stop-color="#6a6a6a"/><stop offset="0.53" stop-color="#444"/><stop offset="0.65" stop-color="#262626"/><stop offset="0.77" stop-color="#111"/><stop offset="0.88" stop-color="#040404"/><stop offset="0.99"/></radialGradient><radialGradient id="radial-gradient-2" cx="-535.43" cy="1750.32" r="7.2" gradientTransform="matrix(0, 1.29, 0.55, 0, -714.46, 880.97)" xlink:href="#radial-gradient"/><radialGradient id="radial-gradient-3" cx="-517.98" cy="1779.86" r="7.2" gradientTransform="matrix(0, 1.29, 0.55, 0, -705.68, 870.47)" xlink:href="#radial-gradient"/><radialGradient id="radial-gradient-4" cx="-521.6" cy="1784.46" r="7.2" xlink:href="#radial-gradient"/><radialGradient id="radial-gradient-5" cx="-539.05" cy="1754.91" r="7.2" xlink:href="#radial-gradient"/><radialGradient id="radial-gradient-9" cx="-514.47" cy="1775.37" r="7.2" xlink:href="#radial-gradient"/><linearGradient id="Nouvelle_nuance_de_dégradé_1_11" x1="44.69" y1="8.5" x2="100.39" y2="8.5" gradientTransform="translate(169.7 250.45)" gradientUnits="userSpaceOnUse"><stop offset="0" stop-color="#f7f7f7"/><stop offset="0.55" stop-color="#f2f2f9"/><stop offset="1" stop-color="#e9e9fd"/></linearGradient><radialGradient id="Nouvelle_nuance_de_dégradé_1_2" cx="-2363.05" cy="-2436.26" r="53.83" gradientTransform="matrix(0.74, 0.55, -0.9, 1.22, -224.82, 4548.94)" gradientUnits="userSpaceOnUse"><stop offset="0" stop-color="#2bb675"/><stop offset="1" stop-color="#23abd8"/></radialGradient><linearGradient id="Nouvelle_nuance_de_dégradé_1_11-2" x1="-3106.35" y1="-970.12" x2="-3131.55" y2="-936.47" gradientTransform="matrix(0.74, 0.55, -0.68, 0.92, 1837.15, 2914.23)" xlink:href="#Nouvelle_nuance_de_dégradé_1_11"/><linearGradient id="Nouvelle_nuance_de_dégradé_1_11-3" x1="238.36" y1="307.83" x2="382.17" y2="307.83" gradientTransform="matrix(1, 0, 0, 1, 0, 0)" xlink:href="#Nouvelle_nuance_de_dégradé_1_11"/><linearGradient id="Nouvelle_nuance_de_dégradé_1_7" x1="261.19" y1="252.82" x2="359.34" y2="252.82" gradientUnits="userSpaceOnUse"><stop offset="0" stop-color="#42e8e0"/><stop offset="0.18" stop-color="#41e3dd"/><stop offset="0.38" stop-color="#3cd5d3"/><stop offset="0.61" stop-color="#35bdc3"/><stop offset="0.84" stop-color="#2c9cad"/><stop offset="1" stop-color="#24819b"/></linearGradient><clipPath id="clip-path"><path id="SVGID" class="cls-7" d="M545.65,301.8c0,131.1-106.27,237.37-237.37,237.37S70.9,432.89,70.9,301.8,177.18,64.42,308.28,64.42,545.65,170.7,545.65,301.8Z"/></clipPath><radialGradient id="radial-gradient-13" cx="-1684.21" cy="200.37" r="36.47" gradientTransform="matrix(0, 1.27, -0.99, 0, 547.93, 2658.58)" gradientUnits="userSpaceOnUse"><stop offset="0"/><stop offset="1" stop-color="#fff" stop-opacity="0"/></radialGradient><linearGradient id="Nouvelle_nuance_de_dégradé_1_11-4" x1="235.78" y1="184.2" x2="382.45" y2="184.2" gradientTransform="matrix(1, 0, 0, 1, 0, 0)" xlink:href="#Nouvelle_nuance_de_dégradé_1_11"/><linearGradient id="Nouvelle_nuance_de_dégradé_1_11-5" x1="299.59" y1="258.78" x2="320.01" y2="113.51" gradientTransform="matrix(1, 0, 0, 1, 0, 0)" xlink:href="#Nouvelle_nuance_de_dégradé_1_11"/><linearGradient id="Dégradé_sans_nom_7" x1="236" y1="190.2" x2="329.83" y2="190.2" gradientUnits="userSpaceOnUse"><stop offset="0" stop-color="#00acbf"/><stop offset="0.29" stop-color="#04a7bb"/><stop offset="0.63" stop-color="#1099af"/><stop offset="1" stop-color="#24819b"/><stop offset="1" stop-color="#24819b"/></linearGradient><radialGradient id="radial-gradient-14" cx="-2099.77" cy="195.84" r="1.59" gradientTransform="matrix(-1, 0, 0, 1, -1853.18, 0)" gradientUnits="userSpaceOnUse"><stop offset="0" stop-color="#fff"/><stop offset="1" stop-color="#95fda8"/></radialGradient><mask id="mask" x="240.95" y="187.47" width="11.27" height="16.75" maskUnits="userSpaceOnUse"><path class="cls-1" d="M251,204c-1.92,1-5.46-1.76-7.91-6.27s-2.89-9-1-10,5.46,1.76,7.91,6.26S252.94,203,251,204Z"/></mask><radialGradient id="radial-gradient-16" cx="-2099.77" cy="190.68" r="1.59" xlink:href="#radial-gradient-14"/><mask id="mask-2" x="240.95" y="182.31" width="11.27" height="16.75" maskUnits="userSpaceOnUse"><ellipse class="cls-2" cx="246.59" cy="190.68" rx="3.95" ry="9.29" transform="translate(-61.16 141.14) rotate(-28.57)"/></mask><radialGradient id="radial-gradient-18" cx="-2099.75" cy="185.38" r="1.59" xlink:href="#radial-gradient-14"/><mask id="mask-3" x="240.93" y="177" width="11.27" height="16.75" maskUnits="userSpaceOnUse"><path class="cls-5" d="M251,193.53c-1.92,1-5.46-1.76-7.91-6.27s-2.89-9-1-10,5.46,1.76,7.91,6.26S252.92,192.49,251,193.53Z"/></mask><radialGradient id="radial-gradient-20" cx="-2124.77" cy="207.84" r="1.59" xlink:href="#radial-gradient-14"/><mask id="mask-7" x="265.95" y="199.47" width="11.27" height="16.75" maskUnits="userSpaceOnUse"><path class="cls-6" d="M276,216c-1.92,1-5.46-1.76-7.91-6.27s-2.89-9-1-10,5.46,1.76,7.91,6.26S277.94,215,276,216Z"/></mask><radialGradient id="radial-gradient-22" cx="-2124.77" cy="202.68" r="1.59" xlink:href="#radial-gradient-14"/><mask id="mask-8" x="265.95" y="194.31" width="11.27" height="16.75" maskUnits="userSpaceOnUse"><ellipse class="cls-3" cx="271.59" cy="202.68" rx="3.95" ry="9.29" transform="translate(-63.86 154.56) rotate(-28.57)"/></mask><radialGradient id="radial-gradient-24" cx="-2124.75" cy="197.38" r="1.59" xlink:href="#radial-gradient-14"/><mask id="mask-9" x="265.93" y="189" width="11.27" height="16.75" maskUnits="userSpaceOnUse"><path class="cls-4" d="M276,205.53c-1.92,1-5.46-1.76-7.91-6.27s-2.89-9-1-10,5.46,1.76,7.91,6.26S277.92,204.49,276,205.53Z"/></mask><linearGradient id="Nouvelle_nuance_de_dégradé_1_11-6" x1="-136.12" y1="-319.28" x2="-80.42" y2="-319.28" gradientTransform="translate(66.79 387.83) rotate(90)" xlink:href="#Nouvelle_nuance_de_dégradé_1_11"/><linearGradient id="Nouvelle_nuance_de_dégradé_1_11-7" x1="-126.33" y1="-298.85" x2="-88.48" y2="-339.72" gradientTransform="translate(67.64 387.13) rotate(90)" xlink:href="#Nouvelle_nuance_de_dégradé_1_11"/><radialGradient id="Nouvelle_nuance_de_dégradé_1_4" cx="366.73" cy="-1580.82" r="21.05" gradientTransform="matrix(0.91, 0.11, -0.18, 1.5, -206.85, 2710.22)" gradientUnits="userSpaceOnUse"><stop offset="0" stop-color="#2bb675"/><stop offset="1" stop-color="#14444f"/></radialGradient><linearGradient id="Nouvelle_nuance_de_dégradé_1_11-8" x1="335.94" y1="336.23" x2="377.98" y2="336.23" gradientTransform="matrix(0.91, 0.11, -0.14, 1.14, 130.9, -44.85)" xlink:href="#Nouvelle_nuance_de_dégradé_1_11"/></defs><title>logo_green_1</title><g class="cls-8"><g id="Calque_1" data-name="Calque 1"><circle class="cls-9" cx="242.25" cy="258.95" r="27.85" transform="translate(-54.21 64.39) rotate(-13.63)"/><path class="cls-10" d="M192.94,327.88a4.48,4.48,0,0,1-5.44-6.8L227,269.63a4.48,4.48,0,0,1,7.11,5.46l-39.55,51.46A4.46,4.46,0,0,1,192.94,327.88Z"/><path class="cls-11" d="M200.87,342.62c-7.92,10.72-30.47,26.73-39,20.4s.09-32.59,8-43.32,21.28-14.28,29.85-8S208.79,331.9,200.87,342.62Z"/><path class="cls-12" d="M200.87,342.62c-7.92,10.72-30.47,26.73-39,20.4s.09-32.59,8-43.32,21.28-14.28,29.85-8S208.79,331.9,200.87,342.62Z"/><polygon class="cls-13" points="321.97 403.24 333.37 536.25 283.97 536.25 295.65 403.24 321.97 403.24"/><path class="cls-14" d="M382.17,294c0,54.06-32.19,97.89-71.91,97.89S238.36,348.08,238.36,294s32.19-70.26,71.91-70.26S382.17,240,382.17,294Z"/><path class="cls-15" d="M345,272.86c-19.16,11.06-50.24,11.06-69.4,0s-19.17-29,0-40.07,50.24-11.06,69.4,0S364.13,261.79,345,272.86Z"/><path class="cls-16" d="M275.56,240.34c19.16-11.06,50.24-11.06,69.4,0,7.92,4.57,12.55,10.31,13.93,16.26,2-8.45-2.68-17.31-13.93-23.81-19.17-11.07-50.24-11.07-69.4,0-11.25,6.49-15.89,15.36-13.93,23.81C263,250.65,267.65,244.91,275.56,240.34Z"/><path class="cls-17" d="M288.86,148.14c0,13.2-9.27,29.25-20.7,35.85s-20.7,1.25-20.7-11.95,9.27-29.25,20.7-35.85S288.86,134.94,288.86,148.14Z"/><polygon class="cls-18" points="330.92 403.24 287.49 403.24 291.09 388.5 327.32 388.5 330.92 403.24"/><polygon class="cls-19" points="327.37 388.5 316.49 388.5 318.29 403.24 330.97 403.24 327.37 388.5"/><polygon class="cls-19" points="291.04 388.5 301.92 388.5 300.12 403.24 287.44 403.24 291.04 388.5"/><g class="cls-20"><path class="cls-21" d="M516.09,643.83l-.84.72c-3.5,2.93-8.58-.71-6.37-4.92,2.91-5.54,7-10,11-14.7,4.42-5.21,8.62-10.61,13.09-15.78,8.93-10.34,18.22-20.36,27.51-30.37,10.81-11.64,21.87-23.14,33.35-34.19a71.34,71.34,0,0,0-89.32-25.3,98.29,98.29,0,0,0-130-58.74,98.28,98.28,0,0,0-181.74,20.1A69.72,69.72,0,0,0,115.91,483,69.76,69.76,0,0,0-6.72,511.9a69.55,69.55,0,0,0-27.09-5.46,69.44,69.44,0,0,0-33.79,8.73A111.61,111.61,0,0,0-170.42,447,111.58,111.58,0,0,0-282,558.58,111.58,111.58,0,0,0-170.42,670.17,111.37,111.37,0,0,0-82,626.63,69.51,69.51,0,0,0-33.81,646a69.78,69.78,0,0,0,68.2-55,69.8,69.8,0,0,0,67.33-7.34,69.74,69.74,0,0,0,115.07-9.11,98.24,98.24,0,0,0,108,22.95,98.24,98.24,0,0,0,151.58,28.08A71.54,71.54,0,0,0,512,651.79Q514,647.86,516.09,643.83Z"/><circle class="cls-13" cx="363.94" cy="509.18" r="38.48"/><circle class="cls-13" cx="260.94" cy="514.55" r="46.81"/><ellipse class="cls-22" cx="348.77" cy="525.89" rx="43.78" ry="47.3" transform="translate(-269.71 400.64) rotate(-45)"/><circle class="cls-13" cx="323.79" cy="545.31" r="45.7"/></g><path class="cls-23" d="M301.07,166.31c-.64,4.62.2,11,9.2,15.57,18.4,9.42,33-4.85,42.24,1.7,7.09,5,3.69,19.81-13.26,25.52-18.05,6.08-40.46,1.85-41.85-16a108.54,108.54,0,0,1,1.72-20.42A31.34,31.34,0,0,1,301.07,166.31Z"/><path class="cls-24" d="M309.12,110.86a73.36,73.36,0,0,0-70.24,52.23h0c2.84.82,3.86,3.45,3.49,6.15-.88,6.39-2.3,12.67-2.27,19.15a4.57,4.57,0,0,1-3.76,4.7,73.33,73.33,0,1,0,72.78-82.23Z"/><g class="cls-25"><path class="cls-26" d="M309.33,112.74a73.37,73.37,0,0,0-70,51.54,4.82,4.82,0,0,1,3.61,6c-1.81,7-4,15.06-1.93,22.2.94,3.28-1.31,5.56-3.9,6.07a73.33,73.33,0,1,0,72.26-85.81Z"/></g><path class="cls-16" d="M330.36,192.08c-.05-.45-.1-.91-.15-1.36,0,0-.23-1.2-.27-1.35-.2-.78-.46-1.49-.65-2.22-.69,6.61-4.35,13.33-11.14,19.15-16.9,14.5-46.66,18-66.47,7.84-7.4-3.8-12.34-9-14.78-14.72.54,2.47.92,5,1.68,7.42a36.25,36.25,0,0,0,3.16,6.91c.38.56.82,1.14,1.3,1.75a35.77,35.77,0,0,0,9.63,7.05c19.81,10.17,49.57,6.67,66.47-7.84C327.13,207.86,330.8,199.78,330.36,192.08Z"/><path class="cls-27" d="M324.25,180c-14.79-10.49-38.18,12.37-67.64-2.72-12.5-6.4-15.17-14.87-15-21.84a67.94,67.94,0,0,0-3.3,9.65A176.22,176.22,0,0,0,236,195.18c2.22,28.6,38.1,35.37,67,25.64C330.16,211.68,335.61,188,324.25,180Z"/><path class="cls-28" d="M247.27,197.64c.42,0,.66-.34.66-.92a3.18,3.18,0,0,0-1.43-2.5,1.2,1.2,0,0,0-.59-.19c-.42,0-.67.34-.67.92a3.2,3.2,0,0,0,1.44,2.5A1.23,1.23,0,0,0,247.27,197.64Z"/><g class="cls-29"><path class="cls-30" d="M251,204c-1.92,1-5.46-1.76-7.91-6.27s-2.89-9-1-10,5.46,1.76,7.91,6.26S252.94,203,251,204Z"/></g><path class="cls-28" d="M247.27,197.64c.42,0,.66-.34.66-.92a3.18,3.18,0,0,0-1.43-2.5,1.2,1.2,0,0,0-.59-.19c-.42,0-.67.34-.67.92a3.2,3.2,0,0,0,1.44,2.5A1.23,1.23,0,0,0,247.27,197.64Z"/><path class="cls-31" d="M247.27,192.48c.42,0,.66-.34.66-.91a3.18,3.18,0,0,0-1.43-2.5,1.21,1.21,0,0,0-.59-.19c-.42,0-.67.34-.67.92a3.2,3.2,0,0,0,1.44,2.5A1.22,1.22,0,0,0,247.27,192.48Z"/><g class="cls-32"><ellipse class="cls-30" cx="246.59" cy="190.68" rx="3.95" ry="9.29" transform="translate(-61.16 141.14) rotate(-28.57)"/></g><path class="cls-31" d="M247.27,192.48c.42,0,.66-.34.66-.91a3.18,3.18,0,0,0-1.43-2.5,1.21,1.21,0,0,0-.59-.19c-.42,0-.67.34-.67.92a3.2,3.2,0,0,0,1.44,2.5A1.22,1.22,0,0,0,247.27,192.48Z"/><path class="cls-33" d="M247.25,187.18c.42,0,.66-.35.66-.92a3.19,3.19,0,0,0-1.43-2.5,1.21,1.21,0,0,0-.59-.19c-.42,0-.67.34-.67.92a3.19,3.19,0,0,0,1.44,2.5A1.22,1.22,0,0,0,247.25,187.18Z"/><g class="cls-34"><path class="cls-30" d="M251,193.53c-1.92,1-5.46-1.76-7.91-6.27s-2.89-9-1-10,5.46,1.76,7.91,6.26S252.92,192.49,251,193.53Z"/></g><path class="cls-33" d="M247.25,187.18c.42,0,.66-.35.66-.92a3.19,3.19,0,0,0-1.43-2.5,1.21,1.21,0,0,0-.59-.19c-.42,0-.67.34-.67.92a3.19,3.19,0,0,0,1.44,2.5A1.22,1.22,0,0,0,247.25,187.18Z"/><g class="cls-29"><path class="cls-35" d="M251,204c-1.92,1-5.46-1.76-7.91-6.27s-2.89-9-1-10,5.46,1.76,7.91,6.26S252.94,203,251,204Z"/></g><g class="cls-32"><ellipse class="cls-35" cx="246.59" cy="190.68" rx="3.95" ry="9.29" transform="translate(-61.16 141.14) rotate(-28.57)"/></g><g class="cls-34"><path class="cls-35" d="M251,193.53c-1.92,1-5.46-1.76-7.91-6.27s-2.89-9-1-10,5.46,1.76,7.91,6.26S252.92,192.49,251,193.53Z"/></g><path class="cls-36" d="M272.27,209.64c.42,0,.66-.34.66-.92a3.18,3.18,0,0,0-1.43-2.5,1.2,1.2,0,0,0-.59-.19c-.42,0-.67.34-.67.92a3.2,3.2,0,0,0,1.44,2.5A1.23,1.23,0,0,0,272.27,209.64Z"/><g class="cls-37"><path class="cls-30" d="M276,216c-1.92,1-5.46-1.76-7.91-6.27s-2.89-9-1-10,5.46,1.76,7.91,6.26S277.94,215,276,216Z"/></g><path class="cls-36" d="M272.27,209.64c.42,0,.66-.34.66-.92a3.18,3.18,0,0,0-1.43-2.5,1.2,1.2,0,0,0-.59-.19c-.42,0-.67.34-.67.92a3.2,3.2,0,0,0,1.44,2.5A1.23,1.23,0,0,0,272.27,209.64Z"/><path class="cls-38" d="M272.27,204.48c.42,0,.66-.34.66-.91a3.18,3.18,0,0,0-1.43-2.5,1.21,1.21,0,0,0-.59-.19c-.42,0-.67.34-.67.92a3.2,3.2,0,0,0,1.44,2.5A1.22,1.22,0,0,0,272.27,204.48Z"/><g class="cls-39"><ellipse class="cls-30" cx="271.59" cy="202.68" rx="3.95" ry="9.29" transform="translate(-63.86 154.56) rotate(-28.57)"/></g><path class="cls-38" d="M272.27,204.48c.42,0,.66-.34.66-.91a3.18,3.18,0,0,0-1.43-2.5,1.21,1.21,0,0,0-.59-.19c-.42,0-.67.34-.67.92a3.2,3.2,0,0,0,1.44,2.5A1.22,1.22,0,0,0,272.27,204.48Z"/><path class="cls-40" d="M272.25,199.18c.42,0,.66-.35.66-.92a3.19,3.19,0,0,0-1.43-2.5,1.21,1.21,0,0,0-.59-.19c-.42,0-.67.34-.67.92a3.19,3.19,0,0,0,1.44,2.5A1.22,1.22,0,0,0,272.25,199.18Z"/><g class="cls-41"><path class="cls-30" d="M276,205.53c-1.92,1-5.46-1.76-7.91-6.27s-2.89-9-1-10,5.46,1.76,7.91,6.26S277.92,204.49,276,205.53Z"/></g><path class="cls-40" d="M272.25,199.18c.42,0,.66-.35.66-.92a3.19,3.19,0,0,0-1.43-2.5,1.21,1.21,0,0,0-.59-.19c-.42,0-.67.34-.67.92a3.19,3.19,0,0,0,1.44,2.5A1.22,1.22,0,0,0,272.25,199.18Z"/><g class="cls-37"><path class="cls-35" d="M276,216c-1.92,1-5.46-1.76-7.91-6.27s-2.89-9-1-10,5.46,1.76,7.91,6.26S277.94,215,276,216Z"/></g><g class="cls-39"><ellipse class="cls-35" cx="271.59" cy="202.68" rx="3.95" ry="9.29" transform="translate(-63.86 154.56) rotate(-28.57)"/></g><g class="cls-41"><path class="cls-35" d="M276,205.53c-1.92,1-5.46-1.76-7.91-6.27s-2.89-9-1-10,5.46,1.76,7.91,6.26S277.92,204.49,276,205.53Z"/></g><rect class="cls-10" x="395.95" y="276.75" width="8.96" height="76.51" transform="translate(-88.93 173.24) rotate(-22.04)"/><circle class="cls-42" cx="386.08" cy="279.54" r="27.85" transform="translate(36.87 603.98) rotate(-78.8)"/><g class="cls-25"><circle class="cls-43" cx="386.93" cy="279.71" r="27.85" transform="translate(37.39 604.95) rotate(-78.8)"/></g><path class="cls-44" d="M430.5,371.82c-1.58,13.23-13.27,38.3-23.85,37s-16-28.37-14.46-41.61,11.43-22.94,22-21.68S432.08,358.59,430.5,371.82Z"/><path class="cls-45" d="M430.5,371.82c-1.58,13.23-13.27,38.3-23.85,37s-16-28.37-14.46-41.61,11.43-22.94,22-21.68S432.08,358.59,430.5,371.82Z"/></g></g></svg>