<svg width="66" height="69" viewBox="0 0 66 69" fill="none" xmlns="http://www.w3.org/2000/svg">
<path d="M28.2714 0.721226C21.861 1.46511 15.7952 4.03241 10.7873 8.12125C5.77943 12.2101 2.03759 17.6505 0.00176548 23.8028C-0.000343123 23.81 -0.000566 23.8176 0.00111343 23.8249C0.00279285 23.8322 0.00631944 23.8389 0.0113521 23.8444C0.0163847 23.8499 0.0227488 23.854 0.0298315 23.8563C0.0369143 23.8587 0.0444664 23.8591 0.0517655 23.8576L19.3725 19.836L21.2796 19.4386L25.0847 18.6484C25.0921 18.6471 25.0997 18.6477 25.1068 18.6501C25.114 18.6525 25.1204 18.6566 25.1256 18.6621L27.1122 20.8751C27.116 20.8798 27.1209 20.8837 27.1264 20.8863C27.1319 20.889 27.1379 20.8903 27.144 20.8903C27.1501 20.8903 27.1561 20.889 27.1617 20.8863C27.1672 20.8837 27.172 20.8798 27.1758 20.8751L35.1906 10.644L35.4565 10.306C35.4565 10.306 35.477 10.3631 35.502 10.4659C35.8117 11.89 35.8202 13.3636 35.527 14.7912C35.0223 17.3033 34.0745 19.8908 31.8515 20.8773C31.8451 20.88 31.8395 20.8843 31.8353 20.8897C31.831 20.8952 31.8282 20.9016 31.827 20.9085C31.8259 20.9153 31.8265 20.9223 31.8288 20.9288C31.8311 20.9354 31.835 20.9412 31.8401 20.9459L38.3501 27.0594L50.3471 38.3273L55.9251 43.5616C56.2746 43.8874 56.5081 44.3191 56.5902 44.7909C56.6723 45.2627 56.5984 45.7485 56.3798 46.1741L54.4022 49.9994C54.11 50.5644 53.6693 51.0382 53.1279 51.3691C52.5865 51.7001 51.9651 51.8756 51.3313 51.8766H47.1876C47.0878 51.8767 46.9897 51.851 46.9026 51.802C46.8155 51.7531 46.7425 51.6824 46.6904 51.5969C46.6384 51.5113 46.6091 51.4138 46.6054 51.3136C46.6017 51.2134 46.6238 51.1139 46.6694 51.0247C46.7885 50.7887 46.8497 50.5274 46.8479 50.2627C46.8461 49.998 46.7813 49.7376 46.6589 49.5031C46.5366 49.2687 46.3603 49.0671 46.1446 48.915C45.9289 48.763 45.6802 48.665 45.4192 48.6291C42.9711 48.3026 40.0776 47.7499 39.1434 46.9826C38.654 46.5807 38.2346 46.0999 37.9023 45.5598C36.5953 43.4314 37.1499 41.0061 37.4477 40.0629C37.4522 40.0529 37.4526 40.0415 37.4487 40.0312C37.4449 40.0209 37.4372 40.0126 37.4272 40.0081C37.4173 40.0035 37.4059 40.0031 37.3957 40.007C37.3855 40.0108 37.3772 40.0186 37.3727 40.0286C37.0655 40.5151 36.7284 40.9819 36.3634 41.4263C35.3889 42.6493 34.1721 43.6555 32.7902 44.3814C31.6697 44.9535 30.426 45.239 29.1693 45.2127C25.3051 45.1168 20.9727 42.6252 20.0431 37.6992C19.693 35.8334 19.834 33.6296 20.6727 31.0764C21.1732 29.5888 21.814 28.1527 22.5866 26.7876C22.5917 26.7795 22.5938 26.7698 22.5925 26.7603C22.5912 26.7508 22.5867 26.7421 22.5797 26.7356C22.5727 26.7291 22.5636 26.7252 22.5541 26.7247C22.5446 26.7242 22.5351 26.7271 22.5275 26.7328C21.8439 27.2846 21.2219 27.9095 20.6727 28.5963C19.1043 30.5215 17.129 33.9311 16.7313 39.2362C16.7309 39.2428 16.7288 39.2492 16.7252 39.2548C16.7216 39.2604 16.7167 39.265 16.7108 39.2681L4.97516 46.0942L4.6592 46.2792L1.22238 48.2774C1.21353 48.2831 1.20688 48.2916 1.20357 48.3016C1.20026 48.3116 1.20047 48.3224 1.20419 48.3322C4.28764 55.2786 9.59856 60.9868 16.2891 64.5455C22.9796 68.1042 30.6639 69.3083 38.1152 67.9654C45.5666 66.6226 52.3553 62.8102 57.3976 57.1371C62.4399 51.4639 65.4451 44.257 65.9333 36.667C67.2425 15.6522 49.0924 -1.66983 28.2714 0.721226Z" fill="#201F33"/>
</svg>