<svg width="1048" height="372" viewBox="0 0 1048 372" fill="none" xmlns="http://www.w3.org/2000/svg">
<g opacity="0.2" clip-path="url(#clip0_310_16644)">
<path d="M-927.684 370.429L-1273.34 358.164L851.858 2.45288L865.685 2.70539L459.089 370.429H-927.684Z" fill="#D85DF1"/>
<path d="M851.897 2.41711L821.456 7.50334C818.118 6.70975 804.193 4.00431 784.452 7.828C765.054 11.6156 744.645 19.1187 738.924 21.3191H738.873L729.205 22.9785C729.154 22.9785 729.154 22.9785 729.154 22.9785C726.004 22.1488 701.414 16.2329 665.163 23.3031C629.465 30.2291 591.599 44.7302 585.93 46.9307C585.879 46.9307 585.879 46.9307 585.879 46.9307L574.341 48.8786H574.29C568.189 47.3275 531.571 39.1029 478.366 49.4557C425.678 59.7003 369.85 80.8389 359.607 84.8068L328.068 90.0734H328.017C317.759 87.4762 256.241 73.6965 166.96 91.0474C78.3125 108.326 -15.4412 143.822 -32.5004 150.423L-50.4418 153.417C-50.4418 153.417 -170.77 118.968 -353.411 154.535C-536.017 190.067 -730.407 267.226 -730.407 267.226L-843.38 286.128C-1067.55 263.691 -1317.49 270.905 -1760.56 336.882L-2007.33 335.114L820.013 2.41711H851.897Z" fill="url(#paint0_linear_310_16644)"/>
<path d="M410.422 370.429L865.687 2.70508L866.794 2.66901L521.276 370.429H410.422Z" fill="url(#paint1_linear_310_16644)"/>
<path d="M-2007.33 335.112L-2241.24 336.952L815.131 2.45105H819.977L-2007.33 335.112Z" fill="#DF5FF6"/>
<path d="M729.436 23.0514L585.129 47.22C585.129 47.22 585.39 47.1118 585.826 46.9314C585.826 46.9314 585.825 46.9314 585.876 46.9314L729.1 22.9792H729.151C729.283 23.0514 729.436 23.0514 729.436 23.0514Z" fill="#DF5FF6"/>
<path d="M822.205 7.71894L737.287 21.9315C737.287 21.9315 737.809 21.7151 738.818 21.3183H738.869L821.401 7.5025C821.92 7.64679 822.205 7.71894 822.205 7.71894Z" fill="#DF5FF6"/>
<path d="M-1273.34 358.163L-1183.46 361.338L853.641 2.45191L851.892 2.41583L-1273.34 358.163Z" fill="#D85DF1"/>
<path d="M-1183.46 361.339L-1089.48 364.693L854.764 2.45288H853.642L-1183.46 361.339Z" fill="#D85DF1"/>
<path d="M355.326 370.431L864.548 2.6709L865.686 2.70697L410.421 370.431H355.326Z" fill="url(#paint2_linear_310_16644)"/>
<path d="M-383.513 370.429L858.899 2.45288H860.123L-316.684 370.429H-383.513Z" fill="url(#paint3_linear_310_16644)"/>
<g style="mix-blend-mode:overlay" opacity="0.5">
<path d="M494.6 269.822L-314.379 275.377L-710.435 371.98H-477.351L-378.725 347.631L229.462 354.268L199.323 370.429H355.325L494.6 269.822Z" fill="#C29A90"/>
</g>
<g style="mix-blend-mode:overlay" opacity="0.5">
<path d="M-63.215 166.187L0.316584 174.484L215.388 135.922L134.617 155.221L176.828 156.015L302.301 132.315L251.956 146.492L341.456 144.327L550.062 86.2144L518.226 85.9619L401.983 111.501L332.202 102.772L286.946 111.501H277.151L416.401 85.9619L409.546 81.8497L-63.215 166.187Z" fill="#C29A90"/>
</g>
<g style="mix-blend-mode:overlay" opacity="0.5">
<path d="M514.466 255.466H447.587L559.095 191.401H544.199L509.787 210.916H428.47L566.133 154.571H498.947L558.324 134.117H586.586L563.573 144.326H652.745L699.729 113.412H711.208L514.466 255.466Z" fill="#C29A90"/>
</g>
<g style="mix-blend-mode:overlay" opacity="0.5">
<path d="M636.869 72.2536H703.902L727.248 63.9569L709.966 70.8828H727.311L782.331 44.8384H774.373L754.025 53.3516H727.497L700.414 63.9569H690.058L714.145 54.0009L695.881 54.6141L636.869 72.2536Z" fill="#C29A90"/>
</g>
<g style="mix-blend-mode:overlay" opacity="0.5">
<path d="M821.976 33.403L688.924 32.0323L768.486 17.8197L731.821 25.6114L742.101 26.0442L782.26 17.8197H833.581L805.134 31.1666L811.326 30.2287L817.219 27.0904L830.383 27.3429L821.976 33.403Z" fill="#C29A90"/>
</g>
<path d="M120.261 240.028L154.27 229.64L141.397 235.88L120.261 240.028Z" fill="#C29A90"/>
<path d="M170.918 161.569L134.561 171.092L144.261 171.85L168.193 166.692L163.92 164.996L170.918 161.569Z" fill="#C29A90"/>
<path d="M417.471 240.026L392.805 251.785L410.256 247.24L417.471 240.026Z" fill="#C29A90"/>
<path d="M452.786 89.9269L437.418 93.7145L448.001 93.0291L452.786 89.9269Z" fill="#C29A90"/>
<path d="M500.041 175.566L489.989 180.363L507.477 175.782L500.041 175.566Z" fill="#C29A90"/>
<path d="M119.6 172.174L113.072 174.518L123.945 172.318L119.6 172.174Z" fill="#C29A90"/>
<path d="M111.886 239.881L105.358 242.226L116.231 240.026L111.886 239.881Z" fill="#C29A90"/>
<path d="M43.2789 320.326L74.3322 309.576L63.9581 314.951H75.8954L51.17 320.903L43.2789 320.326Z" fill="#C29A90"/>
<path d="M47.3091 324.76L14.966 336.952L32.9113 335.077L47.3091 324.76Z" fill="#C29A90"/>
<path d="M644.357 71.6047L631.417 76.9435L639.94 74.4905L642.553 73.4084L647.621 71.6047H644.357Z" fill="#C29A90"/>
<path d="M783.378 30.7336L770.438 36.0723L778.962 33.6194L781.538 32.5733L786.694 30.7336H783.378Z" fill="#C29A90"/>
<path d="M633.387 60.2787L625.17 62.7317H630.934L633.387 60.2787Z" fill="#C29A90"/>
<path d="M680.877 43.7556L675.737 45.6313L681.062 44.6934L680.877 43.7556Z" fill="#C29A90"/>
<g style="mix-blend-mode:screen">
<path d="M34.9158 75.861C23.5396 75.861 7.77702 82.3902 -0.267157 90.4343C6.80358 93.4644 25.3603 93.6809 40.9523 90.4343C48.9965 82.3902 46.292 75.861 34.9158 75.861Z" fill="#02FFFC"/>
</g>
<g style="mix-blend-mode:screen">
<path d="M220.124 59.0494C211.502 59.0494 199.571 63.9914 193.475 70.0876C198.819 72.3963 212.907 72.5406 224.696 70.0876C230.756 64.0274 228.745 59.0494 220.124 59.0494Z" fill="#02FFFC"/>
</g>
<g style="mix-blend-mode:screen">
<path d="M381.554 43.2153C375.075 43.2153 366.105 46.9308 361.524 51.512C365.557 53.2435 376.111 53.3517 384.991 51.512C389.557 46.8947 388.033 43.2153 381.554 43.2153Z" fill="#02FFFC"/>
</g>
<g style="mix-blend-mode:screen">
<path d="M504.256 31.4183C499.307 31.4183 492.427 34.268 488.928 37.767C492.017 39.0657 500.071 39.1739 506.885 37.767C510.384 34.268 509.204 31.4183 504.256 31.4183Z" fill="#02FFFC"/>
</g>
<g style="mix-blend-mode:screen">
<path d="M606.569 21.3926C602.691 21.3926 597.292 23.6291 594.551 26.3706C596.973 27.4167 603.278 27.4888 608.631 26.3706C611.372 23.6291 610.446 21.3926 606.569 21.3926Z" fill="#02FFFC"/>
</g>
<g style="mix-blend-mode:screen">
<path d="M680.657 14.2852C678.005 14.2852 674.347 15.8002 672.471 17.676C674.096 18.3974 678.447 18.4335 682.113 17.676C683.988 15.8002 683.31 14.2852 680.657 14.2852Z" fill="#02FFFC"/>
</g>
<g style="mix-blend-mode:screen">
<path d="M744.407 8.08105C742.468 8.08105 739.768 9.1993 738.398 10.5701C739.627 11.0751 742.754 11.1111 745.438 10.5701C746.845 9.16323 746.345 8.08105 744.407 8.08105Z" fill="#02FFFC"/>
</g>
<g style="mix-blend-mode:screen">
<path d="M793.285 3.78894C792.06 3.78894 790.406 4.47432 789.54 5.34006C790.287 5.66471 792.276 5.66471 793.876 5.34006C794.742 4.47432 794.458 3.78894 793.285 3.78894Z" fill="#02FFFC"/>
</g>
<g style="mix-blend-mode:screen">
<path d="M526.378 313.902C500.514 313.902 464.721 328.728 446.433 347.016C462.499 353.906 504.576 354.375 540.044 347.016C558.383 328.728 552.242 313.902 526.378 313.902Z" fill="#02FFFC"/>
</g>
<g style="mix-blend-mode:screen">
<path d="M362.393 477.89C476.64 477.89 632.355 414.791 710.191 336.954C788.028 259.118 758.511 196.019 644.264 196.019C530.017 196.019 374.302 259.118 296.466 336.954C218.629 414.791 248.146 477.89 362.393 477.89Z" fill="url(#paint4_radial_310_16644)"/>
</g>
<g style="mix-blend-mode:screen">
<path d="M681.456 170.658C666.049 170.658 644.713 179.496 633.819 190.39C643.379 194.502 668.531 194.754 689.629 190.39C700.523 179.496 696.862 170.658 681.456 170.658Z" fill="#02FFFC"/>
</g>
<g style="mix-blend-mode:screen">
<path d="M583.699 268.416C651.825 268.416 744.666 230.802 791.065 184.403C837.464 138.004 819.851 100.39 751.725 100.39C683.6 100.39 590.759 138.004 544.36 184.403C497.96 230.802 515.574 268.416 583.699 268.416Z" fill="url(#paint5_radial_310_16644)"/>
</g>
<g style="mix-blend-mode:screen">
<path d="M766.058 92.9935C758.508 92.9935 748.057 97.3222 742.718 102.661C747.432 104.681 759.735 104.825 770.113 102.661C775.452 97.3222 773.608 92.9935 766.058 92.9935Z" fill="#02FFFC"/>
</g>
<g style="mix-blend-mode:screen">
<path d="M718.081 140.97C751.496 140.97 797.044 122.511 819.815 99.7395C842.586 76.9683 833.958 58.5086 800.543 58.5086C767.128 58.5086 721.581 76.9683 698.809 99.7395C676.038 122.511 684.667 140.97 718.081 140.97Z" fill="url(#paint6_radial_310_16644)"/>
</g>
<g style="mix-blend-mode:screen">
<path d="M806.12 56.454C801.835 56.454 795.913 58.907 792.883 61.9371C795.504 63.0914 802.472 63.1635 808.391 61.9371C811.422 58.907 810.406 56.454 806.12 56.454Z" fill="#02FFFC"/>
</g>
<g style="mix-blend-mode:screen">
<path d="M778.996 83.5811C797.901 83.5811 823.66 73.1481 836.529 60.2783C849.399 47.4084 844.507 36.9754 825.602 36.9754C806.697 36.9754 780.938 47.4084 768.068 60.2783C755.199 73.1481 760.091 83.5811 778.996 83.5811Z" fill="url(#paint7_radial_310_16644)"/>
</g>
<g style="mix-blend-mode:screen">
<path d="M830.455 35.6406C827.752 35.6406 824.007 37.1917 822.095 39.1036C823.771 39.825 828.174 39.8611 831.839 39.1036C833.802 37.1917 833.159 35.6406 830.455 35.6406Z" fill="#02FFFC"/>
</g>
<g style="mix-blend-mode:screen">
<path d="M813.358 52.738C825.276 52.738 841.51 46.1649 849.619 38.0565C857.727 29.9481 854.639 23.3749 842.721 23.3749C830.804 23.3749 814.569 29.9481 806.461 38.0565C798.352 46.1649 801.441 52.738 813.358 52.738Z" fill="url(#paint8_radial_310_16644)"/>
</g>
<g style="mix-blend-mode:screen">
<path d="M846.382 21.1381C844.546 21.1381 841.969 22.1842 840.635 23.5189C841.762 24.0239 844.787 24.06 847.369 23.5189C848.652 22.1842 848.219 21.1381 846.382 21.1381Z" fill="#02FFFC"/>
</g>
<g style="mix-blend-mode:screen">
<path d="M834.624 32.8997C826.411 32.8997 824.324 28.3546 829.88 22.7994C835.471 17.2082 846.612 12.6991 854.825 12.6991C863.038 12.6991 865.125 17.2442 859.57 22.7994C854.015 28.3546 842.787 32.8997 834.624 32.8997Z" fill="url(#paint9_radial_310_16644)"/>
</g>
<g style="mix-blend-mode:screen">
<path d="M855.754 12.2286C854.734 12.2286 853.34 12.8058 852.619 13.5272C853.234 13.7798 854.881 13.8158 856.241 13.5272C856.962 12.8058 856.723 12.2286 855.754 12.2286Z" fill="#02FFFC"/>
</g>
<g style="mix-blend-mode:screen">
<path d="M849.406 18.5785C844.968 18.5785 843.85 16.1256 846.88 13.0955C849.91 10.0654 855.934 7.61243 860.372 7.61243C864.81 7.61243 865.928 10.0654 862.898 13.0955C859.868 16.1256 853.844 18.5785 849.406 18.5785Z" fill="url(#paint10_radial_310_16644)"/>
</g>
<g style="mix-blend-mode:screen">
<path d="M862.771 5.77136C862.21 5.77136 861.375 6.09602 860.943 6.52889C861.308 6.67318 862.242 6.70925 863.034 6.52889C863.467 6.09602 863.333 5.77136 862.771 5.77136Z" fill="#02FFFC"/>
</g>
<g style="mix-blend-mode:screen">
<path d="M859.057 9.48695C856.456 9.48695 855.807 8.04405 857.539 6.31257C859.27 4.58109 862.804 3.13818 865.406 3.13818C868.008 3.13818 868.656 4.58109 866.925 6.31257C865.193 8.04405 861.608 9.48695 859.057 9.48695Z" fill="url(#paint11_radial_310_16644)"/>
</g>
<g style="mix-blend-mode:screen">
<path d="M-27.0576 137.834C16.3591 137.834 75.5224 113.867 105.087 84.3024C134.652 54.7376 123.423 30.7707 80.0057 30.7707C36.5889 30.7707 -22.5741 54.7376 -52.1389 84.3024C-81.7036 113.867 -70.4744 137.834 -27.0576 137.834Z" fill="url(#paint12_radial_310_16644)"/>
</g>
<g style="mix-blend-mode:screen">
<path d="M176.503 107.569C210.284 107.569 256.322 88.9159 279.333 65.9056C302.343 42.8953 293.611 24.2418 259.83 24.2418C226.049 24.2418 180.011 42.8953 157 65.9056C133.99 88.9159 142.722 107.569 176.503 107.569Z" fill="url(#paint13_radial_310_16644)"/>
</g>
<g style="mix-blend-mode:screen">
<path d="M349.597 75.1738C371.629 75.1738 401.651 63.0127 416.653 48.0112C431.654 33.0097 425.954 20.8486 403.922 20.8486C381.89 20.8486 351.868 33.0097 336.866 48.0112C321.865 63.0127 327.564 75.1738 349.597 75.1738Z" fill="url(#paint14_radial_310_16644)"/>
</g>
<g style="mix-blend-mode:screen">
<path d="M476.048 59.6287C494.84 59.6287 520.443 49.2602 533.233 36.4701C546.023 23.68 541.158 13.3115 522.365 13.3115C503.573 13.3115 477.97 23.68 465.18 36.4701C452.39 49.2602 457.256 59.6287 476.048 59.6287Z" fill="url(#paint15_radial_310_16644)"/>
</g>
<g style="mix-blend-mode:screen">
<path d="M586.006 41.9528C600.15 41.9528 619.416 34.1523 629.038 24.5298C638.66 14.9073 634.996 7.10675 620.852 7.10675C606.709 7.10675 587.442 14.9073 577.82 24.5298C568.197 34.1523 571.862 41.9528 586.006 41.9528Z" fill="url(#paint16_radial_310_16644)"/>
</g>
<g style="mix-blend-mode:screen">
<path d="M665.94 29.0017C656.4 29.0017 653.964 23.7351 660.457 17.242C666.95 10.749 679.919 5.48236 689.459 5.48236C698.999 5.48236 701.435 10.749 694.942 17.242C688.5 23.7351 675.48 29.0017 665.94 29.0017Z" fill="url(#paint17_radial_310_16644)"/>
</g>
<g style="mix-blend-mode:screen">
<path d="M735.063 17.424C728.635 17.424 726.967 13.8889 731.368 9.48809C735.733 5.12331 744.507 1.55212 750.935 1.55212C757.363 1.55212 759.031 5.08723 754.631 9.48809C750.23 13.8889 741.491 17.424 735.063 17.424Z" fill="url(#paint18_radial_310_16644)"/>
</g>
<g style="mix-blend-mode:screen">
<path d="M788.89 9.30672C792.666 9.30672 797.81 7.22334 800.38 4.65336C802.949 2.08338 801.973 0 798.197 0C794.422 0 789.278 2.08338 786.708 4.65336C784.138 7.22334 785.115 9.30672 788.89 9.30672Z" fill="url(#paint19_radial_310_16644)"/>
</g>
</g>
<defs>
<linearGradient id="paint0_linear_310_16644" x1="-745.914" y1="336.971" x2="-745.914" y2="2.43012" gradientUnits="userSpaceOnUse">
<stop stop-color="#000037"/>
<stop offset="0.5" stop-color="#150B4D"/>
<stop offset="0.996" stop-color="#70164D"/>
</linearGradient>
<linearGradient id="paint1_linear_310_16644" x1="465.851" y1="370.428" x2="465.851" y2="2.66901" gradientUnits="userSpaceOnUse">
<stop stop-color="#310058"/>
<stop offset="0.4921" stop-color="#BD006E"/>
<stop offset="0.996" stop-color="#FF9D16"/>
</linearGradient>
<linearGradient id="paint2_linear_310_16644" x1="426.634" y1="370.43" x2="426.634" y2="2.6709" gradientUnits="userSpaceOnUse">
<stop stop-color="#09007C"/>
<stop offset="0.5593" stop-color="#8B006E"/>
<stop offset="0.996" stop-color="#FF3B7C"/>
</linearGradient>
<linearGradient id="paint3_linear_310_16644" x1="54.3182" y1="370.428" x2="54.3182" y2="2.43628" gradientUnits="userSpaceOnUse">
<stop stop-color="#092E7C"/>
<stop offset="0.5593" stop-color="#8B006E"/>
<stop offset="0.996" stop-color="#FF3B7C"/>
</linearGradient>
<radialGradient id="paint4_radial_310_16644" cx="0" cy="0" r="1" gradientUnits="userSpaceOnUse" gradientTransform="translate(503.317 336.971) rotate(135) scale(199.291 146.292)">
<stop stop-color="#3BCAFF"/>
<stop offset="0.1109" stop-color="#2FA1CB"/>
<stop offset="0.2394" stop-color="#237796"/>
<stop offset="0.3697" stop-color="#185268"/>
<stop offset="0.4991" stop-color="#0F3542"/>
<stop offset="0.6274" stop-color="#091E25"/>
<stop offset="0.7543" stop-color="#040D11"/>
<stop offset="0.8793" stop-color="#010304"/>
<stop offset="1"/>
</radialGradient>
<radialGradient id="paint5_radial_310_16644" cx="0" cy="0" r="1" gradientUnits="userSpaceOnUse" gradientTransform="translate(667.727 184.39) rotate(135) scale(118.805 87.2101)">
<stop stop-color="#3BCAFF"/>
<stop offset="0.1109" stop-color="#2FA1CB"/>
<stop offset="0.2394" stop-color="#237796"/>
<stop offset="0.3697" stop-color="#185268"/>
<stop offset="0.4991" stop-color="#0F3542"/>
<stop offset="0.6274" stop-color="#091E25"/>
<stop offset="0.7543" stop-color="#040D11"/>
<stop offset="0.8793" stop-color="#010304"/>
<stop offset="1"/>
</radialGradient>
<radialGradient id="paint6_radial_310_16644" cx="0" cy="0" r="1" gradientUnits="userSpaceOnUse" gradientTransform="translate(759.316 99.7452) rotate(135) scale(58.2881 42.7871)">
<stop stop-color="#3BCAFF"/>
<stop offset="0.1109" stop-color="#2FA1CB"/>
<stop offset="0.2394" stop-color="#237796"/>
<stop offset="0.3697" stop-color="#185268"/>
<stop offset="0.4991" stop-color="#0F3542"/>
<stop offset="0.6274" stop-color="#091E25"/>
<stop offset="0.7543" stop-color="#040D11"/>
<stop offset="0.8793" stop-color="#010304"/>
<stop offset="1"/>
</radialGradient>
<radialGradient id="paint7_radial_310_16644" cx="0" cy="0" r="1" gradientUnits="userSpaceOnUse" gradientTransform="translate(802.288 60.279) rotate(135) scale(32.957 24.1925)">
<stop stop-color="#3BCAFF"/>
<stop offset="0.1109" stop-color="#2FA1CB"/>
<stop offset="0.2394" stop-color="#237796"/>
<stop offset="0.3697" stop-color="#185268"/>
<stop offset="0.4991" stop-color="#0F3542"/>
<stop offset="0.6274" stop-color="#091E25"/>
<stop offset="0.7543" stop-color="#040D11"/>
<stop offset="0.8793" stop-color="#010304"/>
<stop offset="1"/>
</radialGradient>
<radialGradient id="paint8_radial_310_16644" cx="0" cy="0" r="1" gradientUnits="userSpaceOnUse" gradientTransform="translate(828.06 38.0433) rotate(135) scale(20.7709 15.2472)">
<stop stop-color="#3BCAFF"/>
<stop offset="0.1109" stop-color="#2FA1CB"/>
<stop offset="0.2394" stop-color="#237796"/>
<stop offset="0.3697" stop-color="#185268"/>
<stop offset="0.4991" stop-color="#0F3542"/>
<stop offset="0.6274" stop-color="#091E25"/>
<stop offset="0.7543" stop-color="#040D11"/>
<stop offset="0.8793" stop-color="#010304"/>
<stop offset="1"/>
</radialGradient>
<radialGradient id="paint9_radial_310_16644" cx="0" cy="0" r="1" gradientUnits="userSpaceOnUse" gradientTransform="translate(844.727 22.7784) rotate(135) scale(14.3019 10.4985)">
<stop stop-color="#3BCAFF"/>
<stop offset="0.1109" stop-color="#2FA1CB"/>
<stop offset="0.2394" stop-color="#237796"/>
<stop offset="0.3697" stop-color="#185268"/>
<stop offset="0.4991" stop-color="#0F3542"/>
<stop offset="0.6274" stop-color="#091E25"/>
<stop offset="0.7543" stop-color="#040D11"/>
<stop offset="0.8793" stop-color="#010304"/>
<stop offset="1"/>
</radialGradient>
<radialGradient id="paint10_radial_310_16644" cx="0" cy="0" r="1" gradientUnits="userSpaceOnUse" gradientTransform="translate(854.86 13.1138) rotate(135) scale(7.72943 5.67391)">
<stop stop-color="#3BCAFF"/>
<stop offset="0.1109" stop-color="#2FA1CB"/>
<stop offset="0.2394" stop-color="#237796"/>
<stop offset="0.3697" stop-color="#185268"/>
<stop offset="0.4991" stop-color="#0F3542"/>
<stop offset="0.6274" stop-color="#091E25"/>
<stop offset="0.7543" stop-color="#040D11"/>
<stop offset="0.8793" stop-color="#010304"/>
<stop offset="1"/>
</radialGradient>
<radialGradient id="paint11_radial_310_16644" cx="0" cy="0" r="1" gradientUnits="userSpaceOnUse" gradientTransform="translate(862.248 6.28464) rotate(135) scale(4.50621 3.30778)">
<stop stop-color="#3BCAFF"/>
<stop offset="0.1109" stop-color="#2FA1CB"/>
<stop offset="0.2394" stop-color="#237796"/>
<stop offset="0.3697" stop-color="#185268"/>
<stop offset="0.4991" stop-color="#0F3542"/>
<stop offset="0.6274" stop-color="#091E25"/>
<stop offset="0.7543" stop-color="#040D11"/>
<stop offset="0.8793" stop-color="#010304"/>
<stop offset="1"/>
</radialGradient>
<radialGradient id="paint12_radial_310_16644" cx="0" cy="0" r="1" gradientUnits="userSpaceOnUse" gradientTransform="translate(26.4521 84.315) rotate(135) scale(75.7052 55.5723)">
<stop stop-color="#3BCAFF"/>
<stop offset="0.1109" stop-color="#2FA1CB"/>
<stop offset="0.2394" stop-color="#237796"/>
<stop offset="0.3697" stop-color="#185268"/>
<stop offset="0.4991" stop-color="#0F3542"/>
<stop offset="0.6274" stop-color="#091E25"/>
<stop offset="0.7543" stop-color="#040D11"/>
<stop offset="0.8793" stop-color="#010304"/>
<stop offset="1"/>
</radialGradient>
<radialGradient id="paint13_radial_310_16644" cx="0" cy="0" r="1" gradientUnits="userSpaceOnUse" gradientTransform="translate(218.17 65.9069) rotate(135) scale(58.9228 43.2531)">
<stop stop-color="#3BCAFF"/>
<stop offset="0.1109" stop-color="#2FA1CB"/>
<stop offset="0.2394" stop-color="#237796"/>
<stop offset="0.3697" stop-color="#185268"/>
<stop offset="0.4991" stop-color="#0F3542"/>
<stop offset="0.6274" stop-color="#091E25"/>
<stop offset="0.7543" stop-color="#040D11"/>
<stop offset="0.8793" stop-color="#010304"/>
<stop offset="1"/>
</radialGradient>
<radialGradient id="paint14_radial_310_16644" cx="0" cy="0" r="1" gradientUnits="userSpaceOnUse" gradientTransform="translate(376.733 48.0118) rotate(135) scale(38.4221 28.2042)">
<stop stop-color="#3BCAFF"/>
<stop offset="0.1109" stop-color="#2FA1CB"/>
<stop offset="0.2394" stop-color="#237796"/>
<stop offset="0.3697" stop-color="#185268"/>
<stop offset="0.4991" stop-color="#0F3542"/>
<stop offset="0.6274" stop-color="#091E25"/>
<stop offset="0.7543" stop-color="#040D11"/>
<stop offset="0.8793" stop-color="#010304"/>
<stop offset="1"/>
</radialGradient>
<radialGradient id="paint15_radial_310_16644" cx="0" cy="0" r="1" gradientUnits="userSpaceOnUse" gradientTransform="translate(499.218 36.4685) rotate(135) scale(32.7724 24.057)">
<stop stop-color="#3BCAFF"/>
<stop offset="0.1109" stop-color="#2FA1CB"/>
<stop offset="0.2394" stop-color="#237796"/>
<stop offset="0.3697" stop-color="#185268"/>
<stop offset="0.4991" stop-color="#0F3542"/>
<stop offset="0.6274" stop-color="#091E25"/>
<stop offset="0.7543" stop-color="#040D11"/>
<stop offset="0.8793" stop-color="#010304"/>
<stop offset="1"/>
</radialGradient>
<radialGradient id="paint16_radial_310_16644" cx="0" cy="0" r="1" gradientUnits="userSpaceOnUse" gradientTransform="translate(603.406 24.5472) rotate(135) scale(24.6603 18.1022)">
<stop stop-color="#3BCAFF"/>
<stop offset="0.1109" stop-color="#2FA1CB"/>
<stop offset="0.2394" stop-color="#237796"/>
<stop offset="0.3697" stop-color="#185268"/>
<stop offset="0.4991" stop-color="#0F3542"/>
<stop offset="0.6274" stop-color="#091E25"/>
<stop offset="0.7543" stop-color="#040D11"/>
<stop offset="0.8793" stop-color="#010304"/>
<stop offset="1"/>
</radialGradient>
<radialGradient id="paint17_radial_310_16644" cx="0" cy="0" r="1" gradientUnits="userSpaceOnUse" gradientTransform="translate(677.726 17.2343) rotate(135) scale(16.6293 12.2069)">
<stop stop-color="#3BCAFF"/>
<stop offset="0.1109" stop-color="#2FA1CB"/>
<stop offset="0.2394" stop-color="#237796"/>
<stop offset="0.3697" stop-color="#185268"/>
<stop offset="0.4991" stop-color="#0F3542"/>
<stop offset="0.6274" stop-color="#091E25"/>
<stop offset="0.7543" stop-color="#040D11"/>
<stop offset="0.8793" stop-color="#010304"/>
<stop offset="1"/>
</radialGradient>
<radialGradient id="paint18_radial_310_16644" cx="0" cy="0" r="1" gradientUnits="userSpaceOnUse" gradientTransform="translate(742.985 9.51034) rotate(135) scale(11.2002 8.22168)">
<stop stop-color="#3BCAFF"/>
<stop offset="0.1109" stop-color="#2FA1CB"/>
<stop offset="0.2394" stop-color="#237796"/>
<stop offset="0.3697" stop-color="#185268"/>
<stop offset="0.4991" stop-color="#0F3542"/>
<stop offset="0.6274" stop-color="#091E25"/>
<stop offset="0.7543" stop-color="#040D11"/>
<stop offset="0.8793" stop-color="#010304"/>
<stop offset="1"/>
</radialGradient>
<radialGradient id="paint19_radial_310_16644" cx="0" cy="0" r="1" gradientUnits="userSpaceOnUse" gradientTransform="translate(793.511 4.6709) rotate(135) scale(6.6085 4.85104)">
<stop stop-color="#3BCAFF"/>
<stop offset="0.1109" stop-color="#2FA1CB"/>
<stop offset="0.2394" stop-color="#237796"/>
<stop offset="0.3697" stop-color="#185268"/>
<stop offset="0.4991" stop-color="#0F3542"/>
<stop offset="0.6274" stop-color="#091E25"/>
<stop offset="0.7543" stop-color="#040D11"/>
<stop offset="0.8793" stop-color="#010304"/>
<stop offset="1"/>
</radialGradient>
<clipPath id="clip0_310_16644">
<rect width="3055.14" height="742.462" fill="white" transform="matrix(1 0 -0.707107 0.707107 -2008 0)"/>
</clipPath>
</defs>
</svg>
