<?xml version="1.0" encoding="utf-8"?>
<!-- Generator: Adobe Illustrator 26.3.1, SVG Export Plug-In . SVG Version: 6.00 Build 0)  -->
<svg version="1.1" id="Layer_2_00000083769102323984645670000003482475082835421337_"
	 xmlns="http://www.w3.org/2000/svg" xmlns:xlink="http://www.w3.org/1999/xlink" x="0px" y="0px" viewBox="0 0 300 110.2"
	 style="enable-background:new 0 0 300 110.2;" xml:space="preserve">
<style type="text/css">
	.st0{clip-path:url(#SVGID_00000124852365331180622560000000737422111780474553_);}
	.st1{opacity:0.1;}
	.st2{fill:#FFFFFF;}
</style>
<g>
	<g>
		<defs>
			<rect id="SVGID_1_" x="-0.4" y="-3.5" width="301" height="127"/>
		</defs>
		<clipPath id="SVGID_00000169521015017792677520000014062381975056564371_">
			<use xlink:href="#SVGID_1_"  style="overflow:visible;"/>
		</clipPath>
		<g style="clip-path:url(#SVGID_00000169521015017792677520000014062381975056564371_);">
			<g class="st1">
				
					<rect x="-166.1" y="64.8" transform="matrix(0.5736 -0.8192 0.8192 0.5736 -69.9499 -1.9383)" class="st2" width="258.6" height="2.8"/>
				
					<rect x="-153.5" y="64.9" transform="matrix(0.5736 -0.8192 0.8192 0.5736 -64.6147 8.4379)" class="st2" width="258.6" height="2.8"/>
				
					<rect x="-140.7" y="64.9" transform="matrix(0.5736 -0.8192 0.8192 0.5736 -59.1573 18.9254)" class="st2" width="258.6" height="2.8"/>
				
					<rect x="-127.8" y="64.8" transform="matrix(0.5736 -0.8192 0.8192 0.5736 -53.609 29.4257)" class="st2" width="258.6" height="2.8"/>
				
					<rect x="-115" y="64.8" transform="matrix(0.5736 -0.8192 0.8192 0.5736 -48.1514 39.9128)" class="st2" width="258.6" height="2.8"/>
				
					<rect x="-102.2" y="64.8" transform="matrix(0.5736 -0.8192 0.8192 0.5736 -42.6936 50.3997)" class="st2" width="258.6" height="2.8"/>
				
					<rect x="-89.4" y="64.8" transform="matrix(0.5736 -0.8192 0.8192 0.5736 -37.2366 60.8877)" class="st2" width="258.6" height="2.8"/>
				
					<rect x="-76.6" y="64.8" transform="matrix(0.5736 -0.8192 0.8192 0.5736 -31.7797 71.3757)" class="st2" width="258.6" height="2.8"/>
				
					<rect x="-63.8" y="64.8" transform="matrix(0.5736 -0.8192 0.8192 0.5736 -26.3217 81.8623)" class="st2" width="258.6" height="2.8"/>
				
					<rect x="-51" y="64.8" transform="matrix(0.5736 -0.8192 0.8192 0.5736 -20.8648 92.3503)" class="st2" width="258.6" height="2.8"/>
				
					<rect x="-38.2" y="64.8" transform="matrix(0.5736 -0.8192 0.8192 0.5736 -15.4077 102.8383)" class="st2" width="258.6" height="2.8"/>
				
					<rect x="-25.4" y="64.8" transform="matrix(0.5736 -0.8192 0.8192 0.5736 -9.9503 113.3256)" class="st2" width="258.6" height="2.8"/>
				
					<rect x="-12.6" y="64.8" transform="matrix(0.5736 -0.8192 0.8192 0.5736 -4.4928 123.8129)" class="st2" width="258.6" height="2.8"/>
				
					<rect x="0.2" y="64.8" transform="matrix(0.5736 -0.8192 0.8192 0.5736 0.9647 134.3002)" class="st2" width="258.6" height="2.8"/>
				
					<rect x="13" y="64.8" transform="matrix(0.5736 -0.8192 0.8192 0.5736 6.4217 144.7881)" class="st2" width="258.6" height="2.8"/>
				
					<rect x="25.8" y="64.8" transform="matrix(0.5736 -0.8192 0.8192 0.5736 11.8791 155.2754)" class="st2" width="258.6" height="2.8"/>
				
					<rect x="37" y="66.9" transform="matrix(0.5736 -0.8192 0.8192 0.5736 14.9744 165.3549)" class="st2" width="258.6" height="2.8"/>
				
					<rect x="49.8" y="66.9" transform="matrix(0.5736 -0.8192 0.8192 0.5736 20.4314 175.8429)" class="st2" width="258.6" height="2.8"/>
				
					<rect x="62.6" y="66.9" transform="matrix(0.5736 -0.8192 0.8192 0.5736 25.8884 186.3308)" class="st2" width="258.6" height="2.8"/>
				
					<rect x="75.4" y="66.9" transform="matrix(0.5736 -0.8192 0.8192 0.5736 31.3458 196.8181)" class="st2" width="258.6" height="2.8"/>
				
					<rect x="88.2" y="66.9" transform="matrix(0.5736 -0.8192 0.8192 0.5736 36.8033 207.3054)" class="st2" width="258.6" height="2.8"/>
				
					<rect x="101" y="66.9" transform="matrix(0.5736 -0.8192 0.8192 0.5736 42.2608 217.7927)" class="st2" width="258.6" height="2.8"/>
				
					<rect x="113.8" y="66.9" transform="matrix(0.5736 -0.8192 0.8192 0.5736 47.7178 228.2807)" class="st2" width="258.6" height="2.8"/>
				
					<rect x="126.6" y="66.9" transform="matrix(0.5736 -0.8192 0.8192 0.5736 53.1753 238.768)" class="st2" width="258.6" height="2.8"/>
				
					<rect x="144.2" y="59.9" transform="matrix(0.5736 -0.8192 0.8192 0.5736 66.4099 250.2215)" class="st2" width="258.6" height="2.8"/>
				
					<rect x="157" y="59.9" transform="matrix(0.5736 -0.8192 0.8192 0.5736 71.8669 260.7094)" class="st2" width="258.6" height="2.8"/>
				
					<rect x="169.8" y="59.9" transform="matrix(0.5736 -0.8192 0.8192 0.5736 77.3238 271.1974)" class="st2" width="258.6" height="2.8"/>
				
					<rect x="182.6" y="59.9" transform="matrix(0.5736 -0.8192 0.8192 0.5736 82.7813 281.6847)" class="st2" width="258.6" height="2.8"/>
				
					<rect x="195.4" y="59.9" transform="matrix(0.5736 -0.8192 0.8192 0.5736 88.2387 292.172)" class="st2" width="258.6" height="2.8"/>
				
					<rect x="208.2" y="59.9" transform="matrix(0.5736 -0.8192 0.8192 0.5736 93.6962 302.6593)" class="st2" width="258.6" height="2.8"/>
			</g>
		</g>
	</g>
</g>
</svg>
