<svg width="42" height="48" viewBox="0 0 42 48" fill="none" xmlns="http://www.w3.org/2000/svg">
<path d="M14.4842 20.5099L14.4842 20.5099C15.8878 21.7621 17.5118 23.211 19.3652 24.9927C20.2383 25.8336 21.6002 25.8309 22.4725 25.0088L22.4729 25.0085C24.2235 23.3571 25.7622 21.9898 27.1029 20.7994L27.1035 20.7989L27.1056 20.797C27.1058 20.7969 27.1059 20.7968 27.106 20.7967C27.1796 20.7312 27.2529 20.6662 27.3257 20.6015C31.6757 16.7378 34.5206 14.211 34.5206 9.56759C34.5206 4.8565 31.1096 1 26.5899 1C24.0724 1 22.2236 2.2262 20.9649 3.67734C19.7432 2.27819 17.9003 1 15.2629 1C10.7443 1 7.33339 4.85661 7.3333 9.56748V9.5675C7.3333 14.1344 10.0803 16.5835 14.2707 20.3195C14.3392 20.3805 14.408 20.4419 14.4773 20.5037L14.4842 20.5099ZM8.60005 23.1367V23.2224L8.60523 23.2523C8.60521 23.2636 8.60512 23.2773 8.60493 23.2942L8.60374 23.3782L8.60352 23.3923C8.59719 23.7983 8.58358 24.6718 8.82945 25.6149C9.08086 26.5793 9.62255 27.6887 10.7775 28.4543L10.7775 28.4544L13.5363 30.2833C13.5364 30.2833 13.5365 30.2834 13.5366 30.2835C13.6645 30.3687 13.7105 30.5581 13.6195 30.702C13.5324 30.8373 13.3734 30.8601 13.2633 30.7869L13.2625 30.7864L9.34872 28.1907C9.34871 28.1907 9.3487 28.1907 9.34869 28.1906C8.55427 27.6637 8.06664 26.7556 8.06664 25.7722V18.662C8.06664 16.0326 6.61105 13.617 4.28767 12.4314C2.74992 11.6466 1 12.8045 1 14.4784V27.0604C1 30.3207 2.52375 32.6932 4.00167 34.2206C4.74048 34.9842 5.47737 35.5477 6.03088 35.9215C6.3084 36.1089 6.54199 36.2501 6.7097 36.3462C6.79361 36.3943 6.86123 36.4312 6.90982 36.457C6.91494 36.4597 6.91984 36.4623 6.92454 36.4648C7.96761 37.1972 8.59997 38.4139 8.59997 39.7239V44.7072C8.59997 45.9541 9.59563 47 10.8666 47H18.4666C19.7376 47 20.7333 45.9541 20.7333 44.7072L20.7333 30.2108C20.7333 27.3946 19.1744 24.8082 16.6873 23.5389L11.8879 21.0897C10.3501 20.3048 8.60005 21.4627 8.60005 23.1367ZM33.4 39.7241C33.4 38.4141 34.0324 37.1973 35.0755 36.465C35.0802 36.4625 35.0851 36.4599 35.0902 36.4572C35.1388 36.4313 35.2064 36.3944 35.2903 36.3463C35.458 36.2503 35.6916 36.1091 35.9691 35.9216C36.5226 35.5478 37.2595 34.9843 37.9983 34.2208C39.4762 32.6934 41 30.3209 41 27.0606V14.4785C41 12.8047 39.2501 11.6468 37.7123 12.4315C35.3889 13.6172 33.9333 16.0328 33.9333 18.6622V25.7724C33.9333 26.7558 33.4457 27.6639 32.6513 28.1908C32.6513 28.1908 32.6513 28.1908 32.6513 28.1908L28.7375 30.7866L28.7367 30.7871C28.6266 30.8602 28.4676 30.8375 28.3805 30.7022C28.2895 30.5584 28.3355 30.3691 28.4633 30.2837C28.4634 30.2836 28.4635 30.2836 28.4636 30.2835L31.2225 28.4545L31.2225 28.4545C32.3774 27.6888 32.9191 26.5795 33.1705 25.6151C33.4164 24.6719 33.4028 23.7985 33.3965 23.3925L33.3963 23.3784L33.3951 23.2944C33.3949 23.2775 33.3948 23.2638 33.3948 23.2525L33.3999 23.2225V23.1368C33.3999 21.4629 31.6499 20.3049 30.1121 21.0899L25.3127 23.5391C22.8256 24.8083 21.2667 27.3948 21.2667 30.2109C21.2667 30.2109 21.2667 30.2109 21.2667 30.211V44.7074C21.2667 45.9543 22.2624 47.0002 23.5334 47.0002H31.1334C32.4044 47.0002 33.4 45.9543 33.4 44.7074V39.7241Z" stroke="#5599FF" stroke-width="2"/>
</svg>
