<svg viewBox="0 0 20 20" focusable="false" class="chakra-icon chakra-icon css-o72rqf"><path fill-rule="evenodd" clip-rule="evenodd" d="M2.49935 12.1667C2.95959 12.1667 3.33268 12.5398 3.33268 13.0001V16.3334C3.33268 16.5544 3.42048 16.7664 3.57676 16.9227C3.73304 17.079 3.945 17.1667 4.16602 17.1667H15.8327C16.0537 17.1667 16.2657 17.079 16.4219 16.9227C16.5782 16.7664 16.666 16.5544 16.666 16.3334V13.0001C16.666 12.5398 17.0391 12.1667 17.4993 12.1667C17.9596 12.1667 18.3327 12.5398 18.3327 13.0001V16.3334C18.3327 16.9965 18.0693 17.6323 17.6005 18.1012C17.1316 18.57 16.4957 18.8334 15.8327 18.8334H4.16602C3.50297 18.8334 2.86709 18.57 2.39825 18.1012C1.92941 17.6323 1.66602 16.9965 1.66602 16.3334V13.0001C1.66602 12.5398 2.03911 12.1667 2.49935 12.1667Z" fill="white"></path><path d="M10.8333 12.9999C10.8333 13.4602 10.4602 13.8333 10 13.8333C9.53976 13.8333 9.16667 13.4602 9.16667 12.9999V5.01176L6.42259 7.75584C6.09715 8.08128 5.56951 8.08128 5.24408 7.75584C4.91864 7.4304 4.91864 6.90277 5.24408 6.57733L9.41074 2.41066C9.73618 2.08523 10.2638 2.08523 10.5893 2.41066L14.7559 6.57733C15.0814 6.90277 15.0814 7.4304 14.7559 7.75584C14.4305 8.08128 13.9028 8.08128 13.5774 7.75584L10.8333 5.01176V12.9999Z" fill="white"></path></svg>