<svg xmlns="http://www.w3.org/2000/svg" id="info" viewBox="0 0 16 16" fill="none">
<path fill-rule="evenodd" clip-rule="evenodd" d="M8 16C12.4183 16 16 12.4183 16 8C16 3.58172 12.4183 0 8 0C3.58172 0 0 3.58172 0 8C0 12.4183 3.58172 16 8 16ZM8 14.8571C11.7871 14.8571 14.8571 11.7871 14.8571 8C14.8571 4.2129 11.7871 1.14286 8 1.14286C4.2129 1.14286 1.14286 4.2129 1.14286 8C1.14286 11.7871 4.2129 14.8571 8 14.8571ZM6.85714 8C6.85714 7.36882 7.36882 6.85714 8 6.85714C8.63118 6.85714 9.14286 7.36882 9.14286 8V11.4286C9.14286 12.0598 8.63118 12.5714 8 12.5714C7.36882 12.5714 6.85714 12.0598 6.85714 11.4286V8ZM8 3.42857C7.36882 3.42857 6.85714 3.94025 6.85714 4.57143C6.85714 5.20261 7.36882 5.71429 8 5.71429C8.63118 5.71429 9.14286 5.20261 9.14286 4.57143C9.14286 3.94025 8.63118 3.42857 8 3.42857Z" fill="currentColor"></path>
</svg>