<svg xmlns="http://www.w3.org/2000/svg" id="refresh" width="24" height="24" viewBox="0 0 24 24" fill="none">
    <path d="M20 12C20 11.4477 19.5523 11 19 11C18.4477 11 18 11.4477 18 12H20ZM12 18C11.4477 18 11 18.4477 11 19C11 19.5523 11.4477 20 12 20V18ZM4 12C4 12.5523 4.44772 13 5 13C5.55228 13 6 12.5523 6 12H4ZM12 6C12.5523 6 13 5.55228 13 5C13 4.44772 12.5523 4 12 4V6ZM18 12C18 15.3137 15.3137 18 12 18V20C16.4183 20 20 16.4183 20 12H18ZM6 12C6 8.68629 8.68629 6 12 6V4C7.58172 4 4 7.58172 4 12H6Z" fill="currentColor"></path>
    <path d="M2.30603 9.50183L4.16593 12.158C4.48271 12.6105 5.10626 12.7204 5.55866 12.4036L8.21488 10.5437" stroke="currentColor" stroke-width="2" stroke-linecap="round"></path>
    <path d="M21.694 14.4982L19.8341 11.842C19.5173 11.3895 18.8937 11.2796 18.4413 11.5964L15.7851 13.4563" stroke="currentColor" stroke-width="2" stroke-linecap="round"></path>
</svg>