<svg xmlns="http://www.w3.org/2000/svg" id="fullscreen" viewBox="0 0 24 24" fill="none">
<path fill-rule="evenodd" clip-rule="evenodd" d="M5 10C5.55228 10 6 9.55228 6 9V7C6 6.44772 6.44772 6 7 6H9C9.55228 6 10 5.55228 10 5C10 4.44772 9.55228 4 9 4H7C5.34315 4 4 5.34315 4 7V9C4 9.55228 4.44772 10 5 10ZM6 15C6 14.4477 5.55228 14 5 14C4.44772 14 4 14.4477 4 15V17C4 18.6569 5.34315 20 7 20H9C9.55228 20 10 19.5523 10 19C10 18.4477 9.55228 18 9 18H7C6.44772 18 6 17.5523 6 17V15ZM18 15C18 14.4477 18.4477 14 19 14C19.5523 14 20 14.4477 20 15V17C20 18.6569 18.6569 20 17 20H15C14.4477 20 14 19.5523 14 19C14 18.4477 14.4477 18 15 18H17C17.5523 18 18 17.5523 18 17V15ZM18 9C18 9.55228 18.4477 10 19 10C19.5523 10 20 9.55228 20 9V7C20 5.34315 18.6569 4 17 4H15C14.4477 4 14 4.44772 14 5C14 5.55228 14.4477 6 15 6H17C17.5523 6 18 6.44772 18 7V9Z" fill="currentColor"></path>
</svg>