<svg id="theme_mode" width="24" height="25" viewBox="0 0 24 25" fill="none" xmlns="http://www.w3.org/2000/svg">
<path d="M13.1029 8.24566C13.1908 8.24566 13.2468 8.18401 13.2627 8.09923C13.5105 6.81985 13.5025 6.78902 14.8931 6.53468C14.981 6.51156 15.045 6.46532 15.045 6.37283C15.045 6.27264 14.981 6.2264 14.8931 6.21098C13.5025 5.94123 13.5425 5.9104 13.2627 4.63873C13.2468 4.55395 13.1908 4.5 13.1029 4.5C13.007 4.5 12.951 4.55395 12.9351 4.63873C12.6553 5.9104 12.7033 5.94123 11.3047 6.21098C11.2168 6.2264 11.1608 6.27264 11.1608 6.37283C11.1608 6.46532 11.2168 6.51156 11.3047 6.53468C12.7033 6.80443 12.6793 6.81985 12.9351 8.09923C12.951 8.18401 13.007 8.24566 13.1029 8.24566ZM16.9231 13.4557C17.0669 13.4557 17.1708 13.3555 17.1948 13.2091C17.4505 11.1435 17.5624 11.0973 19.7283 10.7582C19.8961 10.7351 20 10.6503 20 10.4961C20 10.3497 19.8961 10.2649 19.7602 10.2341C17.5784 9.83333 17.4505 9.84875 17.1948 7.78324C17.1708 7.6368 17.0669 7.53661 16.9231 7.53661C16.7792 7.53661 16.6673 7.6368 16.6513 7.77553C16.3796 9.86416 16.2997 9.93353 14.0859 10.2341C13.95 10.2572 13.8462 10.3497 13.8462 10.4961C13.8462 10.6426 13.95 10.7351 14.0859 10.7582C16.2997 11.1667 16.3716 11.1667 16.6513 13.2245C16.6673 13.3555 16.7792 13.4557 16.9231 13.4557ZM10.9051 20.5C13.7902 20.5 16.1319 19.1127 17.2028 16.7158C17.3227 16.4383 17.3067 16.2071 17.1628 16.0607C17.043 15.9528 16.8272 15.9297 16.5794 16.0222C15.9241 16.2765 15.1648 16.3921 14.2937 16.3921C10.6813 16.3921 8.33966 14.211 8.33966 10.7813C8.33966 9.91041 8.50749 8.93931 8.77922 8.40751C8.92308 8.13006 8.91508 7.89884 8.7952 7.75241C8.65934 7.59827 8.41159 7.57514 8.09191 7.69846C5.63836 8.63873 4 11.1127 4 13.9412C4 17.6869 6.86114 20.5 10.9051 20.5Z" fill="#6C86AD"/>
</svg>
