<svg width="110" height="101" viewBox="0 0 110 101" fill="none" xmlns="http://www.w3.org/2000/svg">
<path d="M89.4487 84.9035C87.4171 87.003 85.4945 88.3599 83.979 89.4311C66.1307 102.014 45.0114 98.3471 40.523 97.4509C33.8939 96.1297 21.0828 93.5731 11.8188 82.8682C-2.19529 66.6751 -0.0146787 41.166 10.8557 24.3267C12.8437 21.2451 23.347 4.15225 44.6952 1.40996C57.6154 -0.250415 72.6725 3.0989 83.5792 12.0756C106.472 30.9182 104.84 68.9853 89.4487 84.9035Z" fill="#305263"/>
<g filter="url(#filter0_d)">
<ellipse rx="34.9371" ry="29.1686" transform="matrix(0.996236 0.0877719 -0.0882263 0.996004 65.4783 40.6332)" fill="url(#paint0_linear)"/>
</g>
<path d="M82.5137 27.4257C91.7332 25.3289 94.7434 33.7868 95.085 38.7547C95.0891 38.9972 95.1326 39.2423 95.0972 39.4823C93.4598 50.5948 82.6661 57.811 66.1995 58.0845C49.7974 58.357 36.2999 50.7951 36.0931 38.4478C36.089 38.2052 36.0849 37.9627 36.0809 37.7202C36.2559 32.7437 38.9495 25.959 46.1214 26.9157C53.2932 27.8724 73.2941 29.5225 82.5137 27.4257Z" fill="url(#paint1_linear)"/>
<path d="M82.5137 27.4257C91.7332 25.3289 94.7434 33.7868 95.085 38.7547C95.0891 38.9972 95.1326 39.2423 95.0972 39.4823C93.4598 50.5948 82.6661 57.811 66.1995 58.0845C49.7974 58.357 36.2999 50.7951 36.0931 38.4478C36.089 38.2052 36.0849 37.9627 36.0809 37.7202C36.2559 32.7437 38.9495 25.959 46.1214 26.9157C53.2932 27.8724 73.2941 29.5225 82.5137 27.4257Z" fill="url(#paint2_linear)"/>
<g filter="url(#filter1_d)">
<path d="M68.1522 46.1681C68.5461 46.164 68.7709 46.7284 68.5563 47.1275C67.9123 48.3245 66.3018 49.1916 64.3759 49.2117C62.5814 49.2305 61.0416 48.5098 60.3306 47.497C60.0194 47.0468 60.2736 46.2506 60.7551 46.2456L68.1522 46.1681Z" fill="url(#paint3_linear)"/>
</g>
<g filter="url(#filter2_d)">
<ellipse rx="4.22359" ry="5.50894" transform="matrix(-1.0001 0.00861372 0.00868731 0.999828 53.1793 40.5336)" fill="#C4C4C4"/>
<ellipse rx="4.22359" ry="5.50894" transform="matrix(-1.0001 0.00861372 0.00868731 0.999828 53.1793 40.5336)" fill="url(#paint4_linear)"/>
</g>
<g filter="url(#filter3_d)">
<ellipse rx="4.22359" ry="5.50894" transform="matrix(-1.0001 0.00861472 0.0086863 0.999828 75.4616 41.268)" fill="#C4C4C4"/>
<ellipse rx="4.22359" ry="5.50894" transform="matrix(-1.0001 0.00861472 0.0086863 0.999828 75.4616 41.268)" fill="url(#paint5_linear)"/>
</g>
<path d="M17.1621 71.4874L18.751 92.6705L52.5596 91.3521L50.9266 70.1689L17.1621 71.4874Z" fill="white"/>
<path d="M50.1307 69.8623L17.1166 71.1368C17.0283 71.1368 16.94 71.1808 16.8959 71.2247C16.8518 71.2687 16.8076 71.3566 16.8076 71.4444L16.94 74.5648C16.94 74.7406 17.0724 74.8724 17.249 74.8724C17.4255 74.8724 17.6021 74.6966 17.6021 74.5208L17.5138 71.7081L50.1748 70.4336C50.3514 70.4336 50.4838 70.2578 50.4838 70.082C50.4838 69.9941 50.3072 69.8623 50.1307 69.8623Z" fill="#9DD4FB"/>
<path d="M15.7051 74.6954V99.0002H56.3903L52.6474 73.2451L15.7051 74.6954Z" fill="#239BC7"/>
<path d="M11.6337 37.1896L11.6338 37.1894L11.6233 37.181C10.2954 36.1261 10.0741 34.1706 11.1331 32.849C12.1931 31.5262 14.1606 31.3063 15.4897 32.3623L15.9311 32.7129L16.0929 32.8415L16.2981 32.8185L16.3973 32.8075L16.8942 32.7519L16.838 32.2551L16.8268 32.1564L16.8035 31.95L16.6407 31.8207C15.3129 30.7657 15.0916 28.8103 16.1506 27.4887C17.2105 26.1658 19.178 25.946 20.5072 27.0019L34.5213 38.1355L34.6831 38.264L34.8883 38.2411L34.8883 38.2411L34.8883 38.2411L34.8884 38.2411L34.8884 38.2411L34.8884 38.2411L34.8884 38.2411L34.8884 38.2411L34.8884 38.2411L34.8885 38.2411L34.8885 38.2411L34.8885 38.2411L34.8885 38.2411L34.8885 38.2411L34.8885 38.2411L34.8886 38.2411L34.8886 38.241L34.8886 38.241L34.8886 38.241L34.8887 38.241L34.8887 38.241L34.8887 38.241L34.8887 38.241L34.8887 38.241L34.8888 38.241L34.8888 38.241L34.8888 38.241L34.8888 38.241L34.8888 38.241L34.8888 38.241L34.8889 38.241L34.8889 38.241L34.8889 38.241L34.8889 38.241L34.8889 38.241L34.889 38.241L34.889 38.241L34.889 38.241L34.889 38.241L34.889 38.241L34.8891 38.241L34.8891 38.241L34.8891 38.241L34.8891 38.241L34.8892 38.241L34.8892 38.241L34.8892 38.241L34.8892 38.241L34.8893 38.241L34.8893 38.241L34.8893 38.241L34.8893 38.241L34.8894 38.241L34.8894 38.241L34.8894 38.241L34.8895 38.241L34.8895 38.2409L34.8895 38.2409L34.8896 38.2409L34.8896 38.2409L34.8896 38.2409L34.8896 38.2409L34.8897 38.2409L34.8897 38.2409L34.8897 38.2409L34.8898 38.2409L34.8898 38.2409L34.8899 38.2409L34.8899 38.2409L34.8899 38.2409L34.89 38.2409L34.89 38.2409L34.89 38.2409L34.8901 38.2409L34.8901 38.2409L34.8902 38.2409L34.8902 38.2409L34.8902 38.2409L34.8903 38.2409L34.8903 38.2409L34.8904 38.2408L34.8904 38.2408L34.8905 38.2408L34.8905 38.2408L34.8906 38.2408L34.8906 38.2408L34.8907 38.2408L34.8907 38.2408L34.8907 38.2408L34.8908 38.2408L34.8908 38.2408L34.8909 38.2408L34.891 38.2408L34.891 38.2408L34.8911 38.2408L34.8911 38.2408L34.8912 38.2408L34.8912 38.2408L34.8913 38.2407L34.8913 38.2407L34.8914 38.2407L34.8914 38.2407L34.8915 38.2407L34.8916 38.2407L34.8916 38.2407L34.8917 38.2407L34.8917 38.2407L34.8918 38.2407L34.8919 38.2407L34.8919 38.2407L34.892 38.2407L34.8921 38.2407L34.8921 38.2407L34.8922 38.2406L34.8923 38.2406L34.8923 38.2406L34.8924 38.2406L34.8925 38.2406L34.8925 38.2406L34.8926 38.2406L34.8927 38.2406L34.8928 38.2406L34.8928 38.2406L34.8929 38.2406L34.893 38.2406L34.8931 38.2405L34.8931 38.2405L34.8932 38.2405L34.8933 38.2405L34.8934 38.2405L34.8935 38.2405L34.8935 38.2405L34.8936 38.2405L34.8937 38.2405L34.8938 38.2405L34.8939 38.2405L34.894 38.2404L34.894 38.2404L34.8941 38.2404L34.8942 38.2404L34.8943 38.2404L34.8944 38.2404L34.8945 38.2404L34.8946 38.2404L34.8947 38.2404L34.8948 38.2404L34.8949 38.2403L34.895 38.2403L34.8951 38.2403L34.8951 38.2403L34.8952 38.2403L34.8953 38.2403L34.8954 38.2403L34.8955 38.2403L34.8956 38.2403L34.8958 38.2402L34.8959 38.2402L34.896 38.2402L34.8961 38.2402L34.8962 38.2402L34.8963 38.2402L34.8964 38.2402L34.8965 38.2402L34.8966 38.2402L34.8967 38.2401L34.8968 38.2401L34.8969 38.2401L34.8971 38.2401L34.8972 38.2401L34.8973 38.2401L34.8974 38.2401L34.8975 38.24L34.8977 38.24L34.8978 38.24L34.8979 38.24L34.898 38.24L34.8981 38.24L34.8983 38.24L34.8984 38.24L34.8985 38.2399L34.8986 38.2399L34.8988 38.2399L34.8989 38.2399L34.899 38.2399L34.8992 38.2399L34.8993 38.2399L34.8994 38.2398L34.8996 38.2398L34.8997 38.2398L34.8999 38.2398L34.9 38.2398L34.9001 38.2398L34.9003 38.2397L34.9004 38.2397L34.9006 38.2397L34.9007 38.2397L34.9008 38.2397L34.901 38.2397L34.9011 38.2396L34.9013 38.2396L34.9014 38.2396L34.9016 38.2396L34.9017 38.2396L34.9019 38.2396L34.9021 38.2395L34.9022 38.2395L34.9024 38.2395L34.9025 38.2395L34.9027 38.2395L34.9028 38.2395L34.903 38.2394L34.9032 38.2394L34.9033 38.2394L34.9035 38.2394L34.9037 38.2394L34.9038 38.2393L34.904 38.2393L34.9042 38.2393L34.9044 38.2393L34.9045 38.2393L34.9047 38.2392L34.9049 38.2392L34.9051 38.2392L34.9052 38.2392L34.9054 38.2392L34.9056 38.2391L34.9058 38.2391L34.906 38.2391L34.9061 38.2391L34.9063 38.2391L34.9065 38.239L34.9067 38.239L34.9069 38.239L34.9071 38.239L34.9073 38.239L34.9075 38.2389L34.9077 38.2389L34.9079 38.2389L34.9081 38.2389L34.9083 38.2389L34.9085 38.2388L34.9087 38.2388L34.9089 38.2388L34.9091 38.2388L34.9093 38.2387L34.9095 38.2387L34.9097 38.2387L34.9099 38.2387L34.9101 38.2386L34.9103 38.2386L34.9105 38.2386L34.9107 38.2386L34.911 38.2385L34.9112 38.2385L34.9114 38.2385L34.9116 38.2385L34.9118 38.2385L34.9121 38.2384L34.9123 38.2384L34.9125 38.2384L34.9127 38.2384L34.913 38.2383L34.9132 38.2383L34.9134 38.2383L34.9137 38.2382L34.9139 38.2382L34.9141 38.2382L34.9144 38.2382L34.9146 38.2381L34.9149 38.2381L34.9151 38.2381L34.9153 38.2381L34.9156 38.238L34.9158 38.238L34.9161 38.238L34.9163 38.2379L34.9166 38.2379L34.9168 38.2379L34.9171 38.2379L34.9173 38.2378L34.9176 38.2378L34.9179 38.2378L34.9181 38.2377L34.9184 38.2377L34.9186 38.2377L34.9189 38.2377L34.9192 38.2376L34.9194 38.2376L34.9197 38.2376L34.92 38.2375L34.9203 38.2375L34.9205 38.2375L34.9208 38.2374L34.9211 38.2374L34.9214 38.2374L34.9216 38.2374L34.9219 38.2373L34.9222 38.2373L34.9225 38.2373L34.9228 38.2372L34.9231 38.2372L34.9234 38.2372L34.9236 38.2371L34.9239 38.2371L34.9242 38.2371L34.9245 38.237L34.9248 38.237L34.9251 38.237L34.9254 38.2369L34.9257 38.2369L34.926 38.2369L34.9263 38.2368L34.9267 38.2368L34.927 38.2368L34.9273 38.2367L34.9276 38.2367L34.9279 38.2367L34.9282 38.2366L34.9285 38.2366L34.9288 38.2366L34.9292 38.2365L34.9295 38.2365L34.9298 38.2364L34.9301 38.2364L34.9305 38.2364L34.9308 38.2363L34.9311 38.2363L34.9315 38.2363L34.9318 38.2362L34.9321 38.2362L34.9325 38.2361L34.9328 38.2361L34.9332 38.2361L34.9335 38.236L34.9338 38.236L34.9342 38.236L34.9345 38.2359L34.9349 38.2359L34.9352 38.2358L34.9356 38.2358L34.936 38.2358L34.9363 38.2357L34.9367 38.2357L34.937 38.2356L34.9374 38.2356L34.9378 38.2356L34.9381 38.2355L34.9385 38.2355L34.9389 38.2354L34.9392 38.2354L34.9396 38.2353L34.94 38.2353L34.9404 38.2353L34.9407 38.2352L34.9411 38.2352L34.9415 38.2351L34.9419 38.2351L34.9423 38.2351L34.9427 38.235L34.943 38.235L34.9434 38.2349L34.9438 38.2349L34.9442 38.2348L34.9446 38.2348L34.945 38.2347L34.9454 38.2347L34.9458 38.2347L34.9462 38.2346L34.9466 38.2346L34.9471 38.2345L34.9475 38.2345L34.9479 38.2344L34.9483 38.2344L34.9487 38.2343L34.9491 38.2343L34.9495 38.2342L34.95 38.2342L34.9504 38.2341L34.9508 38.2341L34.9512 38.234L34.9517 38.234L34.9521 38.234L34.9525 38.2339L34.953 38.2339L34.9534 38.2338L34.9539 38.2338L34.9543 38.2337L34.9547 38.2337L34.9552 38.2336L34.9556 38.2336L34.9561 38.2335L34.9565 38.2335L34.957 38.2334L34.9574 38.2334L34.9579 38.2333L34.9584 38.2333L34.9588 38.2332L34.9593 38.2331L34.9598 38.2331L34.9602 38.233L34.9607 38.233L34.9612 38.2329L34.9616 38.2329L34.9621 38.2328L34.9626 38.2328L34.9631 38.2327L34.9636 38.2327L34.964 38.2326L34.9645 38.2326L34.965 38.2325L34.9655 38.2325L34.966 38.2324L34.9665 38.2323L34.967 38.2323L34.9675 38.2322L34.968 38.2322L34.9685 38.2321L34.969 38.2321L34.9695 38.232L34.97 38.232L34.9705 38.2319L34.971 38.2318L34.9716 38.2318L34.9721 38.2317L34.9726 38.2317L34.9731 38.2316L34.9736 38.2315L34.9742 38.2315L34.9747 38.2314L34.9752 38.2314L34.9758 38.2313L34.9763 38.2312L34.9768 38.2312L34.9774 38.2311L34.9779 38.2311L34.9785 38.231L34.979 38.2309L34.9796 38.2309L34.9801 38.2308L34.9807 38.2308L34.9812 38.2307L34.9818 38.2306L34.9823 38.2306L34.9829 38.2305L34.9835 38.2304L34.984 38.2304L34.9846 38.2303L34.9852 38.2303L34.9857 38.2302L34.9863 38.2301L34.9869 38.2301L34.9875 38.23L34.9875 38.23L34.9875 38.23L34.9875 38.23L34.9875 38.23L34.9876 38.23L34.9876 38.23L34.9876 38.23L34.9876 38.23L34.9876 38.23L34.9876 38.23L34.9877 38.23L34.9877 38.23L34.9877 38.23L34.9877 38.23L34.9877 38.23L34.9878 38.23L34.9878 38.23L34.9878 38.23L34.9878 38.23L34.9879 38.23L34.9879 38.23L34.9879 38.23L34.9879 38.23L34.9879 38.2299L34.9879 38.2299L34.988 38.2299L34.988 38.2299L34.988 38.2299L34.988 38.2299L34.988 38.2299L34.9881 38.2299L34.9881 38.2299L34.9881 38.2299L34.9881 38.2299L34.9881 38.2299L34.9882 38.2299L34.9882 38.2299L34.9882 38.2299L34.9882 38.2299L34.9882 38.2299L34.9883 38.2299L34.9883 38.2299L34.9883 38.2299L34.9883 38.2299L34.9884 38.2299L34.9884 38.2299L34.9884 38.2299L34.9884 38.2299L34.9885 38.2299L34.9885 38.2299L34.9885 38.2299L34.9885 38.2299L34.9886 38.2299L34.9886 38.2299L34.9886 38.2299L34.9887 38.2299L34.9887 38.2299L34.9887 38.2299L34.9888 38.2299L34.9888 38.2299L34.9888 38.2299L34.9889 38.2298L34.9889 38.2298L34.9889 38.2298L34.989 38.2298L34.989 38.2298L34.989 38.2298L34.9891 38.2298L34.9891 38.2298L34.9891 38.2298L34.9892 38.2298L34.9892 38.2298L34.9893 38.2298L34.9893 38.2298L34.9893 38.2298L34.9894 38.2298L34.9894 38.2298L34.9895 38.2298L34.9895 38.2298L34.9896 38.2298L34.9896 38.2298L34.9896 38.2298L34.9897 38.2298L34.9897 38.2297L34.9898 38.2297L34.9898 38.2297L34.9899 38.2297L34.9899 38.2297L34.99 38.2297L34.99 38.2297L34.9901 38.2297L34.9901 38.2297L34.9902 38.2297L34.9902 38.2297L34.9903 38.2297L34.9903 38.2297L34.9904 38.2297L34.9904 38.2297L34.9905 38.2297L34.9906 38.2297L34.9906 38.2296L34.9907 38.2296L34.9907 38.2296L34.9908 38.2296L34.9909 38.2296L34.9909 38.2296L34.991 38.2296L34.991 38.2296L34.9911 38.2296L34.9912 38.2296L34.9912 38.2296L34.9913 38.2296L34.9914 38.2296L34.9914 38.2296L34.9915 38.2295L34.9916 38.2295L34.9916 38.2295L34.9917 38.2295L34.9918 38.2295L34.9919 38.2295L34.9919 38.2295L34.992 38.2295L34.9921 38.2295L34.9922 38.2295L34.9922 38.2295L34.9923 38.2295L34.9924 38.2295L34.9925 38.2294L34.9925 38.2294L34.9926 38.2294L34.9927 38.2294L34.9928 38.2294L34.9929 38.2294L34.993 38.2294L34.993 38.2294L34.9931 38.2294L34.9932 38.2294L34.9933 38.2293L34.9934 38.2293L34.9935 38.2293L34.9936 38.2293L34.9937 38.2293L34.9938 38.2293L34.9938 38.2293L34.9939 38.2293L34.994 38.2293L34.9941 38.2293L34.9942 38.2292L34.9943 38.2292L34.9944 38.2292L34.9945 38.2292L34.9946 38.2292L34.9947 38.2292L34.9948 38.2292L34.9949 38.2292L34.995 38.2292L34.9951 38.2291L34.9952 38.2291L34.9953 38.2291L34.9955 38.2291L34.9956 38.2291L34.9957 38.2291L34.9958 38.2291L34.9959 38.2291L34.996 38.229L34.9961 38.229L34.9962 38.229L34.9964 38.229L34.9965 38.229L34.9966 38.229L34.9967 38.229L34.9968 38.229L34.9969 38.2289L34.9971 38.2289L34.9972 38.2289L34.9973 38.2289L34.9974 38.2289L34.9976 38.2289L34.9977 38.2289L34.9978 38.2288L34.9979 38.2288L34.9981 38.2288L34.9982 38.2288L34.9983 38.2288L34.9985 38.2288L34.9986 38.2288L34.9987 38.2287L34.9989 38.2287L34.999 38.2287L34.9992 38.2287L34.9993 38.2287L34.9994 38.2287L34.9996 38.2286L34.9997 38.2286L34.9999 38.2286L35 38.2286L35.0002 38.2286L35.0003 38.2286L35.0005 38.2285L35.0006 38.2285L35.0008 38.2285L35.0009 38.2285L35.0011 38.2285L35.0012 38.2285L35.0014 38.2284L35.0015 38.2284L35.0017 38.2284L35.0019 38.2284L35.002 38.2284L35.0022 38.2284L35.0023 38.2283L35.0025 38.2283L35.0027 38.2283L35.0028 38.2283L35.003 38.2283L35.0032 38.2282L35.0034 38.2282L35.0035 38.2282L35.0037 38.2282L35.0039 38.2282L35.004 38.2281L35.0042 38.2281L35.0044 38.2281L35.0046 38.2281L35.0048 38.2281L35.0049 38.228L35.0051 38.228L35.0053 38.228L35.0055 38.228L35.0057 38.228L35.0059 38.2279L35.0061 38.2279L35.0063 38.2279L35.0064 38.2279L35.0066 38.2279L35.0068 38.2278L35.007 38.2278L35.0072 38.2278L35.0074 38.2278L35.0076 38.2277L35.0078 38.2277L35.008 38.2277L35.0082 38.2277L35.0084 38.2277L35.0087 38.2276L35.0089 38.2276L35.0091 38.2276L35.0093 38.2276L35.0095 38.2275L35.0097 38.2275L35.0099 38.2275L35.0101 38.2275L35.0104 38.2274L35.0106 38.2274L35.0108 38.2274L35.011 38.2274L35.0112 38.2273L35.0115 38.2273L35.0117 38.2273L35.0119 38.2273L35.0121 38.2272L35.0124 38.2272L35.0126 38.2272L35.0128 38.2272L35.0131 38.2271L35.0133 38.2271L35.0136 38.2271L35.0138 38.2271L35.014 38.227L35.0143 38.227L35.0145 38.227L35.0148 38.227L35.015 38.2269L35.0153 38.2269L35.0155 38.2269L35.0158 38.2268L35.016 38.2268L35.0163 38.2268L35.0165 38.2268L35.0168 38.2267L35.017 38.2267L35.0173 38.2267L35.0176 38.2266L35.0178 38.2266L35.0181 38.2266L35.0183 38.2266L35.0186 38.2265L35.0189 38.2265L35.0192 38.2265L35.0194 38.2264L35.0197 38.2264L35.02 38.2264L35.0203 38.2263L35.0205 38.2263L35.0208 38.2263L35.0211 38.2262L35.0214 38.2262L35.0217 38.2262L35.022 38.2261L35.0222 38.2261L35.0225 38.2261L35.0228 38.2261L35.0231 38.226L35.0234 38.226L35.0237 38.226L35.024 38.2259L35.0243 38.2259L35.0246 38.2259L35.0249 38.2258L35.0252 38.2258L35.0255 38.2258L35.0258 38.2257L35.0261 38.2257L35.0264 38.2256L35.0268 38.2256L35.0271 38.2256L35.0274 38.2255L35.0277 38.2255L35.028 38.2255L35.0283 38.2254L35.0287 38.2254L35.029 38.2254L35.0293 38.2253L35.0296 38.2253L35.03 38.2253L35.0303 38.2252L35.0306 38.2252L35.031 38.2251L35.0313 38.2251L35.0316 38.2251L35.032 38.225L35.0323 38.225L35.0327 38.225L35.033 38.2249L35.0334 38.2249L35.0337 38.2248L35.0341 38.2248L35.0344 38.2248L35.0348 38.2247L35.0351 38.2247L35.0355 38.2246L35.0358 38.2246L35.0362 38.2246L35.0366 38.2245L35.0369 38.2245L35.0373 38.2244L35.0377 38.2244L35.038 38.2244L35.0384 38.2243L35.0388 38.2243L35.0392 38.2242L35.0395 38.2242L35.0399 38.2241L35.0403 38.2241L35.0407 38.2241L35.0411 38.224L35.0414 38.224L35.0418 38.2239L35.0422 38.2239L35.0426 38.2238L35.043 38.2238L35.0434 38.2238L35.0438 38.2237L35.0442 38.2237L35.0446 38.2236L35.045 38.2236L35.0454 38.2235L35.0458 38.2235L35.0462 38.2234L35.0466 38.2234L35.0471 38.2233L35.0475 38.2233L35.0479 38.2233L35.0483 38.2232L35.0487 38.2232L35.0491 38.2231L35.0496 38.2231L35.05 38.223L35.0504 38.223L35.0509 38.2229L35.0513 38.2229L35.0517 38.2228L35.0522 38.2228L35.0526 38.2227L35.053 38.2227L35.0535 38.2226L35.0539 38.2226L35.0544 38.2225L35.0548 38.2225L35.0553 38.2224L35.0557 38.2224L35.0562 38.2223L35.0566 38.2223L35.0571 38.2222L35.0575 38.2222L35.058 38.2221L35.0585 38.2221L35.0589 38.222L35.0594 38.222L35.0599 38.2219L35.0603 38.2219L35.0608 38.2218L35.0613 38.2218L35.0618 38.2217L35.0623 38.2216L35.0627 38.2216L35.0632 38.2215L35.0637 38.2215L35.0642 38.2214L35.0647 38.2214L35.0652 38.2213L35.0657 38.2213L35.0662 38.2212L35.0667 38.2212L35.0672 38.2211L35.0677 38.221L35.0682 38.221L35.0687 38.2209L35.0692 38.2209L35.0697 38.2208L35.0702 38.2208L35.0707 38.2207L35.0713 38.2206L35.0718 38.2206L35.0723 38.2205L35.0728 38.2205L35.0733 38.2204L35.0739 38.2203L35.0744 38.2203L35.0749 38.2202L35.0755 38.2202L35.076 38.2201L35.0766 38.22L35.0771 38.22L35.0776 38.2199L35.0782 38.2199L35.0787 38.2198L35.0793 38.2197L35.0798 38.2197L35.0804 38.2196L35.081 38.2196L35.0815 38.2195L35.0821 38.2194L35.0826 38.2194L35.0832 38.2193L35.0838 38.2192L35.0843 38.2192L35.0849 38.2191L35.0855 38.219L35.0861 38.219L35.0867 38.2189L35.3457 38.19L35.47 37.9611C36.8171 35.4809 37.5186 33.5763 38.1344 31.9045L38.1356 31.9012C38.8279 30.0218 39.4193 28.4245 40.7709 26.7377C41.9034 25.3244 43.2516 24.8459 44.5002 24.8519C45.7715 24.858 46.9576 25.3683 47.706 25.9629C48.0872 26.2657 48.2246 26.5297 48.2491 26.7456C48.2729 26.956 48.2277 27.1845 48.0426 27.5103C47.8505 27.8485 47.5292 28.2545 47.041 28.8075L47.0331 28.8164L47.0257 28.8257L46.7617 29.1552C45.7631 30.4015 45.1756 32.1335 44.7903 34.0135C44.4038 35.8992 44.2095 37.9963 44.0366 40.0106C43.8599 41.6187 43.583 49.1696 43.3505 56.2837C43.2338 59.8541 43.128 63.3262 43.0514 65.9057C43.0131 67.1955 42.9821 68.2622 42.9606 69.0064L42.9406 69.7042L29.4456 70.1811L25.4624 70.1802C24.6349 70.18 24.0115 69.8254 23.376 69.2724C23.0993 69.0316 22.8325 68.7643 22.5453 68.4765C22.4966 68.4277 22.4473 68.3783 22.3973 68.3283C22.0662 67.9978 21.709 67.6492 21.3102 67.3294L7.27929 52.5192L7.25494 52.4935L7.22723 52.4715C5.89937 51.4165 5.67811 49.4611 6.73707 48.1395C7.92044 46.6626 9.58571 46.4547 10.7626 47.3897L10.9244 47.5182L11.1297 47.4953L11.2288 47.4842L11.7257 47.4287L11.6695 46.9319L11.6584 46.8331L11.6359 46.6346L11.4827 46.506L9.4853 44.8293L9.48542 44.8291L9.47483 44.8207C8.14697 43.7658 7.92571 41.8103 8.98467 40.4887C9.58827 39.7354 10.286 39.3026 10.9544 39.1764C11.6102 39.0526 12.2844 39.2137 12.8968 39.7382L13.062 39.8798L13.2781 39.8556L13.3773 39.8446L13.8742 39.789L13.818 39.2922L13.8068 39.1935L13.7843 38.9949L13.6312 38.8663L11.6337 37.1896Z" fill="#7F86FF" stroke="#585DB1"/>
<path d="M18.5399 35.1952L18.5399 35.1952L18.543 35.1975C18.6371 35.2665 18.7993 35.3594 18.9428 35.3856C19.2826 35.4475 19.6357 35.341 19.8333 35.049C20.1596 34.6571 20.0523 34.0928 19.6832 33.79L19.6833 33.7899L19.6755 33.784L16.638 31.4847C16.2429 31.1645 15.6665 31.2521 15.3523 31.6148C15.0123 32.0072 15.1178 32.5809 15.4911 32.8871L15.491 32.8873L15.4988 32.8931L18.5399 35.1952Z" fill="#585DB1" stroke="#585DB1" stroke-width="0.5"/>
<path d="M15.5458 42.1512L15.5457 42.1513L15.5489 42.1536C15.643 42.2225 15.8052 42.3154 15.9487 42.3416C16.2884 42.4036 16.6416 42.297 16.8392 42.0051C17.1654 41.6131 17.0581 41.0488 16.689 40.7461L16.6892 40.7459L16.6814 40.74L13.6438 38.4407C13.2488 38.1205 12.6723 38.2082 12.3581 38.5708C12.0182 38.9632 12.1237 39.537 12.497 39.8432L12.4969 39.8433L12.5046 39.8492L15.5458 42.1512Z" fill="#585DB1" stroke="#585DB1" stroke-width="0.5"/>
<path d="M12.5516 49.1073L12.5516 49.1073L12.5547 49.1096C12.6488 49.1786 12.811 49.2715 12.9546 49.2977C13.2943 49.3596 13.6475 49.2531 13.8451 48.9611C14.1713 48.5692 14.064 48.0049 13.6949 47.7021L13.695 47.702L13.6872 47.6961L10.6497 45.3968C10.2546 45.0766 9.67817 45.1642 9.36399 45.5269C9.02405 45.9193 9.12952 46.493 9.50283 46.7992L9.50271 46.7994L9.51048 46.8053L12.5516 49.1073Z" fill="#585DB1" stroke="#585DB1" stroke-width="0.5"/>
<path d="M28.5364 13.4029C28.4382 12.8547 28.325 12.2456 28.1815 11.5527C28.0381 12.2456 27.9248 12.8547 27.8267 13.4029C27.3888 15.9079 25.6448 18.0931 22.957 18.984C25.6674 19.8748 27.3888 22.0829 27.8267 24.565C27.9248 25.1132 28.0381 25.7224 28.1815 26.4152C28.325 25.7224 28.4382 25.1132 28.5364 24.565C28.9818 22.06 30.7258 19.8672 33.406 18.984C30.7334 18.1008 28.9818 15.9155 28.5364 13.4029Z" fill="#7EFFFC"/>
<path d="M63.466 77.0006C63.3679 76.4524 63.2546 75.8433 63.1112 75.1504C62.9678 75.8433 62.8545 76.4524 62.7564 77.0006C62.3185 79.5056 60.5745 81.6908 57.8867 82.5816C60.5971 83.4725 62.3185 85.6805 62.7564 88.1627C62.8545 88.7109 62.9678 89.32 63.1112 90.0129C63.2546 89.32 63.3679 88.7109 63.466 88.1627C63.9115 85.6577 65.6555 83.4649 68.3357 82.5816C65.663 81.6984 63.9115 79.5132 63.466 77.0006Z" fill="#7EFFFC"/>
<path d="M75.1226 73.5287C75.0476 73.1255 74.9611 72.6776 74.8515 72.168C74.7419 72.6776 74.6554 73.1255 74.5804 73.5287C74.2458 75.3711 72.9131 76.9782 70.8594 77.6334C72.9304 78.2886 74.2458 79.9125 74.5804 81.7381C74.6554 82.1413 74.7419 82.5892 74.8515 83.0988C74.9611 82.5892 75.0476 82.1413 75.1226 81.7381C75.463 79.8957 76.7956 78.283 78.8436 77.6334C76.8014 76.9838 75.463 75.3767 75.1226 73.5287Z" fill="#7EFFFC"/>
<defs>
<filter id="filter0_d" x="25.5762" y="10.417" width="79.8044" height="68.4316" filterUnits="userSpaceOnUse" color-interpolation-filters="sRGB">
<feFlood flood-opacity="0" result="BackgroundImageFix"/>
<feColorMatrix in="SourceAlpha" type="matrix" values="0 0 0 0 0 0 0 0 0 0 0 0 0 0 0 0 0 0 127 0"/>
<feOffset dy="4"/>
<feGaussianBlur stdDeviation="2.5"/>
<feColorMatrix type="matrix" values="0 0 0 0 0.266667 0 0 0 0 0.623529 0 0 0 0 0.686275 0 0 0 0.13 0"/>
<feBlend mode="normal" in2="BackgroundImageFix" result="effect1_dropShadow"/>
<feBlend mode="normal" in="SourceGraphic" in2="effect1_dropShadow" result="shape"/>
</filter>
<filter id="filter1_d" x="56.1943" y="42.168" width="16.4453" height="11.044" filterUnits="userSpaceOnUse" color-interpolation-filters="sRGB">
<feFlood flood-opacity="0" result="BackgroundImageFix"/>
<feColorMatrix in="SourceAlpha" type="matrix" values="0 0 0 0 0 0 0 0 0 0 0 0 0 0 0 0 0 0 127 0"/>
<feOffset/>
<feGaussianBlur stdDeviation="2"/>
<feColorMatrix type="matrix" values="0 0 0 0 0.137255 0 0 0 0 0.615686 0 0 0 0 0.784314 0 0 0 0.52 0"/>
<feBlend mode="normal" in2="BackgroundImageFix" result="effect1_dropShadow"/>
<feBlend mode="normal" in="SourceGraphic" in2="effect1_dropShadow" result="shape"/>
</filter>
<filter id="filter2_d" x="44.9551" y="31.0254" width="16.4485" height="19.0162" filterUnits="userSpaceOnUse" color-interpolation-filters="sRGB">
<feFlood flood-opacity="0" result="BackgroundImageFix"/>
<feColorMatrix in="SourceAlpha" type="matrix" values="0 0 0 0 0 0 0 0 0 0 0 0 0 0 0 0 0 0 127 0"/>
<feOffset/>
<feGaussianBlur stdDeviation="2"/>
<feColorMatrix type="matrix" values="0 0 0 0 0.137255 0 0 0 0 0.615686 0 0 0 0 0.784314 0 0 0 0.52 0"/>
<feBlend mode="normal" in2="BackgroundImageFix" result="effect1_dropShadow"/>
<feBlend mode="normal" in="SourceGraphic" in2="effect1_dropShadow" result="shape"/>
</filter>
<filter id="filter3_d" x="67.2373" y="31.7598" width="16.4485" height="19.0162" filterUnits="userSpaceOnUse" color-interpolation-filters="sRGB">
<feFlood flood-opacity="0" result="BackgroundImageFix"/>
<feColorMatrix in="SourceAlpha" type="matrix" values="0 0 0 0 0 0 0 0 0 0 0 0 0 0 0 0 0 0 127 0"/>
<feOffset/>
<feGaussianBlur stdDeviation="2"/>
<feColorMatrix type="matrix" values="0 0 0 0 0.137255 0 0 0 0 0.615686 0 0 0 0 0.784314 0 0 0 0.52 0"/>
<feBlend mode="normal" in2="BackgroundImageFix" result="effect1_dropShadow"/>
<feBlend mode="normal" in="SourceGraphic" in2="effect1_dropShadow" result="shape"/>
</filter>
<linearGradient id="paint0_linear" x1="34.9474" y1="26.6787" x2="34.9474" y2="75.8327" gradientUnits="userSpaceOnUse">
<stop offset="0.0216216" stop-color="white"/>
<stop offset="0.1591" stop-color="#FBFEFF"/>
<stop offset="0.3062" stop-color="#EEFAFD"/>
<stop offset="0.4579" stop-color="#D8F4FC"/>
<stop offset="0.6126" stop-color="#BAEBF9"/>
<stop offset="0.7699" stop-color="#94E0F5"/>
<stop offset="0.9269" stop-color="#65D3F1"/>
<stop offset="1" stop-color="#4DCCEF"/>
</linearGradient>
<linearGradient id="paint1_linear" x1="66.0267" y1="45.5353" x2="65.4376" y2="10.0693" gradientUnits="userSpaceOnUse">
<stop offset="0.0162162" stop-color="#332F6C"/>
<stop offset="1" stop-color="#5B2ED8"/>
</linearGradient>
<linearGradient id="paint2_linear" x1="68.1527" y1="48.734" x2="67.786" y2="26.6604" gradientUnits="userSpaceOnUse">
<stop stop-color="#42E8E0"/>
<stop offset="0.994792" stop-color="#2094C6"/>
</linearGradient>
<linearGradient id="paint3_linear" x1="64.0129" y1="48.8618" x2="63.9634" y2="44.9934" gradientUnits="userSpaceOnUse">
<stop offset="0.0162162" stop-color="#AFFFFC"/>
<stop offset="1" stop-color="#0EFFFF"/>
</linearGradient>
<linearGradient id="paint4_linear" x1="5.4062" y1="10.5014" x2="8.6938" y2="-1.32402" gradientUnits="userSpaceOnUse">
<stop offset="0.0162162" stop-color="#DAFFFB"/>
<stop offset="1" stop-color="#16FFFF"/>
</linearGradient>
<linearGradient id="paint5_linear" x1="5.4062" y1="10.5014" x2="8.6938" y2="-1.32402" gradientUnits="userSpaceOnUse">
<stop offset="0.0162162" stop-color="#DAFFFB"/>
<stop offset="1" stop-color="#16FFFF"/>
</linearGradient>
</defs>
</svg>
