<svg width="110" height="101" viewBox="0 0 110 101" fill="none" xmlns="http://www.w3.org/2000/svg">
<g clip-path="url(#clip0)">
<path d="M90.2342 85.8151C88.2074 87.9279 86.2893 89.2934 84.7773 90.3713C66.9705 103.034 45.9005 99.3438 41.4225 98.4418C34.8089 97.1123 22.0276 94.5396 12.7852 83.7669C-1.19626 67.4714 0.979273 41.801 11.8243 24.8551C13.8077 21.7541 24.2865 4.55305 45.585 1.79341C58.4751 0.122535 73.4971 3.49303 84.3784 12.5265C107.218 31.4883 105.59 69.7962 90.2342 85.8151Z" fill="#305263"/>
<g filter="url(#filter0_d)">
<g filter="url(#filter1_d)">
<ellipse rx="39.0831" ry="32.9676" transform="matrix(0.998084 0.0618772 -0.061945 0.99808 41.4279 47.2288)" fill="url(#paint0_linear)"/>
</g>
<path d="M60.0973 31.8055C70.3453 29.1605 73.9555 38.6271 74.481 44.2302C74.4926 44.5041 74.5483 44.7797 74.5157 45.052C73.0061 57.6571 61.1461 66.1337 42.7423 66.9354C24.4108 67.734 9.10044 59.5936 8.51223 45.6484C8.50067 45.3745 8.48912 45.1006 8.47756 44.8266C8.52938 39.1984 11.3451 31.4518 19.3917 32.3181C27.4383 33.1845 49.8494 34.4506 60.0973 31.8055Z" fill="url(#paint1_linear)"/>
<path d="M60.0973 31.8055C70.3453 29.1605 73.9555 38.6271 74.481 44.2302C74.4926 44.5041 74.5483 44.7797 74.5157 45.052C73.0061 57.6571 61.1461 66.1337 42.7423 66.9354C24.4108 67.734 9.10044 59.5936 8.51223 45.6484C8.50067 45.3745 8.48912 45.1006 8.47756 44.8266C8.52938 39.1984 11.3451 31.4518 19.3917 32.3181C27.4383 33.1845 49.8494 34.4506 60.0973 31.8055Z" fill="url(#paint2_linear)"/>
<g filter="url(#filter2_d)">
<path d="M44.5828 53.4069C45.0232 53.3904 45.2908 54.021 45.0622 54.478C44.3765 55.849 42.6006 56.8766 40.4478 56.9574C38.4418 57.0326 36.6994 56.2652 35.8753 55.143C35.5144 54.644 35.7758 53.7373 36.314 53.7171L44.5828 53.4069Z" fill="url(#paint3_linear)"/>
</g>
<g filter="url(#filter3_d)">
<ellipse rx="4.72658" ry="6.22507" transform="matrix(-0.999366 0.0356561 0.0339752 0.999422 27.6783 47.4877)" fill="#C4C4C4"/>
<ellipse rx="4.72658" ry="6.22507" transform="matrix(-0.999366 0.0356561 0.0339752 0.999422 27.6783 47.4877)" fill="url(#paint4_linear)"/>
</g>
<g filter="url(#filter4_d)">
<ellipse rx="4.72658" ry="6.22507" transform="matrix(-0.999366 0.0356559 0.0339753 0.999422 52.6129 47.6537)" fill="#C4C4C4"/>
<ellipse rx="4.72658" ry="6.22507" transform="matrix(-0.999366 0.0356559 0.0339753 0.999422 52.6129 47.6537)" fill="url(#paint5_linear)"/>
</g>
</g>
<path d="M88.0731 41.9901H58.4037C57.9043 41.9901 57.5049 41.5807 57.5049 41.0913V8.65466C57.5049 8.15533 57.9143 7.75586 58.4037 7.75586H88.0631C88.5624 7.75586 88.9619 8.16531 88.9619 8.65466V41.0913C88.9719 41.5807 88.5624 41.9901 88.0731 41.9901Z" fill="white"/>
<path d="M86.336 43.7396H60.1418C57.7251 43.7396 55.7578 41.7722 55.7578 39.3555V10.3841C55.7578 7.96737 57.7251 6 60.1418 6H86.336C88.7527 6 90.72 7.96737 90.72 10.3841V39.3555C90.72 41.7722 88.7527 43.7396 86.336 43.7396ZM60.1418 9.50532C59.6625 9.50532 59.263 9.90479 59.263 10.3841V39.3555C59.263 39.8348 59.6625 40.2343 60.1418 40.2343H86.336C86.8154 40.2343 87.2148 39.8348 87.2148 39.3555V10.3841C87.2148 9.90479 86.8154 9.50532 86.336 9.50532H60.1418Z" fill="#0E434C"/>
<path d="M98.2696 12.9515L96.7217 11.5434C95.6032 10.5348 93.7957 10.5947 92.6972 11.6932L77.448 26.9628L71.2465 21.4102C70.0181 20.3117 68.0508 20.3916 66.8625 21.59L65.9137 22.5487C64.7254 23.7471 64.7653 25.6246 65.9936 26.7232L75.1811 34.9522L75.7703 35.4815C76.8888 36.4901 78.6963 36.4302 79.7948 35.3317L98.3195 16.7764C99.408 15.6879 99.388 13.9602 98.2696 12.9515Z" fill="#42E8E0"/>
<path d="M93.7961 88.5988L92.5099 85.4268L88.9448 87.5034C88.9448 87.5034 90.0518 89.9396 92.3635 90.2993L93.7961 88.5988Z" fill="#9F5B53"/>
<path d="M90.0031 82.949L87.7566 85.745L88.9857 87.5191L92.5102 85.4261L90.0031 82.949Z" fill="#9F5B53"/>
<path d="M60.0495 71.1525C61.7507 69.1332 64.8438 69.1904 66.4799 71.1279L64.5426 68.8797C63.0611 67.1466 63.0611 64.5387 64.6809 62.9608C66.4634 61.2113 69.2879 61.3502 70.8589 63.2141L68.9216 60.966C67.4402 59.2328 67.4401 56.6249 69.0599 55.047C70.8425 53.2975 73.6669 53.4364 75.2379 55.3004L66.162 44.5418C64.7701 42.9395 64.6887 40.5359 66.048 38.9009C67.7491 36.8815 70.8422 36.9387 72.4783 38.8762L91.786 61.5215L93.3812 50.166C93.5439 49.046 94.13 48.0486 94.9195 47.37C95.7823 46.626 96.987 46.2091 98.2324 46.2826C100.65 46.4952 102.449 48.4981 102.432 50.9098L102.132 75.0188C102.107 77.0953 102.824 79.0901 104.15 80.6188L105.241 81.9105C105.941 82.7607 105.868 84.0116 105.021 84.7147L87.7819 99.5531C86.9353 100.256 85.69 100.183 84.9899 99.3324L82.2875 96.1605C81.2619 94.9423 79.8944 94.1085 78.4374 93.618C74.8559 92.4163 71.6651 90.2335 69.1825 87.3395L60.1636 76.7935C58.7879 75.1503 58.7065 72.7468 60.0495 71.1525Z" fill="#7F86FF"/>
<path d="M85.5596 100.51C85.1933 100.362 84.8188 100.117 84.5339 99.7656L81.8315 96.5937C80.9361 95.5227 79.707 94.697 78.25 94.2065C74.5465 92.9558 71.2336 90.724 68.7021 87.7155L59.6832 77.1695C58.0715 75.2892 58.0389 72.5259 59.5772 70.6783C60.5296 69.591 61.8726 68.9451 63.2889 68.9451C63.4842 68.9287 63.6633 68.9532 63.8424 68.9778C62.3772 66.9667 62.4993 64.1707 64.2249 62.4457C65.226 61.4728 66.5039 60.9904 67.8633 61.015C68.0016 61.0231 68.0993 61.0149 68.2377 61.0231C66.7725 59.012 66.8946 56.2161 68.6202 54.491C69.6213 53.5182 70.8992 53.0358 72.2586 53.0603C72.3969 53.0685 72.4946 53.0603 72.6167 53.1094L65.649 44.9996C64.0373 43.1193 64.0047 40.356 65.5431 38.5084C66.4954 37.421 67.8792 36.7915 69.2955 36.7915C70.7118 36.7915 72.0792 37.3882 72.999 38.5164L91.3869 60.0335L92.7868 50.1169C92.9577 48.8579 93.5926 47.7378 94.5449 46.8876C95.6112 45.9883 96.9298 45.5223 98.2973 45.6449C101.008 45.8329 103.108 48.1465 103.059 50.877L102.758 74.986C102.758 76.8827 103.385 78.7466 104.606 80.1855L105.697 81.4771C106.633 82.5644 106.519 84.2731 105.396 85.1969L88.1561 100.035C87.448 100.747 86.4142 100.853 85.5596 100.51ZM79.1861 93.1601C80.6105 93.7323 81.8641 94.6152 82.8001 95.7025L85.5026 98.8745C85.7223 99.1525 86.0479 99.2833 86.4061 99.3323C86.7642 99.3814 87.1061 99.2342 87.3828 99.0135L104.622 84.175C105.192 83.6927 105.241 82.8588 104.761 82.2865L103.67 80.9948C102.213 79.3189 101.464 77.1688 101.456 74.937L101.781 50.8852C101.789 48.8495 100.21 47.1246 98.1915 46.9775C97.1822 46.9039 96.1647 47.2064 95.3752 47.885C94.6589 48.4981 94.1787 49.3484 94.081 50.3049L92.4858 61.6604C92.4288 61.922 92.2498 62.1346 92.0381 62.1918C91.7695 62.2736 91.5253 62.1755 91.3707 61.9711L72.063 39.3258C71.3874 38.5328 70.3862 38.0832 69.3443 38.0914C68.2617 38.0832 67.3176 38.5574 66.6176 39.3668C65.4699 40.7075 65.5188 42.7187 66.699 44.1411L75.8319 54.8752C76.0517 55.1531 76.0273 55.5701 75.7505 55.7908C75.4738 56.0115 75.0587 55.987 74.8389 55.7091C74.1877 54.9733 73.2435 54.4991 72.2749 54.4419C71.2493 54.4092 70.3132 54.7445 69.6051 55.4557C68.2783 56.772 68.2458 58.9875 69.4912 60.4835L71.4285 62.7317C71.6483 63.0097 71.6238 63.4266 71.3471 63.6473C71.0703 63.8681 70.6552 63.8436 70.4354 63.5656C69.7843 62.8298 68.8401 62.3557 67.8552 62.3394C66.8296 62.3067 65.8935 62.6419 65.1854 63.3531C63.8586 64.6694 63.8261 66.8849 65.0715 68.381L67.0088 70.6291C67.2285 70.9071 67.2041 71.324 66.9274 71.5448C66.6506 71.7655 66.2355 71.741 66.0157 71.463C65.3401 70.67 64.3389 70.2204 63.2971 70.2286C62.2145 70.2204 61.2703 70.6946 60.5703 71.504C59.4226 72.8448 59.4715 74.8559 60.6518 76.2784L69.6707 86.8244C72.0475 89.6285 75.1732 91.7376 78.6733 92.9067C78.8442 93.0702 79.0233 93.0947 79.1861 93.1601Z" fill="#7D84FC"/>
<path d="M68.6527 74.5613C68.5713 74.5286 68.4655 74.4387 68.4004 74.3651L65.9829 71.5447C65.7631 71.2667 65.7875 70.8498 66.0642 70.629C66.341 70.4083 66.7561 70.4328 66.9759 70.7108L69.3934 73.5312C69.6132 73.8092 69.5888 74.2261 69.312 74.4469C69.1492 74.6185 68.8969 74.6594 68.6527 74.5613Z" fill="#7F86FF"/>
<path d="M73.0726 66.6629C72.9912 66.6302 72.8854 66.5403 72.8203 66.4667L70.4028 63.6462C70.183 63.3683 70.2074 62.9513 70.4842 62.7306C70.7609 62.5099 71.176 62.5344 71.3958 62.8123L73.8133 65.6328C74.0331 65.9107 74.0087 66.3277 73.732 66.5484C73.5692 66.7201 73.3168 66.761 73.0726 66.6629Z" fill="#7F86FF"/>
<path d="M77.5082 58.7273C77.4268 58.6946 77.321 58.6047 77.2559 58.5311L74.8383 55.7107C74.6186 55.4327 74.643 55.0158 74.9197 54.7951C75.1965 54.5743 75.6116 54.5988 75.8314 54.8768L78.2489 57.6972C78.4687 57.9752 78.4442 58.3921 78.1675 58.6129C77.9884 58.8254 77.7117 58.8091 77.5082 58.7273Z" fill="#7F86FF"/>
<path opacity="0.3" d="M85.5596 100.51C85.1933 100.362 84.8188 100.117 84.5339 99.7656L81.8315 96.5937C80.9361 95.5227 79.707 94.697 78.25 94.2065C74.5465 92.9558 71.2336 90.724 68.7021 87.7155L59.6832 77.1695C58.0715 75.2892 58.0389 72.5259 59.5772 70.6783C60.5296 69.591 61.8726 68.9451 63.2889 68.9451C63.4842 68.9287 63.6633 68.9532 63.8424 68.9778C62.3772 66.9667 62.4993 64.1707 64.2249 62.4457C65.226 61.4728 66.5039 60.9904 67.8633 61.015C68.0016 61.0231 68.0993 61.0149 68.2377 61.0231C66.7725 59.012 66.8946 56.2161 68.6202 54.491C69.6213 53.5182 70.8992 53.0358 72.2586 53.0603C72.3969 53.0685 72.4946 53.0603 72.6167 53.1094L65.649 44.9996C64.0373 43.1193 64.0047 40.356 65.5431 38.5084C66.4954 37.421 67.8792 36.7915 69.2955 36.7915C70.7118 36.7915 72.0792 37.3882 72.999 38.5164L91.3869 60.0335L92.7868 50.1169C92.9577 48.8579 93.5926 47.7378 94.5449 46.8876C95.6112 45.9883 96.9298 45.5223 98.2973 45.6449C101.008 45.8329 103.108 48.1465 103.059 50.877L102.758 74.986C102.758 76.8827 103.385 78.7466 104.606 80.1855L105.697 81.4771C106.633 82.5644 106.519 84.2731 105.396 85.1969L88.1561 100.035C87.448 100.747 86.4142 100.853 85.5596 100.51ZM79.1861 93.1601C80.6105 93.7323 81.8641 94.6152 82.8001 95.7025L85.5026 98.8745C85.7223 99.1525 86.0479 99.2833 86.4061 99.3323C86.7642 99.3814 87.1061 99.2342 87.3828 99.0135L104.622 84.175C105.192 83.6927 105.241 82.8588 104.761 82.2865L103.67 80.9948C102.213 79.3189 101.464 77.1688 101.456 74.937L101.781 50.8852C101.789 48.8495 100.21 47.1246 98.1915 46.9775C97.1822 46.9039 96.1647 47.2064 95.3752 47.885C94.6589 48.4981 94.1787 49.3484 94.081 50.3049L92.4858 61.6604C92.4288 61.922 92.2498 62.1346 92.0381 62.1918C91.7695 62.2736 91.5253 62.1755 91.3707 61.9711L72.063 39.3258C71.3874 38.5328 70.3862 38.0832 69.3443 38.0914C68.2617 38.0832 67.3176 38.5574 66.6176 39.3668C65.4699 40.7075 65.5188 42.7187 66.699 44.1411L75.8319 54.8752C76.0517 55.1531 76.0273 55.5701 75.7505 55.7908C75.4738 56.0115 75.0587 55.987 74.8389 55.7091C74.1877 54.9733 73.2435 54.4991 72.2749 54.4419C71.2493 54.4092 70.3132 54.7445 69.6051 55.4557C68.2783 56.772 68.2458 58.9875 69.4912 60.4835L71.4285 62.7317C71.6483 63.0097 71.6238 63.4266 71.3471 63.6473C71.0703 63.8681 70.6552 63.8436 70.4354 63.5656C69.7843 62.8298 68.8401 62.3557 67.8552 62.3394C66.8296 62.3067 65.8935 62.6419 65.1854 63.3531C63.8586 64.6694 63.8261 66.8849 65.0715 68.381L67.0088 70.6291C67.2285 70.9071 67.2041 71.324 66.9274 71.5448C66.6506 71.7655 66.2355 71.741 66.0157 71.463C65.3401 70.67 64.3389 70.2204 63.2971 70.2286C62.2145 70.2204 61.2703 70.6946 60.5703 71.504C59.4226 72.8448 59.4715 74.8559 60.6518 76.2784L69.6707 86.8244C72.0475 89.6285 75.1732 91.7376 78.6733 92.9067C78.8442 93.0702 79.0233 93.0947 79.1861 93.1601Z" fill="black"/>
</g>
<defs>
<filter id="filter0_d" x="-1.63477" y="10.2344" width="84.1251" height="71.989" filterUnits="userSpaceOnUse" color-interpolation-filters="sRGB">
<feFlood flood-opacity="0" result="BackgroundImageFix"/>
<feColorMatrix in="SourceAlpha" type="matrix" values="0 0 0 0 0 0 0 0 0 0 0 0 0 0 0 0 0 0 127 0"/>
<feOffset dx="-1" dy="-1"/>
<feGaussianBlur stdDeviation="1.5"/>
<feColorMatrix type="matrix" values="0 0 0 0 0.180392 0 0 0 0 0.376471 0 0 0 0 0.447059 0 0 0 0.35 0"/>
<feBlend mode="normal" in2="BackgroundImageFix" result="effect1_dropShadow"/>
<feBlend mode="normal" in="SourceGraphic" in2="effect1_dropShadow" result="shape"/>
</filter>
<filter id="filter1_d" x="-2.93385" y="13.1746" width="88.7233" height="76.5871" filterUnits="userSpaceOnUse" color-interpolation-filters="sRGB">
<feFlood flood-opacity="0" result="BackgroundImageFix"/>
<feColorMatrix in="SourceAlpha" type="matrix" values="0 0 0 0 0 0 0 0 0 0 0 0 0 0 0 0 0 0 127 0"/>
<feOffset dy="4.23927"/>
<feGaussianBlur stdDeviation="2.64954"/>
<feColorMatrix type="matrix" values="0 0 0 0 0.266667 0 0 0 0 0.623529 0 0 0 0 0.686275 0 0 0 0.13 0"/>
<feBlend mode="normal" in2="BackgroundImageFix" result="effect1_dropShadow"/>
<feBlend mode="normal" in="SourceGraphic" in2="effect1_dropShadow" result="shape"/>
</filter>
<filter id="filter2_d" x="31.4697" y="49.167" width="17.9155" height="12.0344" filterUnits="userSpaceOnUse" color-interpolation-filters="sRGB">
<feFlood flood-opacity="0" result="BackgroundImageFix"/>
<feColorMatrix in="SourceAlpha" type="matrix" values="0 0 0 0 0 0 0 0 0 0 0 0 0 0 0 0 0 0 127 0"/>
<feOffset/>
<feGaussianBlur stdDeviation="2.11963"/>
<feColorMatrix type="matrix" values="0 0 0 0 0.137255 0 0 0 0 0.615686 0 0 0 0 0.784314 0 0 0 0.52 0"/>
<feBlend mode="normal" in2="BackgroundImageFix" result="effect1_dropShadow"/>
<feBlend mode="normal" in="SourceGraphic" in2="effect1_dropShadow" result="shape"/>
</filter>
<filter id="filter3_d" x="18.7109" y="37.0244" width="17.9353" height="20.9261" filterUnits="userSpaceOnUse" color-interpolation-filters="sRGB">
<feFlood flood-opacity="0" result="BackgroundImageFix"/>
<feColorMatrix in="SourceAlpha" type="matrix" values="0 0 0 0 0 0 0 0 0 0 0 0 0 0 0 0 0 0 127 0"/>
<feOffset/>
<feGaussianBlur stdDeviation="2.11963"/>
<feColorMatrix type="matrix" values="0 0 0 0 0.137255 0 0 0 0 0.615686 0 0 0 0 0.784314 0 0 0 0.52 0"/>
<feBlend mode="normal" in2="BackgroundImageFix" result="effect1_dropShadow"/>
<feBlend mode="normal" in="SourceGraphic" in2="effect1_dropShadow" result="shape"/>
</filter>
<filter id="filter4_d" x="43.6455" y="37.1904" width="17.9353" height="20.9261" filterUnits="userSpaceOnUse" color-interpolation-filters="sRGB">
<feFlood flood-opacity="0" result="BackgroundImageFix"/>
<feColorMatrix in="SourceAlpha" type="matrix" values="0 0 0 0 0 0 0 0 0 0 0 0 0 0 0 0 0 0 127 0"/>
<feOffset/>
<feGaussianBlur stdDeviation="2.11963"/>
<feColorMatrix type="matrix" values="0 0 0 0 0.137255 0 0 0 0 0.615686 0 0 0 0 0.784314 0 0 0 0.52 0"/>
<feBlend mode="normal" in2="BackgroundImageFix" result="effect1_dropShadow"/>
<feBlend mode="normal" in="SourceGraphic" in2="effect1_dropShadow" result="shape"/>
</filter>
<linearGradient id="paint0_linear" x1="39.0946" y1="30.1534" x2="39.0946" y2="85.7093" gradientUnits="userSpaceOnUse">
<stop offset="0.0216216" stop-color="white"/>
<stop offset="0.1591" stop-color="#FBFEFF"/>
<stop offset="0.3062" stop-color="#EEFAFD"/>
<stop offset="0.4579" stop-color="#D8F4FC"/>
<stop offset="0.6126" stop-color="#BAEBF9"/>
<stop offset="0.7699" stop-color="#94E0F5"/>
<stop offset="0.9269" stop-color="#65D3F1"/>
<stop offset="1" stop-color="#4DCCEF"/>
</linearGradient>
<linearGradient id="paint1_linear" x1="42.1865" y1="52.7612" x2="40.4416" y2="12.7079" gradientUnits="userSpaceOnUse">
<stop offset="0.0162162" stop-color="#332F6C"/>
<stop offset="1" stop-color="#5B2ED8"/>
</linearGradient>
<linearGradient id="paint2_linear" x1="44.656" y1="56.3118" x2="43.57" y2="31.3831" gradientUnits="userSpaceOnUse">
<stop stop-color="#42E8E0"/>
<stop offset="0.994792" stop-color="#2094C6"/>
</linearGradient>
<linearGradient id="paint3_linear" x1="40.0318" y1="56.5732" x2="39.8578" y2="52.2068" gradientUnits="userSpaceOnUse">
<stop offset="0.0162162" stop-color="#AFFFFC"/>
<stop offset="1" stop-color="#0EFFFF"/>
</linearGradient>
<linearGradient id="paint4_linear" x1="6.05002" y1="11.8665" x2="9.79593" y2="-1.47738" gradientUnits="userSpaceOnUse">
<stop offset="0.0162162" stop-color="#DAFFFB"/>
<stop offset="1" stop-color="#16FFFF"/>
</linearGradient>
<linearGradient id="paint5_linear" x1="6.05003" y1="11.8665" x2="9.79593" y2="-1.47739" gradientUnits="userSpaceOnUse">
<stop offset="0.0162162" stop-color="#DAFFFB"/>
<stop offset="1" stop-color="#16FFFF"/>
</linearGradient>
<clipPath id="clip0">
<rect width="110" height="101" fill="white"/>
</clipPath>
</defs>
</svg>
